{
.appVersion = "3207";
.formatVersion = 3;
customParameters = (
{
name = fsType;
value = (
);
},
{
name = "Use Typo Metrics";
value = 1;
}
);
date = "2023-04-20 12:05:23 +0000";
familyName = Mooli;
featurePrefixes = (
{
automatic = 1;
code = "languagesystem DFLT dflt;

languagesystem latn dflt;
languagesystem latn CAT;
";
name = Languagesystems;
}
);
features = (
{
automatic = 1;
code = "feature locl;
feature frac;
feature ordn;
";
tag = aalt;
},
{
automatic = 1;
code = "script latn;
language CAT;
lookup locl_latn_0 {
	sub  l' periodcentered' l by ldot;
	sub  L' periodcentered' L by Ldot;
} locl_latn_0;
";
tag = locl;
},
{
automatic = 1;
code = "sub one slash four by onequarter;
sub one slash two by onehalf;
sub three slash four by threequarters;
";
tag = frac;
},
{
automatic = 1;
code = "sub [zero one two three four five six seven eight nine] [A a]' by ordfeminine;
sub [zero one two three four five six seven eight nine] [O o]' by ordmasculine;
";
tag = ordn;
},
{
automatic = 1;
code = "lookupflag IgnoreMarks;
sub f i by uniFB01;
sub f l by uniFB02;
";
tag = dlig;
}
);
fontMaster = (
{
customParameters = (
{
name = winAscent;
value = 0;
},
{
name = winDescent;
value = 0;
}
);
guides = (
{
pos = (201,1178);
},
{
pos = (1,1498);
}
);
id = "9FF46155-5700-4CC7-A83F-22EBDC7BC473";
metricValues = (
{
pos = 1638;
},
{
over = 27;
pos = 1456;
},
{
over = 25;
pos = 1026;
},
{
over = -26;
},
{
pos = -410;
},
{
over = -26;
},
{
over = 15;
pos = 1438;
},
{
over = 36;
pos = 1490;
},
{
over = -37;
pos = -427;
}
);
name = Regular;
stemValues = (
165,
172,
20,
125,
137,
142,
148
);
}
);
glyphs = (
{
glyphname = A;
lastChange = "2023-07-28 09:07:07 +0000";
layers = (
{
anchors = (
{
name = ogonek;
pos = (1282,10);
},
{
name = top;
pos = (713,1456);
}
);
background = {
anchors = (
{
name = ogonek;
pos = (1282,10);
},
{
name = top;
pos = (713,1456);
}
);
shapes = (
{
closed = 1;
nodes = (
(13,0,l),
(199,0,l),
(355,397,l),
(1053,397,l),
(1216,0,l),
(1407,0,l),
(802,1456,l),
(617,1456,l)
);
},
{
closed = 1;
nodes = (
(742,1192,o),
(760,1150,c),
(994,545,l),
(410,545,l),
(655,1149,l),
(670,1191,o),
(692,1252,o),
(707,1298,c),
(721,1252,o)
);
}
);
};
layerId = "9FF46155-5700-4CC7-A83F-22EBDC7BC473";
shapes = (
{
closed = 1;
nodes = (
(13,0,l),
(199,0,l),
(355,397,l),
(1053,397,l),
(1216,0,l),
(1407,0,l),
(802,1456,l),
(617,1456,l)
);
},
{
closed = 1;
nodes = (
(742,1192,o),
(760,1150,c),
(994,545,l),
(410,545,l),
(655,1149,l),
(670,1191,o),
(692,1252,o),
(707,1298,c),
(721,1252,o)
);
}
);
width = 1425;
}
);
unicode = 65;
},
{
glyphname = Aacute;
lastChange = "2023-07-28 09:19:43 +0000";
layers = (
{
background = {
anchors = (
{
name = ogonek;
pos = (1282,10);
},
{
name = top;
pos = (713,1456);
}
);
shapes = (
{
closed = 1;
nodes = (
(13,0,l),
(199,0,l),
(355,397,l),
(1053,397,l),
(1216,0,l),
(1407,0,l),
(802,1456,l),
(617,1456,l)
);
},
{
closed = 1;
nodes = (
(742,1192,o),
(760,1150,c),
(994,545,l),
(410,545,l),
(655,1149,l),
(670,1191,o),
(692,1252,o),
(707,1298,c),
(721,1252,o)
);
},
{
closed = 1;
nodes = (
(762,1602,l),
(1070,1922,l),
(858,1922,l),
(632,1602,l)
);
}
);
};
layerId = "9FF46155-5700-4CC7-A83F-22EBDC7BC473";
shapes = (
{
ref = A;
},
{
pos = (457,430);
ref = acutecomb;
}
);
width = 1425;
}
);
unicode = 193;
},
{
glyphname = Abreve;
lastChange = "2023-07-28 09:19:43 +0000";
layers = (
{
background = {
anchors = (
{
name = ogonek;
pos = (1282,10);
},
{
name = top;
pos = (713,1456);
}
);
shapes = (
{
closed = 1;
nodes = (
(13,0,l),
(199,0,l),
(355,397,l),
(1053,397,l),
(1216,0,l),
(1407,0,l),
(802,1456,l),
(617,1456,l)
);
},
{
closed = 1;
nodes = (
(742,1192,o),
(760,1150,c),
(994,545,l),
(410,545,l),
(655,1149,l),
(670,1191,o),
(692,1252,o),
(707,1298,c),
(721,1252,o)
);
},
{
closed = 1;
nodes = (
(544,1648,o),
(715,1648,cs),
(881,1648,o),
(982,1730,o),
(995,1884,c),
(909,1884,l),
(889,1800,o),
(810,1755,o),
(708,1755,cs),
(606,1755,o),
(533,1796,o),
(518,1884,c),
(431,1884,l),
(444,1724,o)
);
}
);
};
layerId = "9FF46155-5700-4CC7-A83F-22EBDC7BC473";
shapes = (
{
ref = A;
},
{
pos = (399,430);
ref = brevecomb;
}
);
width = 1425;
}
);
unicode = 258;
},
{
glyphname = Acircumflex;
lastChange = "2023-07-28 09:19:43 +0000";
layers = (
{
background = {
anchors = (
{
name = ogonek;
pos = (1282,10);
},
{
name = top;
pos = (713,1456);
}
);
shapes = (
{
closed = 1;
nodes = (
(13,0,l),
(199,0,l),
(355,397,l),
(1053,397,l),
(1216,0,l),
(1407,0,l),
(802,1456,l),
(617,1456,l)
);
},
{
closed = 1;
nodes = (
(742,1192,o),
(760,1150,c),
(994,545,l),
(410,545,l),
(655,1149,l),
(670,1191,o),
(692,1252,o),
(707,1298,c),
(721,1252,o)
);
},
{
closed = 1;
nodes = (
(532,1600,l),
(710,1816,l),
(888,1600,l),
(1020,1600,l),
(791,1924,l),
(634,1924,l),
(406,1600,l)
);
}
);
};
layerId = "9FF46155-5700-4CC7-A83F-22EBDC7BC473";
shapes = (
{
ref = A;
},
{
pos = (371,430);
ref = circumflexcomb;
}
);
width = 1425;
}
);
unicode = 194;
},
{
glyphname = Adblgrave;
lastChange = "2023-07-28 09:19:43 +0000";
layers = (
{
background = {
anchors = (
{
name = ogonek;
pos = (1282,10);
},
{
name = top;
pos = (713,1456);
}
);
shapes = (
{
closed = 1;
nodes = (
(13,0,l),
(199,0,l),
(355,397,l),
(1053,397,l),
(1216,0,l),
(1407,0,l),
(802,1456,l),
(617,1456,l)
);
},
{
closed = 1;
nodes = (
(742,1192,o),
(760,1150,c),
(994,545,l),
(410,545,l),
(655,1149,l),
(670,1191,o),
(692,1252,o),
(707,1298,c),
(721,1252,o)
);
},
{
closed = 1;
nodes = (
(645,1604,l),
(425,1917,l),
(249,1917,l),
(525,1604,l)
);
},
{
closed = 1;
nodes = (
(912,1604,l),
(695,1917,l),
(519,1917,l),
(794,1604,l)
);
}
);
};
layerId = "9FF46155-5700-4CC7-A83F-22EBDC7BC473";
shapes = (
{
ref = A;
},
{
pos = (87,430);
ref = dblgravecomb;
}
);
width = 1425;
}
);
unicode = 512;
},
{
glyphname = Adieresis;
lastChange = "2023-07-28 09:19:43 +0000";
layers = (
{
background = {
anchors = (
{
name = ogonek;
pos = (1282,10);
},
{
name = top;
pos = (713,1456);
}
);
shapes = (
{
closed = 1;
nodes = (
(13,0,l),
(199,0,l),
(355,397,l),
(1053,397,l),
(1216,0,l),
(1407,0,l),
(802,1456,l),
(617,1456,l)
);
},
{
closed = 1;
nodes = (
(742,1192,o),
(760,1150,c),
(994,545,l),
(410,545,l),
(655,1149,l),
(670,1191,o),
(692,1252,o),
(707,1298,c),
(721,1252,o)
);
},
{
closed = 1;
nodes = (
(629,1613,l),
(629,1776,l),
(465,1776,l),
(465,1613,l)
);
},
{
closed = 1;
nodes = (
(961,1613,l),
(961,1776,l),
(797,1776,l),
(797,1613,l)
);
}
);
};
layerId = "9FF46155-5700-4CC7-A83F-22EBDC7BC473";
shapes = (
{
ref = A;
},
{
pos = (344,430);
ref = dieresiscomb;
}
);
width = 1425;
}
);
unicode = 196;
},
{
glyphname = Agrave;
lastChange = "2023-07-28 09:19:43 +0000";
layers = (
{
background = {
anchors = (
{
name = ogonek;
pos = (1282,10);
},
{
name = top;
pos = (713,1456);
}
);
shapes = (
{
closed = 1;
nodes = (
(13,0,l),
(199,0,l),
(355,397,l),
(1053,397,l),
(1216,0,l),
(1407,0,l),
(802,1456,l),
(617,1456,l)
);
},
{
closed = 1;
nodes = (
(742,1192,o),
(760,1150,c),
(994,545,l),
(410,545,l),
(655,1149,l),
(670,1191,o),
(692,1252,o),
(707,1298,c),
(721,1252,o)
);
},
{
closed = 1;
nodes = (
(807,1602,l),
(560,1922,l),
(346,1922,l),
(678,1602,l)
);
}
);
};
layerId = "9FF46155-5700-4CC7-A83F-22EBDC7BC473";
shapes = (
{
ref = A;
},
{
pos = (345,430);
ref = gravecomb;
}
);
width = 1425;
}
);
unicode = 192;
},
{
glyphname = Ainvertedbreve;
lastChange = "2023-07-28 09:19:43 +0000";
layers = (
{
background = {
anchors = (
{
name = ogonek;
pos = (1282,10);
},
{
name = top;
pos = (713,1456);
}
);
shapes = (
{
closed = 1;
nodes = (
(13,0,l),
(199,0,l),
(355,397,l),
(1053,397,l),
(1216,0,l),
(1407,0,l),
(802,1456,l),
(617,1456,l)
);
},
{
closed = 1;
nodes = (
(742,1192,o),
(760,1150,c),
(994,545,l),
(410,545,l),
(655,1149,l),
(670,1191,o),
(692,1252,o),
(707,1298,c),
(721,1252,o)
);
},
{
closed = 1;
nodes = (
(440,1808,o),
(427,1648,c),
(514,1648,l),
(529,1736,o),
(602,1777,o),
(704,1777,cs),
(806,1777,o),
(885,1732,o),
(905,1648,c),
(991,1648,l),
(978,1802,o),
(877,1884,o),
(711,1884,cs),
(540,1884,o)
);
}
);
};
layerId = "9FF46155-5700-4CC7-A83F-22EBDC7BC473";
shapes = (
{
ref = A;
},
{
pos = (395,430);
ref = breveinvertedcomb;
}
);
width = 1425;
}
);
unicode = 514;
},
{
glyphname = Amacron;
lastChange = "2023-07-28 09:19:43 +0000";
layers = (
{
background = {
anchors = (
{
name = ogonek;
pos = (1282,10);
},
{
name = top;
pos = (713,1456);
}
);
shapes = (
{
closed = 1;
nodes = (
(13,0,l),
(199,0,l),
(355,397,l),
(1053,397,l),
(1216,0,l),
(1407,0,l),
(802,1456,l),
(617,1456,l)
);
},
{
closed = 1;
nodes = (
(742,1192,o),
(760,1150,c),
(994,545,l),
(410,545,l),
(655,1149,l),
(670,1191,o),
(692,1252,o),
(707,1298,c),
(721,1252,o)
);
},
{
closed = 1;
nodes = (
(999,1613,l),
(999,1747,l),
(427,1747,l),
(427,1613,l)
);
}
);
};
layerId = "9FF46155-5700-4CC7-A83F-22EBDC7BC473";
shapes = (
{
ref = A;
},
{
pos = (348,430);
ref = macroncomb;
}
);
width = 1425;
}
);
unicode = 256;
},
{
glyphname = Aogonek;
lastChange = "2023-07-28 09:19:43 +0000";
layers = (
{
background = {
anchors = (
{
name = ogonek;
pos = (1282,10);
},
{
name = top;
pos = (713,1456);
}
);
shapes = (
{
closed = 1;
nodes = (
(13,0,l),
(199,0,l),
(355,397,l),
(1053,397,l),
(1216,0,l),
(1407,0,l),
(802,1456,l),
(617,1456,l)
);
},
{
closed = 1;
nodes = (
(742,1192,o),
(760,1150,c),
(994,545,l),
(410,545,l),
(655,1149,l),
(670,1191,o),
(692,1252,o),
(707,1298,c),
(721,1252,o)
);
},
{
closed = 1;
nodes = (
(1123,-390,o),
(1217,-390,cs),
(1281,-390,o),
(1348,-380,o),
(1394,-361,c),
(1394,-250,l),
(1348,-268,o),
(1304,-281,o),
(1240,-281,cs),
(1189,-281,o),
(1140,-250,o),
(1140,-199,cs),
(1140,-183,o),
(1145,-167,o),
(1155,-151,cs),
(1197,-86,o),
(1274,-42,o),
(1343,0,c),
(1214,12,l),
(1160,-14,o),
(1106,-49,o),
(1066,-89,cs),
(1033,-122,o),
(999,-167,o),
(999,-225,cs),
(999,-252,o),
(1005,-276,o),
(1016,-296,cs),
(1050,-357,o)
);
}
);
};
layerId = "9FF46155-5700-4CC7-A83F-22EBDC7BC473";
shapes = (
{
ref = A;
},
{
pos = (951,0);
ref = ogonekcomb;
}
);
width = 1425;
}
);
unicode = 260;
},
{
glyphname = Aring;
lastChange = "2023-07-28 09:19:43 +0000";
layers = (
{
background = {
anchors = (
{
name = ogonek;
pos = (1282,10);
},
{
name = top;
pos = (713,1456);
}
);
shapes = (
{
closed = 1;
nodes = (
(13,0,l),
(199,0,l),
(355,397,l),
(1053,397,l),
(1216,0,l),
(1407,0,l),
(802,1456,l),
(617,1456,l)
);
},
{
closed = 1;
nodes = (
(742,1192,o),
(760,1150,c),
(994,545,l),
(410,545,l),
(655,1149,l),
(670,1191,o),
(692,1252,o),
(707,1298,c),
(721,1252,o)
);
},
{
closed = 1;
nodes = (
(619,1579,o),
(714,1579,cs),
(742,1579,o),
(769,1584,o),
(794,1594,cs),
(861,1620,o),
(923,1679,o),
(923,1770,cs),
(923,1796,o),
(918,1821,o),
(907,1844,cs),
(877,1910,o),
(808,1960,o),
(713,1960,cs),
(684,1960,o),
(656,1956,o),
(631,1946,cs),
(563,1920,o),
(503,1861,o),
(503,1769,cs),
(503,1742,o),
(508,1717,o),
(519,1694,cs),
(550,1629,o)
);
},
{
closed = 1;
nodes = (
(772,1665,o),
(712,1665,cs),
(647,1665,o),
(602,1706,o),
(602,1770,cs),
(602,1830,o),
(652,1875,o),
(712,1875,cs),
(774,1875,o),
(823,1832,o),
(823,1770,cs),
(823,1710,o)
);
}
);
};
layerId = "9FF46155-5700-4CC7-A83F-22EBDC7BC473";
shapes = (
{
ref = A;
},
{
pos = (413,430);
ref = ringcomb;
}
);
width = 1425;
}
);
unicode = 197;
},
{
glyphname = Atilde;
lastChange = "2023-07-28 09:19:43 +0000";
layers = (
{
background = {
anchors = (
{
name = ogonek;
pos = (1282,10);
},
{
name = top;
pos = (713,1456);
}
);
shapes = (
{
closed = 1;
nodes = (
(13,0,l),
(199,0,l),
(355,397,l),
(1053,397,l),
(1216,0,l),
(1407,0,l),
(802,1456,l),
(617,1456,l)
);
},
{
closed = 1;
nodes = (
(742,1192,o),
(760,1150,c),
(994,545,l),
(410,545,l),
(655,1149,l),
(670,1191,o),
(692,1252,o),
(707,1298,c),
(721,1252,o)
);
},
{
closed = 1;
nodes = (
(401,1749,o),
(391,1633,c),
(496,1633,l),
(503,1690,o),
(533,1718,o),
(587,1718,cs),
(682,1718,o),
(744,1650,o),
(840,1650,cs),
(964,1650,o),
(1022,1752,o),
(1035,1865,c),
(927,1865,l),
(920,1814,o),
(893,1775,o),
(840,1775,cs),
(821,1775,o),
(801,1779,o),
(781,1786,cs),
(723,1807,o),
(666,1843,o),
(590,1843,cs),
(466,1843,o)
);
}
);
};
layerId = "9FF46155-5700-4CC7-A83F-22EBDC7BC473";
shapes = (
{
ref = A;
},
{
pos = (377,430);
ref = tildecomb;
}
);
width = 1425;
}
);
unicode = 195;
},
{
glyphname = AE;
lastChange = "2023-07-28 09:07:07 +0000";
layers = (
{
anchors = (
{
name = top;
pos = (1014,0);
}
);
background = {
anchors = (
{
name = top;
pos = (1014,0);
}
);
shapes = (
{
closed = 1;
nodes = (
(201,0,l),
(427,398,l),
(1073,398,l),
(1104,0,l),
(1901,0,l),
(1901,148,l),
(1257,148,l),
(1216,672,l),
(1837,672,l),
(1837,820,l),
(1197,820,l),
(1159,1308,l),
(1878,1308,l),
(1878,1456,l),
(836,1456,l),
(5,0,l)
);
},
{
closed = 1;
nodes = (
(944,1308,l),
(994,1308,l),
(1054,546,l),
(506,546,l)
);
}
);
};
layerId = "9FF46155-5700-4CC7-A83F-22EBDC7BC473";
shapes = (
{
closed = 1;
nodes = (
(201,0,l),
(427,398,l),
(1073,398,l),
(1104,0,l),
(1901,0,l),
(1901,148,l),
(1257,148,l),
(1216,672,l),
(1837,672,l),
(1837,820,l),
(1197,820,l),
(1159,1308,l),
(1878,1308,l),
(1878,1456,l),
(836,1456,l),
(5,0,l)
);
},
{
closed = 1;
nodes = (
(944,1308,l),
(994,1308,l),
(1054,546,l),
(506,546,l)
);
}
);
width = 2028;
}
);
unicode = 198;
},
{
glyphname = B;
lastChange = "2023-07-28 09:07:07 +0000";
layers = (
{
background = {
shapes = (
{
closed = 1;
nodes = (
(174,0,l),
(651,0,ls),
(998,0,o),
(1212,114,o),
(1212,403,cs),
(1212,625,o),
(1106,730,o),
(908,769,c),
(1068,823,o),
(1143,918,o),
(1143,1105,cs),
(1143,1357,o),
(960,1456,o),
(585,1456,cs),
(174,1456,l)
);
},
{
closed = 1;
nodes = (
(1030,602,o),
(1030,406,cs),
(1030,221,o),
(913,148,o),
(645,148,cs),
(346,148,l),
(346,684,l),
(599,684,ls),
(908,684,o)
);
},
{
closed = 1;
nodes = (
(962,1243,o),
(962,1077,cs),
(962,898,o),
(851,825,o),
(569,825,cs),
(346,825,l),
(346,1308,l),
(585,1308,ls),
(858,1308,o)
);
}
);
};
layerId = "9FF46155-5700-4CC7-A83F-22EBDC7BC473";
shapes = (
{
closed = 1;
nodes = (
(174,0,l),
(651,0,ls),
(998,0,o),
(1212,114,o),
(1212,403,cs),
(1212,625,o),
(1106,730,o),
(908,769,c),
(1068,823,o),
(1143,918,o),
(1143,1105,cs),
(1143,1357,o),
(960,1456,o),
(585,1456,cs),
(174,1456,l)
);
},
{
closed = 1;
nodes = (
(1030,602,o),
(1030,406,cs),
(1030,221,o),
(913,148,o),
(645,148,cs),
(346,148,l),
(346,684,l),
(599,684,ls),
(908,684,o)
);
},
{
closed = 1;
nodes = (
(962,1243,o),
(962,1077,cs),
(962,898,o),
(851,825,o),
(569,825,cs),
(346,825,l),
(346,1308,l),
(585,1308,ls),
(858,1308,o)
);
}
);
width = 1297;
}
);
unicode = 66;
},
{
glyphname = C;
lastChange = "2023-07-28 09:07:07 +0000";
layers = (
{
anchors = (
{
name = bottom;
pos = (842,0);
},
{
name = top;
pos = (801,1456);
}
);
background = {
anchors = (
{
name = bottom;
pos = (842,0);
},
{
name = top;
pos = (801,1456);
}
);
shapes = (
{
closed = 1;
nodes = (
(112,1168,o),
(112,726,cs),
(112,287,o),
(375,-22,o),
(816,-22,cs),
(1017,-22,o),
(1176,31,o),
(1295,127,c),
(1238,267,l),
(1137,179,o),
(1002,130,o),
(821,130,cs),
(465,130,o),
(295,382,o),
(295,725,cs),
(295,1076,o),
(483,1331,o),
(837,1331,cs),
(974,1331,o),
(1101,1283,o),
(1202,1206,c),
(1281,1332,l),
(1171,1414,o),
(1038,1483,o),
(818,1483,cs),
(390,1483,o)
);
}
);
};
layerId = "9FF46155-5700-4CC7-A83F-22EBDC7BC473";
shapes = (
{
closed = 1;
nodes = (
(112,1168,o),
(112,726,cs),
(112,287,o),
(375,-22,o),
(816,-22,cs),
(1017,-22,o),
(1176,31,o),
(1295,127,c),
(1238,267,l),
(1137,179,o),
(1002,130,o),
(821,130,cs),
(465,130,o),
(295,382,o),
(295,725,cs),
(295,1076,o),
(483,1331,o),
(837,1331,cs),
(974,1331,o),
(1101,1283,o),
(1202,1206,c),
(1281,1332,l),
(1171,1414,o),
(1038,1483,o),
(818,1483,cs),
(390,1483,o)
);
}
);
width = 1391;
}
);
unicode = 67;
},
{
glyphname = Cacute;
lastChange = "2023-07-28 09:19:43 +0000";
layers = (
{
background = {
anchors = (
{
name = bottom;
pos = (842,0);
},
{
name = top;
pos = (801,1456);
}
);
shapes = (
{
closed = 1;
nodes = (
(112,1168,o),
(112,726,cs),
(112,287,o),
(375,-22,o),
(816,-22,cs),
(1017,-22,o),
(1176,31,o),
(1295,127,c),
(1238,267,l),
(1137,179,o),
(1002,130,o),
(821,130,cs),
(465,130,o),
(295,382,o),
(295,725,cs),
(295,1076,o),
(483,1331,o),
(837,1331,cs),
(974,1331,o),
(1101,1283,o),
(1202,1206,c),
(1281,1332,l),
(1171,1414,o),
(1038,1483,o),
(818,1483,cs),
(390,1483,o)
);
},
{
closed = 1;
nodes = (
(850,1602,l),
(1158,1922,l),
(946,1922,l),
(720,1602,l)
);
}
);
};
layerId = "9FF46155-5700-4CC7-A83F-22EBDC7BC473";
shapes = (
{
ref = C;
},
{
pos = (545,430);
ref = acutecomb;
}
);
width = 1391;
}
);
unicode = 262;
},
{
glyphname = Ccaron;
lastChange = "2023-07-28 09:19:43 +0000";
layers = (
{
background = {
anchors = (
{
name = bottom;
pos = (842,0);
},
{
name = top;
pos = (801,1456);
}
);
shapes = (
{
closed = 1;
nodes = (
(112,1168,o),
(112,726,cs),
(112,287,o),
(375,-22,o),
(816,-22,cs),
(1017,-22,o),
(1176,31,o),
(1295,127,c),
(1238,267,l),
(1137,179,o),
(1002,130,o),
(821,130,cs),
(465,130,o),
(295,382,o),
(295,725,cs),
(295,1076,o),
(483,1331,o),
(837,1331,cs),
(974,1331,o),
(1101,1283,o),
(1202,1206,c),
(1281,1332,l),
(1171,1414,o),
(1038,1483,o),
(818,1483,cs),
(390,1483,o)
);
},
{
closed = 1;
nodes = (
(879,1600,l),
(1117,1923,l),
(963,1923,l),
(795,1708,l),
(631,1923,l),
(484,1923,l),
(723,1600,l)
);
}
);
};
layerId = "9FF46155-5700-4CC7-A83F-22EBDC7BC473";
shapes = (
{
ref = C;
},
{
pos = (455,430);
ref = caroncomb;
}
);
width = 1391;
}
);
unicode = 268;
},
{
glyphname = Ccedilla;
lastChange = "2023-07-28 09:19:43 +0000";
layers = (
{
background = {
anchors = (
{
name = bottom;
pos = (842,0);
},
{
name = top;
pos = (801,1456);
}
);
shapes = (
{
closed = 1;
nodes = (
(112,1168,o),
(112,726,cs),
(112,287,o),
(375,-22,o),
(816,-22,cs),
(1017,-22,o),
(1176,31,o),
(1295,127,c),
(1238,267,l),
(1137,179,o),
(1002,130,o),
(821,130,cs),
(465,130,o),
(295,382,o),
(295,725,cs),
(295,1076,o),
(483,1331,o),
(837,1331,cs),
(974,1331,o),
(1101,1283,o),
(1202,1206,c),
(1281,1332,l),
(1171,1414,o),
(1038,1483,o),
(818,1483,cs),
(390,1483,o)
);
},
{
closed = 1;
nodes = (
(749,-396,o),
(809,-396,cs),
(930,-396,o),
(1050,-359,o),
(1050,-239,cs),
(1050,-131,o),
(954,-95,o),
(850,-90,c),
(841,-90,l),
(859,17,l),
(762,17,l),
(729,-173,l),
(761,-171,ls),
(772,-170,o),
(789,-168,o),
(798,-168,cs),
(858,-168,o),
(907,-182,o),
(907,-241,cs),
(907,-297,o),
(859,-313,o),
(793,-313,cs),
(739,-313,o),
(692,-301,o),
(642,-289,c),
(634,-374,l),
(688,-385,o)
);
}
);
};
layerId = "9FF46155-5700-4CC7-A83F-22EBDC7BC473";
shapes = (
{
ref = C;
},
{
pos = (582,0);
ref = cedillacomb;
}
);
width = 1391;
}
);
unicode = 199;
},
{
glyphname = D;
lastChange = "2023-07-28 09:07:07 +0000";
layers = (
{
anchors = (
{
name = center;
pos = (254,773);
},
{
name = top;
pos = (743,1456);
}
);
background = {
anchors = (
{
name = center;
pos = (254,773);
},
{
name = top;
pos = (743,1456);
}
);
shapes = (
{
closed = 1;
nodes = (
(174,0,l),
(591,0,ls),
(1076,0,o),
(1411,241,o),
(1411,724,cs),
(1411,1273,o),
(1037,1456,o),
(489,1456,cs),
(174,1456,l)
);
},
{
closed = 1;
nodes = (
(1229,1170,o),
(1229,721,cs),
(1229,341,o),
(992,148,o),
(607,148,cs),
(346,148,l),
(346,1308,l),
(510,1308,ls),
(960,1308,o)
);
}
);
};
layerId = "9FF46155-5700-4CC7-A83F-22EBDC7BC473";
shapes = (
{
closed = 1;
nodes = (
(174,0,l),
(591,0,ls),
(1076,0,o),
(1411,241,o),
(1411,724,cs),
(1411,1273,o),
(1037,1456,o),
(489,1456,cs),
(174,1456,l)
);
},
{
closed = 1;
nodes = (
(1229,1170,o),
(1229,721,cs),
(1229,341,o),
(992,148,o),
(607,148,cs),
(346,148,l),
(346,1308,l),
(510,1308,ls),
(960,1308,o)
);
}
);
width = 1523;
}
);
unicode = 68;
},
{
glyphname = Eth;
lastChange = "2023-07-28 09:07:07 +0000";
layers = (
{
background = {
shapes = (
{
closed = 1;
nodes = (
(365,658,l),
(571,658,l),
(571,795,l),
(365,795,l),
(365,1308,l),
(529,1308,ls),
(647,1308,o),
(750,1298,o),
(840,1278,cs),
(1107,1218,o),
(1248,1048,o),
(1248,721,cs),
(1248,638,o),
(1235,560,o),
(1210,490,cs),
(1131,268,o),
(929,148,o),
(626,148,cs),
(365,148,l)
);
},
{
closed = 1;
nodes = (
(610,0,ls),
(739,0,o),
(854,17,o),
(956,51,cs),
(1234,144,o),
(1430,359,o),
(1430,724,cs),
(1430,1273,o),
(1056,1456,o),
(508,1456,cs),
(193,1456,l),
(193,795,l),
(-1,795,l),
(-1,658,l),
(193,658,l),
(193,0,l)
);
}
);
};
layerId = "9FF46155-5700-4CC7-A83F-22EBDC7BC473";
shapes = (
{
closed = 1;
nodes = (
(365,658,l),
(571,658,l),
(571,795,l),
(365,795,l),
(365,1308,l),
(529,1308,ls),
(647,1308,o),
(750,1298,o),
(840,1278,cs),
(1107,1218,o),
(1248,1048,o),
(1248,721,cs),
(1248,638,o),
(1235,560,o),
(1210,490,cs),
(1131,268,o),
(929,148,o),
(626,148,cs),
(365,148,l)
);
},
{
closed = 1;
nodes = (
(610,0,ls),
(739,0,o),
(854,17,o),
(956,51,cs),
(1234,144,o),
(1430,359,o),
(1430,724,cs),
(1430,1273,o),
(1056,1456,o),
(508,1456,cs),
(193,1456,l),
(193,795,l),
(-1,795,l),
(-1,658,l),
(193,658,l),
(193,0,l)
);
}
);
width = 1546;
}
);
unicode = 208;
},
{
glyphname = E;
lastChange = "2023-07-28 09:07:07 +0000";
layers = (
{
anchors = (
{
name = bottom;
pos = (656,0);
},
{
name = ogonek;
pos = (1065,10);
},
{
name = top;
pos = (643,1456);
}
);
background = {
anchors = (
{
name = bottom;
pos = (656,0);
},
{
name = ogonek;
pos = (1065,10);
},
{
name = top;
pos = (643,1456);
}
);
shapes = (
{
closed = 1;
nodes = (
(174,0,l),
(1091,0,l),
(1091,148,l),
(346,148,l),
(346,672,l),
(1003,672,l),
(1003,820,l),
(346,820,l),
(346,1308,l),
(1041,1308,l),
(1041,1456,l),
(174,1456,l)
);
}
);
};
layerId = "9FF46155-5700-4CC7-A83F-22EBDC7BC473";
shapes = (
{
closed = 1;
nodes = (
(174,0,l),
(1091,0,l),
(1091,148,l),
(346,148,l),
(346,672,l),
(1003,672,l),
(1003,820,l),
(346,820,l),
(346,1308,l),
(1041,1308,l),
(1041,1456,l),
(174,1456,l)
);
}
);
width = 1187;
}
);
unicode = 69;
},
{
glyphname = Eacute;
lastChange = "2023-07-28 09:19:43 +0000";
layers = (
{
background = {
anchors = (
{
name = bottom;
pos = (656,0);
},
{
name = ogonek;
pos = (1065,10);
},
{
name = top;
pos = (643,1456);
}
);
shapes = (
{
closed = 1;
nodes = (
(174,0,l),
(1091,0,l),
(1091,148,l),
(346,148,l),
(346,672,l),
(1003,672,l),
(1003,820,l),
(346,820,l),
(346,1308,l),
(1041,1308,l),
(1041,1456,l),
(174,1456,l)
);
},
{
closed = 1;
nodes = (
(692,1602,l),
(1000,1922,l),
(788,1922,l),
(562,1602,l)
);
}
);
};
layerId = "9FF46155-5700-4CC7-A83F-22EBDC7BC473";
shapes = (
{
ref = E;
},
{
pos = (387,430);
ref = acutecomb;
}
);
width = 1187;
}
);
unicode = 201;
},
{
glyphname = Ecircumflex;
lastChange = "2023-07-28 09:19:43 +0000";
layers = (
{
background = {
anchors = (
{
name = bottom;
pos = (656,0);
},
{
name = ogonek;
pos = (1065,10);
},
{
name = top;
pos = (643,1456);
}
);
shapes = (
{
closed = 1;
nodes = (
(174,0,l),
(1091,0,l),
(1091,148,l),
(346,148,l),
(346,672,l),
(1003,672,l),
(1003,820,l),
(346,820,l),
(346,1308,l),
(1041,1308,l),
(1041,1456,l),
(174,1456,l)
);
},
{
closed = 1;
nodes = (
(462,1600,l),
(640,1816,l),
(818,1600,l),
(950,1600,l),
(721,1924,l),
(564,1924,l),
(336,1600,l)
);
}
);
};
layerId = "9FF46155-5700-4CC7-A83F-22EBDC7BC473";
shapes = (
{
ref = E;
},
{
pos = (301,430);
ref = circumflexcomb;
}
);
width = 1187;
}
);
unicode = 202;
},
{
glyphname = Edblgrave;
lastChange = "2023-07-28 09:19:43 +0000";
layers = (
{
background = {
anchors = (
{
name = bottom;
pos = (656,0);
},
{
name = ogonek;
pos = (1065,10);
},
{
name = top;
pos = (643,1456);
}
);
shapes = (
{
closed = 1;
nodes = (
(174,0,l),
(1091,0,l),
(1091,148,l),
(346,148,l),
(346,672,l),
(1003,672,l),
(1003,820,l),
(346,820,l),
(346,1308,l),
(1041,1308,l),
(1041,1456,l),
(174,1456,l)
);
},
{
closed = 1;
nodes = (
(575,1604,l),
(355,1917,l),
(179,1917,l),
(455,1604,l)
);
},
{
closed = 1;
nodes = (
(842,1604,l),
(625,1917,l),
(449,1917,l),
(724,1604,l)
);
}
);
};
layerId = "9FF46155-5700-4CC7-A83F-22EBDC7BC473";
shapes = (
{
ref = E;
},
{
pos = (17,430);
ref = dblgravecomb;
}
);
width = 1187;
}
);
unicode = 516;
},
{
glyphname = Edieresis;
lastChange = "2023-07-28 09:19:43 +0000";
layers = (
{
background = {
anchors = (
{
name = bottom;
pos = (656,0);
},
{
name = ogonek;
pos = (1065,10);
},
{
name = top;
pos = (643,1456);
}
);
shapes = (
{
closed = 1;
nodes = (
(174,0,l),
(1091,0,l),
(1091,148,l),
(346,148,l),
(346,672,l),
(1003,672,l),
(1003,820,l),
(346,820,l),
(346,1308,l),
(1041,1308,l),
(1041,1456,l),
(174,1456,l)
);
},
{
closed = 1;
nodes = (
(559,1613,l),
(559,1776,l),
(395,1776,l),
(395,1613,l)
);
},
{
closed = 1;
nodes = (
(891,1613,l),
(891,1776,l),
(727,1776,l),
(727,1613,l)
);
}
);
};
layerId = "9FF46155-5700-4CC7-A83F-22EBDC7BC473";
shapes = (
{
ref = E;
},
{
pos = (274,430);
ref = dieresiscomb;
}
);
width = 1187;
}
);
unicode = 203;
},
{
glyphname = Egrave;
lastChange = "2023-07-28 09:19:43 +0000";
layers = (
{
background = {
anchors = (
{
name = bottom;
pos = (656,0);
},
{
name = ogonek;
pos = (1065,10);
},
{
name = top;
pos = (643,1456);
}
);
shapes = (
{
closed = 1;
nodes = (
(174,0,l),
(1091,0,l),
(1091,148,l),
(346,148,l),
(346,672,l),
(1003,672,l),
(1003,820,l),
(346,820,l),
(346,1308,l),
(1041,1308,l),
(1041,1456,l),
(174,1456,l)
);
},
{
closed = 1;
nodes = (
(737,1602,l),
(490,1922,l),
(276,1922,l),
(608,1602,l)
);
}
);
};
layerId = "9FF46155-5700-4CC7-A83F-22EBDC7BC473";
shapes = (
{
ref = E;
},
{
pos = (275,430);
ref = gravecomb;
}
);
width = 1187;
}
);
unicode = 200;
},
{
glyphname = Einvertedbreve;
lastChange = "2023-07-28 09:19:43 +0000";
layers = (
{
background = {
anchors = (
{
name = bottom;
pos = (656,0);
},
{
name = ogonek;
pos = (1065,10);
},
{
name = top;
pos = (643,1456);
}
);
shapes = (
{
closed = 1;
nodes = (
(174,0,l),
(1091,0,l),
(1091,148,l),
(346,148,l),
(346,672,l),
(1003,672,l),
(1003,820,l),
(346,820,l),
(346,1308,l),
(1041,1308,l),
(1041,1456,l),
(174,1456,l)
);
},
{
closed = 1;
nodes = (
(370,1808,o),
(357,1648,c),
(444,1648,l),
(459,1736,o),
(532,1777,o),
(634,1777,cs),
(736,1777,o),
(815,1732,o),
(835,1648,c),
(921,1648,l),
(908,1802,o),
(807,1884,o),
(641,1884,cs),
(470,1884,o)
);
}
);
};
layerId = "9FF46155-5700-4CC7-A83F-22EBDC7BC473";
shapes = (
{
ref = E;
},
{
pos = (325,430);
ref = breveinvertedcomb;
}
);
width = 1187;
}
);
unicode = 518;
},
{
glyphname = Emacron;
lastChange = "2023-07-28 09:19:43 +0000";
layers = (
{
background = {
anchors = (
{
name = bottom;
pos = (656,0);
},
{
name = ogonek;
pos = (1065,10);
},
{
name = top;
pos = (643,1456);
}
);
shapes = (
{
closed = 1;
nodes = (
(174,0,l),
(1091,0,l),
(1091,148,l),
(346,148,l),
(346,672,l),
(1003,672,l),
(1003,820,l),
(346,820,l),
(346,1308,l),
(1041,1308,l),
(1041,1456,l),
(174,1456,l)
);
},
{
closed = 1;
nodes = (
(929,1613,l),
(929,1747,l),
(357,1747,l),
(357,1613,l)
);
}
);
};
layerId = "9FF46155-5700-4CC7-A83F-22EBDC7BC473";
shapes = (
{
ref = E;
},
{
pos = (278,430);
ref = macroncomb;
}
);
width = 1187;
}
);
unicode = 274;
},
{
glyphname = Eogonek;
lastChange = "2023-07-28 09:19:43 +0000";
layers = (
{
background = {
anchors = (
{
name = bottom;
pos = (656,0);
},
{
name = ogonek;
pos = (1065,10);
},
{
name = top;
pos = (643,1456);
}
);
shapes = (
{
closed = 1;
nodes = (
(174,0,l),
(1091,0,l),
(1091,148,l),
(346,148,l),
(346,672,l),
(1003,672,l),
(1003,820,l),
(346,820,l),
(346,1308,l),
(1041,1308,l),
(1041,1456,l),
(174,1456,l)
);
},
{
closed = 1;
nodes = (
(906,-390,o),
(1000,-390,cs),
(1064,-390,o),
(1131,-380,o),
(1177,-361,c),
(1177,-250,l),
(1131,-268,o),
(1087,-281,o),
(1023,-281,cs),
(972,-281,o),
(923,-250,o),
(923,-199,cs),
(923,-183,o),
(928,-167,o),
(938,-151,cs),
(980,-86,o),
(1057,-42,o),
(1126,0,c),
(997,12,l),
(943,-14,o),
(889,-49,o),
(849,-89,cs),
(816,-122,o),
(782,-167,o),
(782,-225,cs),
(782,-252,o),
(788,-276,o),
(799,-296,cs),
(833,-357,o)
);
}
);
};
layerId = "9FF46155-5700-4CC7-A83F-22EBDC7BC473";
shapes = (
{
ref = E;
},
{
pos = (734,0);
ref = ogonekcomb;
}
);
width = 1187;
}
);
unicode = 280;
},
{
glyphname = F;
lastChange = "2023-07-28 09:07:07 +0000";
layers = (
{
background = {
shapes = (
{
closed = 1;
nodes = (
(174,0,l),
(346,0,l),
(346,667,l),
(983,667,l),
(983,815,l),
(346,815,l),
(346,1308,l),
(1017,1308,l),
(1017,1456,l),
(174,1456,l)
);
}
);
};
layerId = "9FF46155-5700-4CC7-A83F-22EBDC7BC473";
shapes = (
{
closed = 1;
nodes = (
(174,0,l),
(346,0,l),
(346,667,l),
(983,667,l),
(983,815,l),
(346,815,l),
(346,1308,l),
(1017,1308,l),
(1017,1456,l),
(174,1456,l)
);
}
);
width = 1103;
}
);
unicode = 70;
},
{
glyphname = G;
lastChange = "2023-07-28 09:07:07 +0000";
layers = (
{
anchors = (
{
name = bottom;
pos = (761,0);
},
{
name = top;
pos = (860,1456);
}
);
background = {
anchors = (
{
name = bottom;
pos = (761,0);
},
{
name = top;
pos = (860,1456);
}
);
shapes = (
{
closed = 1;
nodes = (
(112,1165,o),
(112,701,cs),
(112,239,o),
(380,-22,o),
(845,-22,cs),
(1044,-22,o),
(1203,13,o),
(1348,81,c),
(1348,757,l),
(815,757,l),
(815,608,l),
(1176,608,l),
(1176,178,l),
(1086,142,o),
(980,130,o),
(859,130,cs),
(488,130,o),
(290,344,o),
(290,714,cs),
(290,1069,o),
(495,1331,o),
(852,1331,cs),
(1024,1331,o),
(1159,1286,o),
(1251,1198,c),
(1323,1315,l),
(1207,1431,o),
(1067,1483,o),
(856,1483,cs),
(392,1483,o)
);
}
);
};
layerId = "9FF46155-5700-4CC7-A83F-22EBDC7BC473";
shapes = (
{
closed = 1;
nodes = (
(112,1165,o),
(112,701,cs),
(112,239,o),
(380,-22,o),
(845,-22,cs),
(1044,-22,o),
(1203,13,o),
(1348,81,c),
(1348,757,l),
(815,757,l),
(815,608,l),
(1176,608,l),
(1176,178,l),
(1086,142,o),
(980,130,o),
(859,130,cs),
(488,130,o),
(290,344,o),
(290,714,cs),
(290,1069,o),
(495,1331,o),
(852,1331,cs),
(1024,1331,o),
(1159,1286,o),
(1251,1198,c),
(1323,1315,l),
(1207,1431,o),
(1067,1483,o),
(856,1483,cs),
(392,1483,o)
);
}
);
width = 1512;
}
);
unicode = 71;
},
{
glyphname = Gcommaaccent;
lastChange = "2023-07-28 09:19:43 +0000";
layers = (
{
background = {
anchors = (
{
name = bottom;
pos = (761,0);
},
{
name = top;
pos = (860,1456);
}
);
shapes = (
{
closed = 1;
nodes = (
(112,1165,o),
(112,701,cs),
(112,239,o),
(380,-22,o),
(845,-22,cs),
(1044,-22,o),
(1203,13,o),
(1348,81,c),
(1348,757,l),
(815,757,l),
(815,608,l),
(1176,608,l),
(1176,178,l),
(1086,142,o),
(980,130,o),
(859,130,cs),
(488,130,o),
(290,344,o),
(290,714,cs),
(290,1069,o),
(495,1331,o),
(852,1331,cs),
(1024,1331,o),
(1159,1286,o),
(1251,1198,c),
(1323,1315,l),
(1207,1431,o),
(1067,1483,o),
(856,1483,cs),
(392,1483,o)
);
},
{
closed = 1;
nodes = (
(745,-625,l),
(908,-162,l),
(721,-162,l),
(614,-625,l)
);
}
);
};
layerId = "9FF46155-5700-4CC7-A83F-22EBDC7BC473";
shapes = (
{
ref = G;
},
{
pos = (536,0);
ref = commaaccentcomb;
}
);
width = 1512;
}
);
unicode = 290;
},
{
glyphname = H;
lastChange = "2023-07-28 09:07:07 +0000";
layers = (
{
anchors = (
{
name = center;
pos = (747,1164);
},
{
name = top;
pos = (747,1456);
}
);
background = {
anchors = (
{
name = center;
pos = (747,1164);
},
{
name = top;
pos = (747,1456);
}
);
shapes = (
{
closed = 1;
nodes = (
(1148,1456,l),
(1148,822,l),
(346,822,l),
(346,1456,l),
(174,1456,l),
(174,0,l),
(346,0,l),
(346,674,l),
(1148,674,l),
(1148,0,l),
(1319,0,l),
(1319,1456,l)
);
}
);
};
layerId = "9FF46155-5700-4CC7-A83F-22EBDC7BC473";
shapes = (
{
closed = 1;
nodes = (
(1148,1456,l),
(1148,822,l),
(346,822,l),
(346,1456,l),
(174,1456,l),
(174,0,l),
(346,0,l),
(346,674,l),
(1148,674,l),
(1148,0,l),
(1319,0,l),
(1319,1456,l)
);
}
);
width = 1493;
}
);
unicode = 72;
},
{
glyphname = I;
lastChange = "2023-07-28 09:07:07 +0000";
layers = (
{
anchors = (
{
name = ogonek;
pos = (309,10);
},
{
name = top;
pos = (272,1456);
}
);
background = {
anchors = (
{
name = ogonek;
pos = (309,10);
},
{
name = top;
pos = (272,1456);
}
);
shapes = (
{
closed = 1;
nodes = (
(186,0,l),
(358,0,l),
(358,1456,l),
(186,1456,l)
);
}
);
};
layerId = "9FF46155-5700-4CC7-A83F-22EBDC7BC473";
shapes = (
{
closed = 1;
nodes = (
(186,0,l),
(358,0,l),
(358,1456,l),
(186,1456,l)
);
}
);
width = 544;
}
);
unicode = 73;
},
{
glyphname = IJ;
lastChange = "2023-07-28 09:19:43 +0000";
layers = (
{
background = {
anchors = (
{
name = ogonek;
pos = (309,10);
},
{
name = top;
pos = (1154,1456);
}
);
shapes = (
{
closed = 1;
nodes = (
(186,0,l),
(358,0,l),
(358,1456,l),
(186,1456,l)
);
},
{
closed = 1;
nodes = (
(708,1314,l),
(1127,1314,l),
(1127,334,ls),
(1127,-35,o),
(934,-111,o),
(637,22,c),
(585,-114,l),
(940,-285,o),
(1299,-176,o),
(1299,336,cs),
(1299,1314,l),
(1571,1314,l),
(1571,1456,l),
(708,1456,l)
);
}
);
};
layerId = "9FF46155-5700-4CC7-A83F-22EBDC7BC473";
shapes = (
{
ref = I;
},
{
pos = (544,0);
ref = J;
}
);
width = 1585;
}
);
unicode = 306;
},
{
glyphname = Iacute;
lastChange = "2023-07-28 09:19:43 +0000";
layers = (
{
background = {
anchors = (
{
name = ogonek;
pos = (309,10);
},
{
name = top;
pos = (272,1456);
}
);
shapes = (
{
closed = 1;
nodes = (
(186,0,l),
(358,0,l),
(358,1456,l),
(186,1456,l)
);
},
{
closed = 1;
nodes = (
(321,1602,l),
(629,1922,l),
(417,1922,l),
(191,1602,l)
);
}
);
};
layerId = "9FF46155-5700-4CC7-A83F-22EBDC7BC473";
shapes = (
{
ref = I;
},
{
pos = (16,430);
ref = acutecomb;
}
);
width = 544;
}
);
unicode = 205;
},
{
glyphname = Icircumflex;
lastChange = "2023-07-28 09:19:43 +0000";
layers = (
{
background = {
anchors = (
{
name = ogonek;
pos = (309,10);
},
{
name = top;
pos = (272,1456);
}
);
shapes = (
{
closed = 1;
nodes = (
(186,0,l),
(358,0,l),
(358,1456,l),
(186,1456,l)
);
},
{
closed = 1;
nodes = (
(91,1600,l),
(269,1816,l),
(447,1600,l),
(579,1600,l),
(350,1924,l),
(193,1924,l),
(-35,1600,l)
);
}
);
};
layerId = "9FF46155-5700-4CC7-A83F-22EBDC7BC473";
shapes = (
{
ref = I;
},
{
pos = (-70,430);
ref = circumflexcomb;
}
);
width = 544;
}
);
unicode = 206;
},
{
glyphname = Idblgrave;
lastChange = "2023-07-28 09:19:43 +0000";
layers = (
{
background = {
anchors = (
{
name = ogonek;
pos = (309,10);
},
{
name = top;
pos = (272,1456);
}
);
shapes = (
{
closed = 1;
nodes = (
(186,0,l),
(358,0,l),
(358,1456,l),
(186,1456,l)
);
},
{
closed = 1;
nodes = (
(204,1604,l),
(-16,1917,l),
(-192,1917,l),
(84,1604,l)
);
},
{
closed = 1;
nodes = (
(471,1604,l),
(254,1917,l),
(78,1917,l),
(353,1604,l)
);
}
);
};
layerId = "9FF46155-5700-4CC7-A83F-22EBDC7BC473";
shapes = (
{
ref = I;
},
{
pos = (-354,430);
ref = dblgravecomb;
}
);
width = 544;
}
);
unicode = 520;
},
{
glyphname = Idieresis;
lastChange = "2023-07-28 09:19:43 +0000";
layers = (
{
background = {
anchors = (
{
name = ogonek;
pos = (309,10);
},
{
name = top;
pos = (272,1456);
}
);
shapes = (
{
closed = 1;
nodes = (
(186,0,l),
(358,0,l),
(358,1456,l),
(186,1456,l)
);
},
{
closed = 1;
nodes = (
(188,1613,l),
(188,1776,l),
(24,1776,l),
(24,1613,l)
);
},
{
closed = 1;
nodes = (
(520,1613,l),
(520,1776,l),
(356,1776,l),
(356,1613,l)
);
}
);
};
layerId = "9FF46155-5700-4CC7-A83F-22EBDC7BC473";
shapes = (
{
ref = I;
},
{
pos = (-97,430);
ref = dieresiscomb;
}
);
width = 544;
}
);
unicode = 207;
},
{
glyphname = Igrave;
lastChange = "2023-07-28 09:19:43 +0000";
layers = (
{
background = {
anchors = (
{
name = ogonek;
pos = (309,10);
},
{
name = top;
pos = (272,1456);
}
);
shapes = (
{
closed = 1;
nodes = (
(186,0,l),
(358,0,l),
(358,1456,l),
(186,1456,l)
);
},
{
closed = 1;
nodes = (
(366,1602,l),
(119,1922,l),
(-95,1922,l),
(237,1602,l)
);
}
);
};
layerId = "9FF46155-5700-4CC7-A83F-22EBDC7BC473";
shapes = (
{
ref = I;
},
{
pos = (-96,430);
ref = gravecomb;
}
);
width = 544;
}
);
unicode = 204;
},
{
glyphname = Iinvertedbreve;
lastChange = "2023-07-28 09:19:43 +0000";
layers = (
{
background = {
anchors = (
{
name = ogonek;
pos = (309,10);
},
{
name = top;
pos = (272,1456);
}
);
shapes = (
{
closed = 1;
nodes = (
(186,0,l),
(358,0,l),
(358,1456,l),
(186,1456,l)
);
},
{
closed = 1;
nodes = (
(-1,1808,o),
(-14,1648,c),
(73,1648,l),
(88,1736,o),
(161,1777,o),
(263,1777,cs),
(365,1777,o),
(444,1732,o),
(464,1648,c),
(550,1648,l),
(537,1802,o),
(436,1884,o),
(270,1884,cs),
(99,1884,o)
);
}
);
};
layerId = "9FF46155-5700-4CC7-A83F-22EBDC7BC473";
shapes = (
{
ref = I;
},
{
pos = (-46,430);
ref = breveinvertedcomb;
}
);
width = 544;
}
);
unicode = 522;
},
{
glyphname = Imacron;
lastChange = "2023-07-28 09:19:43 +0000";
layers = (
{
background = {
anchors = (
{
name = ogonek;
pos = (309,10);
},
{
name = top;
pos = (272,1456);
}
);
shapes = (
{
closed = 1;
nodes = (
(186,0,l),
(358,0,l),
(358,1456,l),
(186,1456,l)
);
},
{
closed = 1;
nodes = (
(558,1613,l),
(558,1747,l),
(-14,1747,l),
(-14,1613,l)
);
}
);
};
layerId = "9FF46155-5700-4CC7-A83F-22EBDC7BC473";
shapes = (
{
ref = I;
},
{
pos = (-93,430);
ref = macroncomb;
}
);
width = 544;
}
);
unicode = 298;
},
{
glyphname = Iogonek;
lastChange = "2023-07-28 09:19:43 +0000";
layers = (
{
background = {
anchors = (
{
name = ogonek;
pos = (309,10);
},
{
name = top;
pos = (272,1456);
}
);
shapes = (
{
closed = 1;
nodes = (
(186,0,l),
(358,0,l),
(358,1456,l),
(186,1456,l)
);
},
{
closed = 1;
nodes = (
(150,-390,o),
(244,-390,cs),
(308,-390,o),
(375,-380,o),
(421,-361,c),
(421,-250,l),
(375,-268,o),
(331,-281,o),
(267,-281,cs),
(216,-281,o),
(167,-250,o),
(167,-199,cs),
(167,-183,o),
(172,-167,o),
(182,-151,cs),
(224,-86,o),
(301,-42,o),
(370,0,c),
(241,12,l),
(187,-14,o),
(133,-49,o),
(93,-89,cs),
(60,-122,o),
(26,-167,o),
(26,-225,cs),
(26,-252,o),
(32,-276,o),
(43,-296,cs),
(77,-357,o)
);
}
);
};
layerId = "9FF46155-5700-4CC7-A83F-22EBDC7BC473";
shapes = (
{
ref = I;
},
{
pos = (-22,0);
ref = ogonekcomb;
}
);
width = 544;
}
);
unicode = 302;
},
{
glyphname = Itilde;
lastChange = "2023-07-28 09:19:43 +0000";
layers = (
{
background = {
anchors = (
{
name = ogonek;
pos = (309,10);
},
{
name = top;
pos = (272,1456);
}
);
shapes = (
{
closed = 1;
nodes = (
(186,0,l),
(358,0,l),
(358,1456,l),
(186,1456,l)
);
},
{
closed = 1;
nodes = (
(-40,1749,o),
(-50,1633,c),
(55,1633,l),
(62,1690,o),
(92,1718,o),
(146,1718,cs),
(241,1718,o),
(303,1650,o),
(399,1650,cs),
(523,1650,o),
(581,1752,o),
(594,1865,c),
(486,1865,l),
(479,1814,o),
(452,1775,o),
(399,1775,cs),
(380,1775,o),
(360,1779,o),
(340,1786,cs),
(282,1807,o),
(225,1843,o),
(149,1843,cs),
(25,1843,o)
);
}
);
};
layerId = "9FF46155-5700-4CC7-A83F-22EBDC7BC473";
shapes = (
{
ref = I;
},
{
pos = (-64,430);
ref = tildecomb;
}
);
width = 544;
}
);
unicode = 296;
},
{
glyphname = J;
lastChange = "2023-07-28 09:07:07 +0000";
layers = (
{
anchors = (
{
name = top;
pos = (610,1456);
}
);
background = {
anchors = (
{
name = top;
pos = (610,1456);
}
);
shapes = (
{
closed = 1;
nodes = (
(164,1314,l),
(583,1314,l),
(583,334,ls),
(583,-35,o),
(390,-111,o),
(93,22,c),
(41,-114,l),
(396,-285,o),
(755,-176,o),
(755,336,cs),
(755,1314,l),
(1027,1314,l),
(1027,1456,l),
(164,1456,l)
);
}
);
};
layerId = "9FF46155-5700-4CC7-A83F-22EBDC7BC473";
shapes = (
{
closed = 1;
nodes = (
(164,1314,l),
(583,1314,l),
(583,334,ls),
(583,-35,o),
(390,-111,o),
(93,22,c),
(41,-114,l),
(396,-285,o),
(755,-176,o),
(755,336,cs),
(755,1314,l),
(1027,1314,l),
(1027,1456,l),
(164,1456,l)
);
}
);
width = 1041;
}
);
unicode = 74;
},
{
glyphname = Jcircumflex;
lastChange = "2023-07-28 09:19:43 +0000";
layers = (
{
background = {
anchors = (
{
name = top;
pos = (610,1456);
}
);
shapes = (
{
closed = 1;
nodes = (
(164,1314,l),
(583,1314,l),
(583,334,ls),
(583,-35,o),
(390,-111,o),
(93,22,c),
(41,-114,l),
(396,-285,o),
(755,-176,o),
(755,336,cs),
(755,1314,l),
(1027,1314,l),
(1027,1456,l),
(164,1456,l)
);
},
{
closed = 1;
nodes = (
(429,1600,l),
(607,1816,l),
(785,1600,l),
(917,1600,l),
(688,1924,l),
(531,1924,l),
(303,1600,l)
);
}
);
};
layerId = "9FF46155-5700-4CC7-A83F-22EBDC7BC473";
shapes = (
{
ref = J;
},
{
pos = (268,430);
ref = circumflexcomb;
}
);
width = 1041;
}
);
unicode = 308;
},
{
glyphname = K;
lastChange = "2023-07-28 09:07:07 +0000";
layers = (
{
anchors = (
{
name = bottom;
pos = (615,0);
},
{
name = top;
pos = (615,1456);
}
);
background = {
anchors = (
{
name = bottom;
pos = (615,0);
},
{
name = top;
pos = (615,1456);
}
);
shapes = (
{
closed = 1;
nodes = (
(346,796,l),
(346,1456,l),
(174,1456,l),
(174,0,l),
(346,0,l),
(346,725,l),
(1024,0,l),
(1242,0,l),
(531,764,l),
(1202,1456,l),
(990,1456,l)
);
}
);
};
layerId = "9FF46155-5700-4CC7-A83F-22EBDC7BC473";
shapes = (
{
closed = 1;
nodes = (
(346,796,l),
(346,1456,l),
(174,1456,l),
(174,0,l),
(346,0,l),
(346,725,l),
(1024,0,l),
(1242,0,l),
(531,764,l),
(1202,1456,l),
(990,1456,l)
);
}
);
width = 1246;
}
);
unicode = 75;
},
{
glyphname = L;
lastChange = "2023-07-28 09:07:07 +0000";
layers = (
{
anchors = (
{
name = bottom;
pos = (591,0);
},
{
name = center;
pos = (268,817);
},
{
name = top;
pos = (532,1456);
}
);
background = {
anchors = (
{
name = bottom;
pos = (591,0);
},
{
name = center;
pos = (268,817);
},
{
name = top;
pos = (532,1456);
}
);
shapes = (
{
closed = 1;
nodes = (
(174,0,l),
(1045,0,l),
(1045,148,l),
(346,148,l),
(346,1456,l),
(174,1456,l)
);
}
);
};
layerId = "9FF46155-5700-4CC7-A83F-22EBDC7BC473";
shapes = (
{
closed = 1;
nodes = (
(174,0,l),
(1045,0,l),
(1045,148,l),
(346,148,l),
(346,1456,l),
(174,1456,l)
);
}
);
width = 1069;
}
);
unicode = 76;
},
{
glyphname = Ldot;
lastChange = "2023-07-28 09:19:43 +0000";
layers = (
{
background = {
anchors = (
{
name = bottom;
pos = (591,0);
},
{
name = center;
pos = (268,817);
},
{
name = top;
pos = (532,1456);
}
);
shapes = (
{
closed = 1;
nodes = (
(174,0,l),
(1045,0,l),
(1045,148,l),
(346,148,l),
(346,1456,l),
(174,1456,l)
);
},
{
closed = 1;
nodes = (
(857,1132,l),
(857,1342,l),
(640,1342,l),
(640,1132,l)
);
}
);
};
layerId = "9FF46155-5700-4CC7-A83F-22EBDC7BC473";
shapes = (
{
ref = L;
},
{
pos = (564,619);
ref = periodcentered;
}
);
width = 1069;
}
);
unicode = 319;
},
{
glyphname = Lslash;
lastChange = "2023-07-28 09:07:07 +0000";
layers = (
{
background = {
shapes = (
{
closed = 1;
nodes = (
(1073,0,l),
(1073,148,l),
(374,148,l),
(374,712,l),
(659,890,l),
(659,1027,l),
(374,849,l),
(374,1456,l),
(202,1456,l),
(202,742,l),
(15,626,l),
(15,489,l),
(202,605,l),
(202,0,l)
);
}
);
};
layerId = "9FF46155-5700-4CC7-A83F-22EBDC7BC473";
shapes = (
{
closed = 1;
nodes = (
(1073,0,l),
(1073,148,l),
(374,148,l),
(374,712,l),
(659,890,l),
(659,1027,l),
(374,849,l),
(374,1456,l),
(202,1456,l),
(202,742,l),
(15,626,l),
(15,489,l),
(202,605,l),
(202,0,l)
);
}
);
width = 1120;
}
);
unicode = 321;
},
{
glyphname = M;
lastChange = "2023-07-28 09:07:07 +0000";
layers = (
{
anchors = (
{
name = top;
pos = (990,1456);
}
);
background = {
anchors = (
{
name = top;
pos = (990,1456);
}
);
shapes = (
{
closed = 1;
nodes = (
(1058,529,l),
(973,322,l),
(887,526,l),
(412,1456,l),
(174,1456,l),
(174,0,l),
(344,0,l),
(344,1268,l),
(404,1108,l),
(908,110,l),
(1034,110,l),
(1534,1096,l),
(1602,1251,l),
(1602,0,l),
(1770,0,l),
(1770,1456,l),
(1536,1456,l)
);
}
);
};
layerId = "9FF46155-5700-4CC7-A83F-22EBDC7BC473";
shapes = (
{
closed = 1;
nodes = (
(1058,529,l),
(973,322,l),
(887,526,l),
(412,1456,l),
(174,1456,l),
(174,0,l),
(344,0,l),
(344,1268,l),
(404,1108,l),
(908,110,l),
(1034,110,l),
(1534,1096,l),
(1602,1251,l),
(1602,0,l),
(1770,0,l),
(1770,1456,l),
(1536,1456,l)
);
}
);
width = 1944;
}
);
unicode = 77;
},
{
glyphname = N;
lastChange = "2023-07-28 09:07:07 +0000";
layers = (
{
anchors = (
{
name = bottom;
pos = (795,0);
},
{
name = top;
pos = (795,1456);
}
);
background = {
anchors = (
{
name = bottom;
pos = (795,0);
},
{
name = top;
pos = (795,1456);
}
);
shapes = (
{
closed = 1;
nodes = (
(1225,215,l),
(1147,342,l),
(380,1456,l),
(174,1456,l),
(174,0,l),
(346,0,l),
(346,1237,l),
(418,1113,l),
(1188,0,l),
(1396,0,l),
(1396,1456,l),
(1225,1456,l)
);
}
);
};
layerId = "9FF46155-5700-4CC7-A83F-22EBDC7BC473";
shapes = (
{
closed = 1;
nodes = (
(1225,215,l),
(1147,342,l),
(380,1456,l),
(174,1456,l),
(174,0,l),
(346,0,l),
(346,1237,l),
(418,1113,l),
(1188,0,l),
(1396,0,l),
(1396,1456,l),
(1225,1456,l)
);
}
);
width = 1570;
}
);
unicode = 78;
},
{
glyphname = Nacute;
lastChange = "2023-07-28 09:19:43 +0000";
layers = (
{
background = {
anchors = (
{
name = bottom;
pos = (795,0);
},
{
name = top;
pos = (795,1456);
}
);
shapes = (
{
closed = 1;
nodes = (
(1225,215,l),
(1147,342,l),
(380,1456,l),
(174,1456,l),
(174,0,l),
(346,0,l),
(346,1237,l),
(418,1113,l),
(1188,0,l),
(1396,0,l),
(1396,1456,l),
(1225,1456,l)
);
},
{
closed = 1;
nodes = (
(844,1602,l),
(1152,1922,l),
(940,1922,l),
(714,1602,l)
);
}
);
};
layerId = "9FF46155-5700-4CC7-A83F-22EBDC7BC473";
shapes = (
{
ref = N;
},
{
pos = (539,430);
ref = acutecomb;
}
);
width = 1570;
}
);
unicode = 323;
},
{
glyphname = Ntilde;
lastChange = "2023-07-28 09:19:43 +0000";
layers = (
{
background = {
anchors = (
{
name = bottom;
pos = (795,0);
},
{
name = top;
pos = (795,1456);
}
);
shapes = (
{
closed = 1;
nodes = (
(1225,215,l),
(1147,342,l),
(380,1456,l),
(174,1456,l),
(174,0,l),
(346,0,l),
(346,1237,l),
(418,1113,l),
(1188,0,l),
(1396,0,l),
(1396,1456,l),
(1225,1456,l)
);
},
{
closed = 1;
nodes = (
(483,1749,o),
(473,1633,c),
(578,1633,l),
(585,1690,o),
(615,1718,o),
(669,1718,cs),
(764,1718,o),
(826,1650,o),
(922,1650,cs),
(1046,1650,o),
(1104,1752,o),
(1117,1865,c),
(1009,1865,l),
(1002,1814,o),
(975,1775,o),
(922,1775,cs),
(903,1775,o),
(883,1779,o),
(863,1786,cs),
(805,1807,o),
(748,1843,o),
(672,1843,cs),
(548,1843,o)
);
}
);
};
layerId = "9FF46155-5700-4CC7-A83F-22EBDC7BC473";
shapes = (
{
ref = N;
},
{
pos = (459,430);
ref = tildecomb;
}
);
width = 1570;
}
);
unicode = 209;
},
{
glyphname = O;
lastChange = "2023-07-28 09:13:00 +0000";
layers = (
{
anchors = (
{
name = top;
pos = (830,1483);
}
);
background = {
anchors = (
{
name = top;
pos = (827,0);
}
);
shapes = (
{
closed = 1;
nodes = (
(112,1122,o),
(112,728,cs),
(112,336,o),
(356,-25,o),
(830,-25,cs),
(1304,-25,o),
(1548,336,o),
(1548,728,cs),
(1548,1122,o),
(1304,1483,o),
(830,1483,cs),
(356,1483,o)
);
},
{
closed = 1;
nodes = (
(1364,1128,o),
(1364,729,cs),
(1364,330,o),
(1108,127,o),
(830,127,cs),
(552,127,o),
(296,330,o),
(296,729,cs),
(296,1128,o),
(552,1331,o),
(830,1331,cs),
(1108,1331,o)
);
}
);
};
layerId = "9FF46155-5700-4CC7-A83F-22EBDC7BC473";
shapes = (
{
closed = 1;
nodes = (
(112,1122,o),
(112,728,cs),
(112,336,o),
(356,-25,o),
(830,-25,cs),
(1304,-25,o),
(1548,336,o),
(1548,728,cs),
(1548,1122,o),
(1304,1483,o),
(830,1483,cs),
(356,1483,o)
);
},
{
closed = 1;
nodes = (
(1364,1128,o),
(1364,729,cs),
(1364,330,o),
(1108,127,o),
(830,127,cs),
(552,127,o),
(296,330,o),
(296,729,cs),
(296,1128,o),
(552,1331,o),
(830,1331,cs),
(1108,1331,o)
);
}
);
width = 1660;
}
);
unicode = 79;
},
{
glyphname = Oacute;
lastChange = "2023-07-28 09:19:43 +0000";
layers = (
{
background = {
anchors = (
{
name = top;
pos = (827,0);
}
);
shapes = (
{
closed = 1;
nodes = (
(112,1122,o),
(112,728,cs),
(112,336,o),
(356,-25,o),
(830,-25,cs),
(1304,-25,o),
(1548,336,o),
(1548,728,cs),
(1548,1122,o),
(1304,1483,o),
(830,1483,cs),
(356,1483,o)
);
},
{
closed = 1;
nodes = (
(1364,1128,o),
(1364,729,cs),
(1364,330,o),
(1108,127,o),
(830,127,cs),
(552,127,o),
(296,330,o),
(296,729,cs),
(296,1128,o),
(552,1331,o),
(830,1331,cs),
(1108,1331,o)
);
},
{
closed = 1;
nodes = (
(876,146,l),
(1184,466,l),
(972,466,l),
(746,146,l)
);
}
);
};
layerId = "9FF46155-5700-4CC7-A83F-22EBDC7BC473";
shapes = (
{
ref = O;
},
{
pos = (574,457);
ref = acutecomb;
}
);
width = 1660;
}
);
unicode = 211;
},
{
glyphname = Ocircumflex;
lastChange = "2023-07-28 09:19:43 +0000";
layers = (
{
background = {
anchors = (
{
name = top;
pos = (827,0);
}
);
shapes = (
{
closed = 1;
nodes = (
(112,1122,o),
(112,728,cs),
(112,336,o),
(356,-25,o),
(830,-25,cs),
(1304,-25,o),
(1548,336,o),
(1548,728,cs),
(1548,1122,o),
(1304,1483,o),
(830,1483,cs),
(356,1483,o)
);
},
{
closed = 1;
nodes = (
(1364,1128,o),
(1364,729,cs),
(1364,330,o),
(1108,127,o),
(830,127,cs),
(552,127,o),
(296,330,o),
(296,729,cs),
(296,1128,o),
(552,1331,o),
(830,1331,cs),
(1108,1331,o)
);
},
{
closed = 1;
nodes = (
(646,144,l),
(824,360,l),
(1002,144,l),
(1134,144,l),
(905,468,l),
(748,468,l),
(520,144,l)
);
}
);
};
layerId = "9FF46155-5700-4CC7-A83F-22EBDC7BC473";
shapes = (
{
ref = O;
},
{
pos = (488,457);
ref = circumflexcomb;
}
);
width = 1660;
}
);
unicode = 212;
},
{
glyphname = Odblgrave;
lastChange = "2023-07-28 09:19:43 +0000";
layers = (
{
background = {
anchors = (
{
name = top;
pos = (827,0);
}
);
shapes = (
{
closed = 1;
nodes = (
(112,1122,o),
(112,728,cs),
(112,336,o),
(356,-25,o),
(830,-25,cs),
(1304,-25,o),
(1548,336,o),
(1548,728,cs),
(1548,1122,o),
(1304,1483,o),
(830,1483,cs),
(356,1483,o)
);
},
{
closed = 1;
nodes = (
(1364,1128,o),
(1364,729,cs),
(1364,330,o),
(1108,127,o),
(830,127,cs),
(552,127,o),
(296,330,o),
(296,729,cs),
(296,1128,o),
(552,1331,o),
(830,1331,cs),
(1108,1331,o)
);
},
{
closed = 1;
nodes = (
(759,148,l),
(539,461,l),
(363,461,l),
(639,148,l)
);
},
{
closed = 1;
nodes = (
(1026,148,l),
(809,461,l),
(633,461,l),
(908,148,l)
);
}
);
};
layerId = "9FF46155-5700-4CC7-A83F-22EBDC7BC473";
shapes = (
{
ref = O;
},
{
pos = (204,457);
ref = dblgravecomb;
}
);
width = 1660;
}
);
unicode = 524;
},
{
glyphname = Odieresis;
lastChange = "2023-07-28 09:19:43 +0000";
layers = (
{
background = {
anchors = (
{
name = top;
pos = (827,0);
}
);
shapes = (
{
closed = 1;
nodes = (
(112,1122,o),
(112,728,cs),
(112,336,o),
(356,-25,o),
(830,-25,cs),
(1304,-25,o),
(1548,336,o),
(1548,728,cs),
(1548,1122,o),
(1304,1483,o),
(830,1483,cs),
(356,1483,o)
);
},
{
closed = 1;
nodes = (
(1364,1128,o),
(1364,729,cs),
(1364,330,o),
(1108,127,o),
(830,127,cs),
(552,127,o),
(296,330,o),
(296,729,cs),
(296,1128,o),
(552,1331,o),
(830,1331,cs),
(1108,1331,o)
);
},
{
closed = 1;
nodes = (
(743,157,l),
(743,320,l),
(579,320,l),
(579,157,l)
);
},
{
closed = 1;
nodes = (
(1075,157,l),
(1075,320,l),
(911,320,l),
(911,157,l)
);
}
);
};
layerId = "9FF46155-5700-4CC7-A83F-22EBDC7BC473";
shapes = (
{
ref = O;
},
{
pos = (461,457);
ref = dieresiscomb;
}
);
width = 1660;
}
);
unicode = 214;
},
{
glyphname = Ograve;
lastChange = "2023-07-28 09:19:43 +0000";
layers = (
{
background = {
anchors = (
{
name = top;
pos = (827,0);
}
);
shapes = (
{
closed = 1;
nodes = (
(112,1122,o),
(112,728,cs),
(112,336,o),
(356,-25,o),
(830,-25,cs),
(1304,-25,o),
(1548,336,o),
(1548,728,cs),
(1548,1122,o),
(1304,1483,o),
(830,1483,cs),
(356,1483,o)
);
},
{
closed = 1;
nodes = (
(1364,1128,o),
(1364,729,cs),
(1364,330,o),
(1108,127,o),
(830,127,cs),
(552,127,o),
(296,330,o),
(296,729,cs),
(296,1128,o),
(552,1331,o),
(830,1331,cs),
(1108,1331,o)
);
},
{
closed = 1;
nodes = (
(921,146,l),
(674,466,l),
(460,466,l),
(792,146,l)
);
}
);
};
layerId = "9FF46155-5700-4CC7-A83F-22EBDC7BC473";
shapes = (
{
ref = O;
},
{
pos = (462,457);
ref = gravecomb;
}
);
width = 1660;
}
);
unicode = 210;
},
{
glyphname = Oinvertedbreve;
lastChange = "2023-07-28 09:19:43 +0000";
layers = (
{
background = {
anchors = (
{
name = top;
pos = (827,0);
}
);
shapes = (
{
closed = 1;
nodes = (
(112,1122,o),
(112,728,cs),
(112,336,o),
(356,-25,o),
(830,-25,cs),
(1304,-25,o),
(1548,336,o),
(1548,728,cs),
(1548,1122,o),
(1304,1483,o),
(830,1483,cs),
(356,1483,o)
);
},
{
closed = 1;
nodes = (
(1364,1128,o),
(1364,729,cs),
(1364,330,o),
(1108,127,o),
(830,127,cs),
(552,127,o),
(296,330,o),
(296,729,cs),
(296,1128,o),
(552,1331,o),
(830,1331,cs),
(1108,1331,o)
);
},
{
closed = 1;
nodes = (
(554,352,o),
(541,192,c),
(628,192,l),
(643,280,o),
(716,321,o),
(818,321,cs),
(920,321,o),
(999,276,o),
(1019,192,c),
(1105,192,l),
(1092,346,o),
(991,428,o),
(825,428,cs),
(654,428,o)
);
}
);
};
layerId = "9FF46155-5700-4CC7-A83F-22EBDC7BC473";
shapes = (
{
ref = O;
},
{
pos = (512,457);
ref = breveinvertedcomb;
}
);
width = 1660;
}
);
unicode = 526;
},
{
glyphname = Oslash;
lastChange = "2023-07-28 09:07:23 +0000";
layers = (
{
anchors = (
{
name = top;
pos = (832,1456);
}
);
background = {
anchors = (
{
name = top;
pos = (832,1456);
}
);
shapes = (
{
closed = 1;
nodes = (
(1262,1581,l),
(1137,1625,l),
(400,-121,l),
(521,-165,l)
);
},
{
closed = 1;
nodes = (
(112,1122,o),
(112,728,cs),
(112,336,o),
(356,-25,o),
(830,-25,cs),
(1304,-25,o),
(1548,336,o),
(1548,728,cs),
(1548,1122,o),
(1304,1483,o),
(830,1483,cs),
(356,1483,o)
);
},
{
closed = 1;
nodes = (
(1364,1128,o),
(1364,729,cs),
(1364,330,o),
(1108,127,o),
(830,127,cs),
(552,127,o),
(296,330,o),
(296,729,cs),
(296,1128,o),
(552,1331,o),
(830,1331,cs),
(1108,1331,o)
);
}
);
};
layerId = "9FF46155-5700-4CC7-A83F-22EBDC7BC473";
shapes = (
{
closed = 1;
nodes = (
(1262,1581,l),
(1137,1625,l),
(400,-121,l),
(521,-165,l)
);
},
{
ref = O;
}
);
width = 1663;
}
);
unicode = 216;
},
{
glyphname = Otilde;
lastChange = "2023-07-28 09:19:43 +0000";
layers = (
{
background = {
anchors = (
{
name = top;
pos = (827,0);
}
);
shapes = (
{
closed = 1;
nodes = (
(112,1122,o),
(112,728,cs),
(112,336,o),
(356,-25,o),
(830,-25,cs),
(1304,-25,o),
(1548,336,o),
(1548,728,cs),
(1548,1122,o),
(1304,1483,o),
(830,1483,cs),
(356,1483,o)
);
},
{
closed = 1;
nodes = (
(1364,1128,o),
(1364,729,cs),
(1364,330,o),
(1108,127,o),
(830,127,cs),
(552,127,o),
(296,330,o),
(296,729,cs),
(296,1128,o),
(552,1331,o),
(830,1331,cs),
(1108,1331,o)
);
},
{
closed = 1;
nodes = (
(515,293,o),
(505,177,c),
(610,177,l),
(617,234,o),
(647,262,o),
(701,262,cs),
(796,262,o),
(858,194,o),
(954,194,cs),
(1078,194,o),
(1136,296,o),
(1149,409,c),
(1041,409,l),
(1034,358,o),
(1007,319,o),
(954,319,cs),
(935,319,o),
(915,323,o),
(895,330,cs),
(837,351,o),
(780,387,o),
(704,387,cs),
(580,387,o)
);
}
);
};
layerId = "9FF46155-5700-4CC7-A83F-22EBDC7BC473";
shapes = (
{
ref = O;
},
{
pos = (494,457);
ref = tildecomb;
}
);
width = 1660;
}
);
unicode = 213;
},
{
glyphname = OE;
lastChange = "2023-07-28 09:07:07 +0000";
layers = (
{
anchors = (
{
name = top;
pos = (1050,0);
}
);
background = {
anchors = (
{
name = top;
pos = (1050,0);
}
);
shapes = (
{
closed = 1;
nodes = (
(351.547,-23,o),
(829,-23,cs),
(970,-23,o),
(1070,32,o),
(1151,105,c),
(1151,0,l),
(1984,0,l),
(1984,148,l),
(1323,148,l),
(1323,672,l),
(1916,672,l),
(1916,820,l),
(1323,820,l),
(1323,1308,l),
(1954,1308,l),
(1954,1456,l),
(1151,1456,l),
(1151,1381,l),
(1069,1439,o),
(968,1483,o),
(837,1483,cs),
(400.947,1483,o),
(114,1208.31,o),
(114,729,cs),
(114,287.812,o)
);
},
{
closed = 1;
nodes = (
(973,125,o),
(827,125,cs),
(492.335,125,o),
(298,356.1,o),
(298,725,cs),
(298,1081.83,o),
(466.915,1335,o),
(830,1335,cs),
(972,1335,o),
(1072,1288,o),
(1151,1219,c),
(1151,265,l),
(1075,186,o)
);
}
);
};
layerId = "9FF46155-5700-4CC7-A83F-22EBDC7BC473";
shapes = (
{
closed = 1;
nodes = (
(351.547,-23,o),
(829,-23,cs),
(970,-23,o),
(1070,32,o),
(1151,105,c),
(1151,0,l),
(1984,0,l),
(1984,148,l),
(1323,148,l),
(1323,672,l),
(1916,672,l),
(1916,820,l),
(1323,820,l),
(1323,1308,l),
(1954,1308,l),
(1954,1456,l),
(1151,1456,l),
(1151,1381,l),
(1069,1439,o),
(968,1483,o),
(837,1483,cs),
(400.947,1483,o),
(114,1208.31,o),
(114,729,cs),
(114,287.812,o)
);
},
{
closed = 1;
nodes = (
(973,125,o),
(827,125,cs),
(492.335,125,o),
(298,356.1,o),
(298,725,cs),
(298,1081.83,o),
(466.915,1335,o),
(830,1335,cs),
(972,1335,o),
(1072,1288,o),
(1151,1219,c),
(1151,265,l),
(1075,186,o)
);
}
);
width = 2099;
}
);
unicode = 338;
},
{
glyphname = P;
lastChange = "2023-07-28 09:07:07 +0000";
layers = (
{
background = {
shapes = (
{
closed = 1;
nodes = (
(174,0,l),
(346,0,l),
(346,587,l),
(588,587,ls),
(973,587,o),
(1171,734,o),
(1171,1020,cs),
(1171,1316,o),
(995,1456,o),
(563,1456,cs),
(174,1456,l)
);
},
{
closed = 1;
nodes = (
(987,1215,o),
(987,1018,cs),
(987,832,o),
(858,736,o),
(607,736,cs),
(346,736,l),
(346,1308,l),
(587,1308,ls),
(878,1308,o)
);
}
);
};
layerId = "9FF46155-5700-4CC7-A83F-22EBDC7BC473";
shapes = (
{
closed = 1;
nodes = (
(174,0,l),
(346,0,l),
(346,587,l),
(588,587,ls),
(973,587,o),
(1171,734,o),
(1171,1020,cs),
(1171,1316,o),
(995,1456,o),
(563,1456,cs),
(174,1456,l)
);
},
{
closed = 1;
nodes = (
(987,1215,o),
(987,1018,cs),
(987,832,o),
(858,736,o),
(607,736,cs),
(346,736,l),
(346,1308,l),
(587,1308,ls),
(878,1308,o)
);
}
);
width = 1239;
}
);
unicode = 80;
},
{
glyphname = Thorn;
lastChange = "2023-07-28 09:07:07 +0000";
layers = (
{
background = {
shapes = (
{
closed = 1;
nodes = (
(375,0,l),
(375,443,l),
(597,443,ls),
(764,443,o),
(913,480,o),
(1018,546,cs),
(1121,611,o),
(1200,714,o),
(1200,876,cs),
(1200,1231,o),
(899,1312,o),
(544,1312,cs),
(375,1312,l),
(375,1456,l),
(203,1456,l),
(203,0,l)
);
},
{
closed = 1;
nodes = (
(375,1164,l),
(588,1164,ls),
(828,1164,o),
(1016,1114,o),
(1016,874,cs),
(1016,825,o),
(1007,782,o),
(988,747,cs),
(930,639,o),
(802,592,o),
(636,592,cs),
(375,592,l)
);
}
);
};
layerId = "9FF46155-5700-4CC7-A83F-22EBDC7BC473";
shapes = (
{
closed = 1;
nodes = (
(375,0,l),
(375,443,l),
(597,443,ls),
(764,443,o),
(913,480,o),
(1018,546,cs),
(1121,611,o),
(1200,714,o),
(1200,876,cs),
(1200,1231,o),
(899,1312,o),
(544,1312,cs),
(375,1312,l),
(375,1456,l),
(203,1456,l),
(203,0,l)
);
},
{
closed = 1;
nodes = (
(375,1164,l),
(588,1164,ls),
(828,1164,o),
(1016,1114,o),
(1016,874,cs),
(1016,825,o),
(1007,782,o),
(988,747,cs),
(930,639,o),
(802,592,o),
(636,592,cs),
(375,592,l)
);
}
);
width = 1274;
}
);
unicode = 222;
},
{
glyphname = Q;
lastChange = "2023-07-28 09:07:07 +0000";
layers = (
{
background = {
shapes = (
{
closed = 1;
nodes = (
(112,1183,o),
(112,736,cs),
(112,282,o),
(369,-22,o),
(822,-22,cs),
(860,-22,o),
(896,-19,o),
(927,-13,c),
(1003,-176,o),
(1112,-305,o),
(1229,-422,c),
(1341,-304,l),
(1243,-213,o),
(1155,-110,o),
(1092,20,c),
(1355,124,o),
(1536,374,o),
(1536,736,cs),
(1536,1183,o),
(1278,1483,o),
(830,1483,cs),
(385,1483,o)
);
},
{
closed = 1;
nodes = (
(1348,1087,o),
(1348,736,cs),
(1348,382,o),
(1178,123,o),
(823,123,cs),
(477,123,o),
(291,389,o),
(291,736,cs),
(291,1081,o),
(477,1334,o),
(823,1334,cs),
(1174,1334,o)
);
}
);
};
layerId = "9FF46155-5700-4CC7-A83F-22EBDC7BC473";
shapes = (
{
closed = 1;
nodes = (
(112,1183,o),
(112,736,cs),
(112,282,o),
(369,-22,o),
(822,-22,cs),
(860,-22,o),
(896,-19,o),
(927,-13,c),
(1003,-176,o),
(1112,-305,o),
(1229,-422,c),
(1341,-304,l),
(1243,-213,o),
(1155,-110,o),
(1092,20,c),
(1355,124,o),
(1536,374,o),
(1536,736,cs),
(1536,1183,o),
(1278,1483,o),
(830,1483,cs),
(385,1483,o)
);
},
{
closed = 1;
nodes = (
(1348,1087,o),
(1348,736,cs),
(1348,382,o),
(1178,123,o),
(823,123,cs),
(477,123,o),
(291,389,o),
(291,736,cs),
(291,1081,o),
(477,1334,o),
(823,1334,cs),
(1174,1334,o)
);
}
);
width = 1648;
}
);
unicode = 81;
},
{
glyphname = R;
lastChange = "2023-07-28 09:07:07 +0000";
layers = (
{
anchors = (
{
name = bottom;
pos = (659,0);
},
{
name = top;
pos = (659,1456);
}
);
background = {
anchors = (
{
name = bottom;
pos = (659,0);
},
{
name = top;
pos = (659,1456);
}
);
shapes = (
{
closed = 1;
nodes = (
(174,0,l),
(346,0,l),
(346,652,l),
(616,652,ls),
(812,652,o),
(862,564,o),
(915,419,cs),
(1068,0,l),
(1256,0,l),
(1093,410,ls),
(1039,546,o),
(994,670,o),
(858,715,c),
(1024,758,o),
(1168,867,o),
(1168,1074,cs),
(1168,1410,o),
(865,1456,o),
(530,1456,cs),
(174,1456,l)
);
},
{
closed = 1;
nodes = (
(986,1261,o),
(986,1058,cs),
(986,859,o),
(809,799,o),
(612,799,cs),
(346,799,l),
(346,1308,l),
(623,1308,ls),
(826,1308,o)
);
}
);
};
layerId = "9FF46155-5700-4CC7-A83F-22EBDC7BC473";
shapes = (
{
closed = 1;
nodes = (
(174,0,l),
(346,0,l),
(346,652,l),
(616,652,ls),
(812,652,o),
(862,564,o),
(915,419,cs),
(1068,0,l),
(1256,0,l),
(1093,410,ls),
(1039,546,o),
(994,670,o),
(858,715,c),
(1024,758,o),
(1168,867,o),
(1168,1074,cs),
(1168,1410,o),
(865,1456,o),
(530,1456,cs),
(174,1456,l)
);
},
{
closed = 1;
nodes = (
(986,1261,o),
(986,1058,cs),
(986,859,o),
(809,799,o),
(612,799,cs),
(346,799,l),
(346,1308,l),
(623,1308,ls),
(826,1308,o)
);
}
);
width = 1320;
}
);
unicode = 82;
},
{
glyphname = Racute;
lastChange = "2023-07-28 09:19:43 +0000";
layers = (
{
background = {
anchors = (
{
name = bottom;
pos = (659,0);
},
{
name = top;
pos = (659,1456);
}
);
shapes = (
{
closed = 1;
nodes = (
(174,0,l),
(346,0,l),
(346,652,l),
(616,652,ls),
(812,652,o),
(862,564,o),
(915,419,cs),
(1068,0,l),
(1256,0,l),
(1093,410,ls),
(1039,546,o),
(994,670,o),
(858,715,c),
(1024,758,o),
(1168,867,o),
(1168,1074,cs),
(1168,1410,o),
(865,1456,o),
(530,1456,cs),
(174,1456,l)
);
},
{
closed = 1;
nodes = (
(986,1261,o),
(986,1058,cs),
(986,859,o),
(809,799,o),
(612,799,cs),
(346,799,l),
(346,1308,l),
(623,1308,ls),
(826,1308,o)
);
},
{
closed = 1;
nodes = (
(708,1602,l),
(1016,1922,l),
(804,1922,l),
(578,1602,l)
);
}
);
};
layerId = "9FF46155-5700-4CC7-A83F-22EBDC7BC473";
shapes = (
{
ref = R;
},
{
pos = (403,430);
ref = acutecomb;
}
);
width = 1320;
}
);
unicode = (340,341);
},
{
glyphname = Rcaron;
lastChange = "2023-07-28 09:19:43 +0000";
layers = (
{
background = {
anchors = (
{
name = bottom;
pos = (659,0);
},
{
name = top;
pos = (659,1456);
}
);
shapes = (
{
closed = 1;
nodes = (
(174,0,l),
(346,0,l),
(346,652,l),
(616,652,ls),
(812,652,o),
(862,564,o),
(915,419,cs),
(1068,0,l),
(1256,0,l),
(1093,410,ls),
(1039,546,o),
(994,670,o),
(858,715,c),
(1024,758,o),
(1168,867,o),
(1168,1074,cs),
(1168,1410,o),
(865,1456,o),
(530,1456,cs),
(174,1456,l)
);
},
{
closed = 1;
nodes = (
(986,1261,o),
(986,1058,cs),
(986,859,o),
(809,799,o),
(612,799,cs),
(346,799,l),
(346,1308,l),
(623,1308,ls),
(826,1308,o)
);
},
{
closed = 1;
nodes = (
(737,1600,l),
(975,1923,l),
(821,1923,l),
(653,1708,l),
(489,1923,l),
(342,1923,l),
(581,1600,l)
);
}
);
};
layerId = "9FF46155-5700-4CC7-A83F-22EBDC7BC473";
shapes = (
{
ref = R;
},
{
pos = (313,430);
ref = caroncomb;
}
);
width = 1320;
}
);
unicode = 344;
},
{
glyphname = Rcommaaccent;
lastChange = "2023-07-28 09:19:43 +0000";
layers = (
{
background = {
anchors = (
{
name = bottom;
pos = (659,0);
},
{
name = top;
pos = (659,1456);
}
);
shapes = (
{
closed = 1;
nodes = (
(174,0,l),
(346,0,l),
(346,652,l),
(616,652,ls),
(812,652,o),
(862,564,o),
(915,419,cs),
(1068,0,l),
(1256,0,l),
(1093,410,ls),
(1039,546,o),
(994,670,o),
(858,715,c),
(1024,758,o),
(1168,867,o),
(1168,1074,cs),
(1168,1410,o),
(865,1456,o),
(530,1456,cs),
(174,1456,l)
);
},
{
closed = 1;
nodes = (
(986,1261,o),
(986,1058,cs),
(986,859,o),
(809,799,o),
(612,799,cs),
(346,799,l),
(346,1308,l),
(623,1308,ls),
(826,1308,o)
);
},
{
closed = 1;
nodes = (
(643,-625,l),
(806,-162,l),
(619,-162,l),
(512,-625,l)
);
}
);
};
layerId = "9FF46155-5700-4CC7-A83F-22EBDC7BC473";
shapes = (
{
ref = R;
},
{
pos = (434,0);
ref = commaaccentcomb;
}
);
width = 1320;
}
);
unicode = 342;
},
{
glyphname = Rdblgrave;
lastChange = "2023-07-28 09:19:43 +0000";
layers = (
{
background = {
anchors = (
{
name = bottom;
pos = (659,0);
},
{
name = top;
pos = (659,1456);
}
);
shapes = (
{
closed = 1;
nodes = (
(174,0,l),
(346,0,l),
(346,652,l),
(616,652,ls),
(812,652,o),
(862,564,o),
(915,419,cs),
(1068,0,l),
(1256,0,l),
(1093,410,ls),
(1039,546,o),
(994,670,o),
(858,715,c),
(1024,758,o),
(1168,867,o),
(1168,1074,cs),
(1168,1410,o),
(865,1456,o),
(530,1456,cs),
(174,1456,l)
);
},
{
closed = 1;
nodes = (
(986,1261,o),
(986,1058,cs),
(986,859,o),
(809,799,o),
(612,799,cs),
(346,799,l),
(346,1308,l),
(623,1308,ls),
(826,1308,o)
);
},
{
closed = 1;
nodes = (
(591,1604,l),
(371,1917,l),
(195,1917,l),
(471,1604,l)
);
},
{
closed = 1;
nodes = (
(858,1604,l),
(641,1917,l),
(465,1917,l),
(740,1604,l)
);
}
);
};
layerId = "9FF46155-5700-4CC7-A83F-22EBDC7BC473";
shapes = (
{
ref = R;
},
{
pos = (33,430);
ref = dblgravecomb;
}
);
width = 1320;
}
);
unicode = 528;
},
{
glyphname = Rinvertedbreve;
lastChange = "2023-07-28 09:19:43 +0000";
layers = (
{
background = {
anchors = (
{
name = bottom;
pos = (659,0);
},
{
name = top;
pos = (659,1456);
}
);
shapes = (
{
closed = 1;
nodes = (
(174,0,l),
(346,0,l),
(346,652,l),
(616,652,ls),
(812,652,o),
(862,564,o),
(915,419,cs),
(1068,0,l),
(1256,0,l),
(1093,410,ls),
(1039,546,o),
(994,670,o),
(858,715,c),
(1024,758,o),
(1168,867,o),
(1168,1074,cs),
(1168,1410,o),
(865,1456,o),
(530,1456,cs),
(174,1456,l)
);
},
{
closed = 1;
nodes = (
(986,1261,o),
(986,1058,cs),
(986,859,o),
(809,799,o),
(612,799,cs),
(346,799,l),
(346,1308,l),
(623,1308,ls),
(826,1308,o)
);
},
{
closed = 1;
nodes = (
(386,1808,o),
(373,1648,c),
(460,1648,l),
(475,1736,o),
(548,1777,o),
(650,1777,cs),
(752,1777,o),
(831,1732,o),
(851,1648,c),
(937,1648,l),
(924,1802,o),
(823,1884,o),
(657,1884,cs),
(486,1884,o)
);
}
);
};
layerId = "9FF46155-5700-4CC7-A83F-22EBDC7BC473";
shapes = (
{
ref = R;
},
{
pos = (341,430);
ref = breveinvertedcomb;
}
);
width = 1320;
}
);
unicode = 530;
},
{
glyphname = S;
lastChange = "2023-07-28 09:07:07 +0000";
layers = (
{
anchors = (
{
name = bottom;
pos = (622,0);
},
{
name = top;
pos = (640,1456);
}
);
background = {
anchors = (
{
name = bottom;
pos = (622,0);
},
{
name = top;
pos = (640,1456);
}
);
shapes = (
{
closed = 1;
nodes = (
(145,1339,o),
(141,1109,cs),
(137,902,o),
(224,769,o),
(566,671,cs),
(911,572,o),
(951,500,o),
(951,401,cs),
(951,230,o),
(855,123,o),
(649,123,cs),
(503,123,o),
(305,187,o),
(174,289,c),
(146,123,l),
(280,35,o),
(486,-22,o),
(664,-22,cs),
(990,-22,o),
(1135,166,o),
(1135,395,cs),
(1135,578,o),
(1052,709,o),
(676,817,cs),
(370,905,o),
(318,983,o),
(324,1120,cs),
(330,1262,o),
(441,1334,o),
(656,1334,cs),
(780,1334,o),
(921,1288,o),
(1033,1218,c),
(1085,1359,l),
(930,1456,o),
(773,1483,o),
(636,1483,cs),
(344,1483,o)
);
}
);
};
layerId = "9FF46155-5700-4CC7-A83F-22EBDC7BC473";
shapes = (
{
closed = 1;
nodes = (
(145,1339,o),
(141,1109,cs),
(137,902,o),
(224,769,o),
(566,671,cs),
(911,572,o),
(951,500,o),
(951,401,cs),
(951,230,o),
(855,123,o),
(649,123,cs),
(503,123,o),
(305,187,o),
(174,289,c),
(146,123,l),
(280,35,o),
(486,-22,o),
(664,-22,cs),
(990,-22,o),
(1135,166,o),
(1135,395,cs),
(1135,578,o),
(1052,709,o),
(676,817,cs),
(370,905,o),
(318,983,o),
(324,1120,cs),
(330,1262,o),
(441,1334,o),
(656,1334,cs),
(780,1334,o),
(921,1288,o),
(1033,1218,c),
(1085,1359,l),
(930,1456,o),
(773,1483,o),
(636,1483,cs),
(344,1483,o)
);
}
);
width = 1229;
}
);
unicode = 83;
},
{
glyphname = Sacute;
lastChange = "2023-07-28 09:19:43 +0000";
layers = (
{
background = {
anchors = (
{
name = bottom;
pos = (622,0);
},
{
name = top;
pos = (640,1456);
}
);
shapes = (
{
closed = 1;
nodes = (
(145,1339,o),
(141,1109,cs),
(137,902,o),
(224,769,o),
(566,671,cs),
(911,572,o),
(951,500,o),
(951,401,cs),
(951,230,o),
(855,123,o),
(649,123,cs),
(503,123,o),
(305,187,o),
(174,289,c),
(146,123,l),
(280,35,o),
(486,-22,o),
(664,-22,cs),
(990,-22,o),
(1135,166,o),
(1135,395,cs),
(1135,578,o),
(1052,709,o),
(676,817,cs),
(370,905,o),
(318,983,o),
(324,1120,cs),
(330,1262,o),
(441,1334,o),
(656,1334,cs),
(780,1334,o),
(921,1288,o),
(1033,1218,c),
(1085,1359,l),
(930,1456,o),
(773,1483,o),
(636,1483,cs),
(344,1483,o)
);
},
{
closed = 1;
nodes = (
(689,1602,l),
(997,1922,l),
(785,1922,l),
(559,1602,l)
);
}
);
};
layerId = "9FF46155-5700-4CC7-A83F-22EBDC7BC473";
shapes = (
{
ref = S;
},
{
pos = (384,430);
ref = acutecomb;
}
);
width = 1229;
}
);
unicode = 346;
},
{
glyphname = Scaron;
lastChange = "2023-07-28 09:19:43 +0000";
layers = (
{
background = {
anchors = (
{
name = bottom;
pos = (622,0);
},
{
name = top;
pos = (640,1456);
}
);
shapes = (
{
closed = 1;
nodes = (
(145,1339,o),
(141,1109,cs),
(137,902,o),
(224,769,o),
(566,671,cs),
(911,572,o),
(951,500,o),
(951,401,cs),
(951,230,o),
(855,123,o),
(649,123,cs),
(503,123,o),
(305,187,o),
(174,289,c),
(146,123,l),
(280,35,o),
(486,-22,o),
(664,-22,cs),
(990,-22,o),
(1135,166,o),
(1135,395,cs),
(1135,578,o),
(1052,709,o),
(676,817,cs),
(370,905,o),
(318,983,o),
(324,1120,cs),
(330,1262,o),
(441,1334,o),
(656,1334,cs),
(780,1334,o),
(921,1288,o),
(1033,1218,c),
(1085,1359,l),
(930,1456,o),
(773,1483,o),
(636,1483,cs),
(344,1483,o)
);
},
{
closed = 1;
nodes = (
(718,1600,l),
(956,1923,l),
(802,1923,l),
(634,1708,l),
(470,1923,l),
(323,1923,l),
(562,1600,l)
);
}
);
};
layerId = "9FF46155-5700-4CC7-A83F-22EBDC7BC473";
shapes = (
{
ref = S;
},
{
pos = (294,430);
ref = caroncomb;
}
);
width = 1229;
}
);
unicode = 352;
},
{
glyphname = Scommaaccent;
lastChange = "2023-07-28 09:19:43 +0000";
layers = (
{
background = {
anchors = (
{
name = bottom;
pos = (622,0);
},
{
name = top;
pos = (640,1456);
}
);
shapes = (
{
closed = 1;
nodes = (
(145,1339,o),
(141,1109,cs),
(137,902,o),
(224,769,o),
(566,671,cs),
(911,572,o),
(951,500,o),
(951,401,cs),
(951,230,o),
(855,123,o),
(649,123,cs),
(503,123,o),
(305,187,o),
(174,289,c),
(146,123,l),
(280,35,o),
(486,-22,o),
(664,-22,cs),
(990,-22,o),
(1135,166,o),
(1135,395,cs),
(1135,578,o),
(1052,709,o),
(676,817,cs),
(370,905,o),
(318,983,o),
(324,1120,cs),
(330,1262,o),
(441,1334,o),
(656,1334,cs),
(780,1334,o),
(921,1288,o),
(1033,1218,c),
(1085,1359,l),
(930,1456,o),
(773,1483,o),
(636,1483,cs),
(344,1483,o)
);
},
{
closed = 1;
nodes = (
(606,-625,l),
(769,-162,l),
(582,-162,l),
(475,-625,l)
);
}
);
};
layerId = "9FF46155-5700-4CC7-A83F-22EBDC7BC473";
shapes = (
{
ref = S;
},
{
pos = (397,0);
ref = commaaccentcomb;
}
);
width = 1229;
}
);
unicode = 536;
},
{
glyphname = T;
lastChange = "2023-07-28 09:07:07 +0000";
layers = (
{
anchors = (
{
name = bottom;
pos = (579,0);
},
{
name = center;
pos = (579,811);
},
{
name = top;
pos = (579,1456);
}
);
background = {
anchors = (
{
name = bottom;
pos = (579,0);
},
{
name = center;
pos = (579,811);
},
{
name = top;
pos = (579,1456);
}
);
shapes = (
{
closed = 1;
nodes = (
(24,1308,l),
(493,1308,l),
(493,0,l),
(665,0,l),
(665,1308,l),
(1137,1308,l),
(1137,1456,l),
(24,1456,l)
);
}
);
};
layerId = "9FF46155-5700-4CC7-A83F-22EBDC7BC473";
shapes = (
{
closed = 1;
nodes = (
(24,1308,l),
(493,1308,l),
(493,0,l),
(665,0,l),
(665,1308,l),
(1137,1308,l),
(1137,1456,l),
(24,1456,l)
);
}
);
width = 1161;
}
);
unicode = 84;
},
{
glyphname = Tcommaaccent;
lastChange = "2023-07-28 09:19:43 +0000";
layers = (
{
background = {
anchors = (
{
name = bottom;
pos = (579,0);
},
{
name = center;
pos = (579,811);
},
{
name = top;
pos = (579,1456);
}
);
shapes = (
{
closed = 1;
nodes = (
(24,1308,l),
(493,1308,l),
(493,0,l),
(665,0,l),
(665,1308,l),
(1137,1308,l),
(1137,1456,l),
(24,1456,l)
);
},
{
closed = 1;
nodes = (
(563,-625,l),
(726,-162,l),
(539,-162,l),
(432,-625,l)
);
}
);
};
layerId = "9FF46155-5700-4CC7-A83F-22EBDC7BC473";
shapes = (
{
ref = T;
},
{
pos = (354,0);
ref = commaaccentcomb;
}
);
width = 1161;
}
);
unicode = 538;
},
{
glyphname = U;
lastChange = "2023-07-28 09:07:07 +0000";
layers = (
{
anchors = (
{
name = ogonek;
pos = (821,10);
},
{
name = top;
pos = (739,1456);
}
);
background = {
anchors = (
{
name = ogonek;
pos = (821,10);
},
{
name = top;
pos = (739,1456);
}
);
shapes = (
{
closed = 1;
nodes = (
(1138,539,ls),
(1138,279,o),
(999,123,o),
(747,123,cs),
(475,123,o),
(336,260,o),
(336,546,cs),
(336,1456,l),
(164,1456,l),
(164,541,ls),
(164,157,o),
(365,-22,o),
(749,-22,cs),
(1111,-22,o),
(1307,191,o),
(1309,551,c),
(1309,1456,l),
(1138,1456,l)
);
}
);
};
layerId = "9FF46155-5700-4CC7-A83F-22EBDC7BC473";
shapes = (
{
closed = 1;
nodes = (
(1138,539,ls),
(1138,279,o),
(999,123,o),
(747,123,cs),
(475,123,o),
(336,260,o),
(336,546,cs),
(336,1456,l),
(164,1456,l),
(164,541,ls),
(164,157,o),
(365,-22,o),
(749,-22,cs),
(1111,-22,o),
(1307,191,o),
(1309,551,c),
(1309,1456,l),
(1138,1456,l)
);
}
);
width = 1473;
}
);
unicode = 85;
},
{
glyphname = Uacute;
lastChange = "2023-07-28 09:19:43 +0000";
layers = (
{
background = {
anchors = (
{
name = ogonek;
pos = (821,10);
},
{
name = top;
pos = (739,1456);
}
);
shapes = (
{
closed = 1;
nodes = (
(1138,539,ls),
(1138,279,o),
(999,123,o),
(747,123,cs),
(475,123,o),
(336,260,o),
(336,546,cs),
(336,1456,l),
(164,1456,l),
(164,541,ls),
(164,157,o),
(365,-22,o),
(749,-22,cs),
(1111,-22,o),
(1307,191,o),
(1309,551,c),
(1309,1456,l),
(1138,1456,l)
);
},
{
closed = 1;
nodes = (
(788,1602,l),
(1096,1922,l),
(884,1922,l),
(658,1602,l)
);
}
);
};
layerId = "9FF46155-5700-4CC7-A83F-22EBDC7BC473";
shapes = (
{
ref = U;
},
{
pos = (483,430);
ref = acutecomb;
}
);
width = 1473;
}
);
unicode = 218;
},
{
glyphname = Ucircumflex;
lastChange = "2023-07-28 09:19:43 +0000";
layers = (
{
background = {
anchors = (
{
name = ogonek;
pos = (821,10);
},
{
name = top;
pos = (739,1456);
}
);
shapes = (
{
closed = 1;
nodes = (
(1138,539,ls),
(1138,279,o),
(999,123,o),
(747,123,cs),
(475,123,o),
(336,260,o),
(336,546,cs),
(336,1456,l),
(164,1456,l),
(164,541,ls),
(164,157,o),
(365,-22,o),
(749,-22,cs),
(1111,-22,o),
(1307,191,o),
(1309,551,c),
(1309,1456,l),
(1138,1456,l)
);
},
{
closed = 1;
nodes = (
(558,1600,l),
(736,1816,l),
(914,1600,l),
(1046,1600,l),
(817,1924,l),
(660,1924,l),
(432,1600,l)
);
}
);
};
layerId = "9FF46155-5700-4CC7-A83F-22EBDC7BC473";
shapes = (
{
ref = U;
},
{
pos = (397,430);
ref = circumflexcomb;
}
);
width = 1473;
}
);
unicode = 219;
},
{
glyphname = Udblgrave;
lastChange = "2023-07-28 09:19:43 +0000";
layers = (
{
background = {
anchors = (
{
name = ogonek;
pos = (821,10);
},
{
name = top;
pos = (739,1456);
}
);
shapes = (
{
closed = 1;
nodes = (
(1138,539,ls),
(1138,279,o),
(999,123,o),
(747,123,cs),
(475,123,o),
(336,260,o),
(336,546,cs),
(336,1456,l),
(164,1456,l),
(164,541,ls),
(164,157,o),
(365,-22,o),
(749,-22,cs),
(1111,-22,o),
(1307,191,o),
(1309,551,c),
(1309,1456,l),
(1138,1456,l)
);
},
{
closed = 1;
nodes = (
(671,1604,l),
(451,1917,l),
(275,1917,l),
(551,1604,l)
);
},
{
closed = 1;
nodes = (
(938,1604,l),
(721,1917,l),
(545,1917,l),
(820,1604,l)
);
}
);
};
layerId = "9FF46155-5700-4CC7-A83F-22EBDC7BC473";
shapes = (
{
ref = U;
},
{
pos = (113,430);
ref = dblgravecomb;
}
);
width = 1473;
}
);
unicode = 532;
},
{
glyphname = Udieresis;
lastChange = "2023-07-28 09:19:43 +0000";
layers = (
{
background = {
anchors = (
{
name = ogonek;
pos = (821,10);
},
{
name = top;
pos = (739,1456);
}
);
shapes = (
{
closed = 1;
nodes = (
(1138,539,ls),
(1138,279,o),
(999,123,o),
(747,123,cs),
(475,123,o),
(336,260,o),
(336,546,cs),
(336,1456,l),
(164,1456,l),
(164,541,ls),
(164,157,o),
(365,-22,o),
(749,-22,cs),
(1111,-22,o),
(1307,191,o),
(1309,551,c),
(1309,1456,l),
(1138,1456,l)
);
},
{
closed = 1;
nodes = (
(655,1613,l),
(655,1776,l),
(491,1776,l),
(491,1613,l)
);
},
{
closed = 1;
nodes = (
(987,1613,l),
(987,1776,l),
(823,1776,l),
(823,1613,l)
);
}
);
};
layerId = "9FF46155-5700-4CC7-A83F-22EBDC7BC473";
shapes = (
{
ref = U;
},
{
pos = (370,430);
ref = dieresiscomb;
}
);
width = 1473;
}
);
unicode = 220;
},
{
glyphname = Ugrave;
lastChange = "2023-07-28 09:19:43 +0000";
layers = (
{
background = {
anchors = (
{
name = ogonek;
pos = (821,10);
},
{
name = top;
pos = (739,1456);
}
);
shapes = (
{
closed = 1;
nodes = (
(1138,539,ls),
(1138,279,o),
(999,123,o),
(747,123,cs),
(475,123,o),
(336,260,o),
(336,546,cs),
(336,1456,l),
(164,1456,l),
(164,541,ls),
(164,157,o),
(365,-22,o),
(749,-22,cs),
(1111,-22,o),
(1307,191,o),
(1309,551,c),
(1309,1456,l),
(1138,1456,l)
);
},
{
closed = 1;
nodes = (
(833,1602,l),
(586,1922,l),
(372,1922,l),
(704,1602,l)
);
}
);
};
layerId = "9FF46155-5700-4CC7-A83F-22EBDC7BC473";
shapes = (
{
ref = U;
},
{
pos = (371,430);
ref = gravecomb;
}
);
width = 1473;
}
);
unicode = 217;
},
{
glyphname = Uinvertedbreve;
lastChange = "2023-07-28 09:19:43 +0000";
layers = (
{
background = {
anchors = (
{
name = ogonek;
pos = (821,10);
},
{
name = top;
pos = (739,1456);
}
);
shapes = (
{
closed = 1;
nodes = (
(1138,539,ls),
(1138,279,o),
(999,123,o),
(747,123,cs),
(475,123,o),
(336,260,o),
(336,546,cs),
(336,1456,l),
(164,1456,l),
(164,541,ls),
(164,157,o),
(365,-22,o),
(749,-22,cs),
(1111,-22,o),
(1307,191,o),
(1309,551,c),
(1309,1456,l),
(1138,1456,l)
);
},
{
closed = 1;
nodes = (
(466,1808,o),
(453,1648,c),
(540,1648,l),
(555,1736,o),
(628,1777,o),
(730,1777,cs),
(832,1777,o),
(911,1732,o),
(931,1648,c),
(1017,1648,l),
(1004,1802,o),
(903,1884,o),
(737,1884,cs),
(566,1884,o)
);
}
);
};
layerId = "9FF46155-5700-4CC7-A83F-22EBDC7BC473";
shapes = (
{
ref = U;
},
{
pos = (421,430);
ref = breveinvertedcomb;
}
);
width = 1473;
}
);
unicode = 534;
},
{
glyphname = V;
lastChange = "2023-07-28 09:07:07 +0000";
layers = (
{
background = {
shapes = (
{
closed = 1;
nodes = (
(720,324,l),
(672,184,l),
(626,325,l),
(201,1456,l),
(13,1456,l),
(581,1,l),
(767,1,l),
(1324,1456,l),
(1141,1456,l)
);
}
);
};
layerId = "9FF46155-5700-4CC7-A83F-22EBDC7BC473";
shapes = (
{
closed = 1;
nodes = (
(720,324,l),
(672,184,l),
(626,325,l),
(201,1456,l),
(13,1456,l),
(581,1,l),
(767,1,l),
(1324,1456,l),
(1141,1456,l)
);
}
);
width = 1336;
}
);
unicode = 86;
},
{
glyphname = W;
lastChange = "2023-07-28 09:07:07 +0000";
layers = (
{
anchors = (
{
name = top;
pos = (1049,1456);
}
);
background = {
anchors = (
{
name = top;
pos = (1049,1456);
}
);
shapes = (
{
closed = 1;
nodes = (
(1592,349,l),
(1550,190,l),
(1504,345,l),
(1145,1456,l),
(964,1456,l),
(602,349,l),
(552,189,l),
(514,349,l),
(204,1456,l),
(18,1456,l),
(441,1,l),
(654,1,l),
(1049,1247,l),
(1442,0,l),
(1654,0,l),
(2077,1456,l),
(1897,1456,l)
);
}
);
};
layerId = "9FF46155-5700-4CC7-A83F-22EBDC7BC473";
shapes = (
{
closed = 1;
nodes = (
(1592,349,l),
(1550,190,l),
(1504,345,l),
(1145,1456,l),
(964,1456,l),
(602,349,l),
(552,189,l),
(514,349,l),
(204,1456,l),
(18,1456,l),
(441,1,l),
(654,1,l),
(1049,1247,l),
(1442,0,l),
(1654,0,l),
(2077,1456,l),
(1897,1456,l)
);
}
);
width = 2095;
}
);
unicode = 87;
},
{
glyphname = X;
lastChange = "2023-07-28 09:07:07 +0000";
layers = (
{
background = {
shapes = (
{
closed = 1;
nodes = (
(662,854,l),
(258,1456,l),
(50,1456,l),
(548,741,l),
(11,0,l),
(215,0,l),
(648,623,l),
(1084,0,l),
(1285,0,l),
(764,742,l),
(1275,1456,l),
(1079,1456,l)
);
}
);
};
layerId = "9FF46155-5700-4CC7-A83F-22EBDC7BC473";
shapes = (
{
closed = 1;
nodes = (
(662,854,l),
(258,1456,l),
(50,1456,l),
(548,741,l),
(11,0,l),
(215,0,l),
(648,623,l),
(1084,0,l),
(1285,0,l),
(764,742,l),
(1275,1456,l),
(1079,1456,l)
);
}
);
width = 1304;
}
);
unicode = 88;
},
{
glyphname = Y;
lastChange = "2023-07-28 09:07:07 +0000";
layers = (
{
anchors = (
{
name = top;
pos = (627,1456);
}
);
background = {
anchors = (
{
name = top;
pos = (627,1456);
}
);
shapes = (
{
closed = 1;
nodes = (
(626,727,l),
(195,1456,l),
(4,1456,l),
(537,582,l),
(537,0,l),
(709,0,l),
(709,585,l),
(1252,1456,l),
(1061,1456,l)
);
}
);
};
layerId = "9FF46155-5700-4CC7-A83F-22EBDC7BC473";
shapes = (
{
closed = 1;
nodes = (
(626,727,l),
(195,1456,l),
(4,1456,l),
(537,582,l),
(537,0,l),
(709,0,l),
(709,585,l),
(1252,1456,l),
(1061,1456,l)
);
}
);
width = 1256;
}
);
unicode = 89;
},
{
glyphname = Yacute;
lastChange = "2023-07-28 09:19:43 +0000";
layers = (
{
background = {
anchors = (
{
name = top;
pos = (627,1456);
}
);
shapes = (
{
closed = 1;
nodes = (
(626,727,l),
(195,1456,l),
(4,1456,l),
(537,582,l),
(537,0,l),
(709,0,l),
(709,585,l),
(1252,1456,l),
(1061,1456,l)
);
},
{
closed = 1;
nodes = (
(676,1602,l),
(984,1922,l),
(772,1922,l),
(546,1602,l)
);
}
);
};
layerId = "9FF46155-5700-4CC7-A83F-22EBDC7BC473";
shapes = (
{
ref = Y;
},
{
pos = (371,430);
ref = acutecomb;
}
);
width = 1256;
}
);
unicode = 221;
},
{
glyphname = Ydieresis;
lastChange = "2023-07-28 09:19:43 +0000";
layers = (
{
background = {
anchors = (
{
name = top;
pos = (627,1456);
}
);
shapes = (
{
closed = 1;
nodes = (
(626,727,l),
(195,1456,l),
(4,1456,l),
(537,582,l),
(537,0,l),
(709,0,l),
(709,585,l),
(1252,1456,l),
(1061,1456,l)
);
},
{
closed = 1;
nodes = (
(543,1613,l),
(543,1776,l),
(379,1776,l),
(379,1613,l)
);
},
{
closed = 1;
nodes = (
(875,1613,l),
(875,1776,l),
(711,1776,l),
(711,1613,l)
);
}
);
};
layerId = "9FF46155-5700-4CC7-A83F-22EBDC7BC473";
shapes = (
{
ref = Y;
},
{
pos = (258,430);
ref = dieresiscomb;
}
);
width = 1256;
}
);
unicode = 376;
},
{
glyphname = Z;
lastChange = "2023-07-28 09:07:07 +0000";
layers = (
{
anchors = (
{
name = top;
pos = (671,1456);
}
);
background = {
anchors = (
{
name = top;
pos = (671,1456);
}
);
shapes = (
{
closed = 1;
nodes = (
(124,1308,l),
(922,1308,l),
(92,92,l),
(92,0,l),
(1146,0,l),
(1146,148,l),
(320,148,l),
(1154,1368,l),
(1154,1456,l),
(124,1456,l)
);
}
);
};
layerId = "9FF46155-5700-4CC7-A83F-22EBDC7BC473";
shapes = (
{
closed = 1;
nodes = (
(124,1308,l),
(922,1308,l),
(92,92,l),
(92,0,l),
(1146,0,l),
(1146,148,l),
(320,148,l),
(1154,1368,l),
(1154,1456,l),
(124,1456,l)
);
}
);
width = 1222;
}
);
unicode = 90;
},
{
glyphname = Zacute;
lastChange = "2023-07-28 09:19:43 +0000";
layers = (
{
background = {
anchors = (
{
name = top;
pos = (671,1456);
}
);
shapes = (
{
closed = 1;
nodes = (
(124,1308,l),
(922,1308,l),
(92,92,l),
(92,0,l),
(1146,0,l),
(1146,148,l),
(320,148,l),
(1154,1368,l),
(1154,1456,l),
(124,1456,l)
);
},
{
closed = 1;
nodes = (
(720,1602,l),
(1028,1922,l),
(816,1922,l),
(590,1602,l)
);
}
);
};
layerId = "9FF46155-5700-4CC7-A83F-22EBDC7BC473";
shapes = (
{
ref = Z;
},
{
pos = (415,430);
ref = acutecomb;
}
);
width = 1222;
}
);
unicode = 377;
},
{
glyphname = Zcaron;
lastChange = "2023-07-28 09:19:43 +0000";
layers = (
{
background = {
anchors = (
{
name = top;
pos = (671,1456);
}
);
shapes = (
{
closed = 1;
nodes = (
(124,1308,l),
(922,1308,l),
(92,92,l),
(92,0,l),
(1146,0,l),
(1146,148,l),
(320,148,l),
(1154,1368,l),
(1154,1456,l),
(124,1456,l)
);
},
{
closed = 1;
nodes = (
(749,1600,l),
(987,1923,l),
(833,1923,l),
(665,1708,l),
(501,1923,l),
(354,1923,l),
(593,1600,l)
);
}
);
};
layerId = "9FF46155-5700-4CC7-A83F-22EBDC7BC473";
shapes = (
{
ref = Z;
},
{
pos = (325,430);
ref = caroncomb;
}
);
width = 1222;
}
);
unicode = 381;
},
{
glyphname = Zdotaccent;
lastChange = "2023-07-28 09:19:43 +0000";
layers = (
{
background = {
anchors = (
{
name = top;
pos = (671,1456);
}
);
shapes = (
{
closed = 1;
nodes = (
(124,1308,l),
(922,1308,l),
(92,92,l),
(92,0,l),
(1146,0,l),
(1146,148,l),
(320,148,l),
(1154,1368,l),
(1154,1456,l),
(124,1456,l)
);
},
{
closed = 1;
nodes = (
(751,1676,l),
(751,1839,l),
(591,1839,l),
(591,1676,l)
);
}
);
};
layerId = "9FF46155-5700-4CC7-A83F-22EBDC7BC473";
shapes = (
{
ref = Z;
},
{
pos = (407,430);
ref = dotaccentcomb;
}
);
width = 1222;
}
);
unicode = 379;
},
{
glyphname = J.alt;
lastChange = "2023-07-28 09:10:20 +0000";
layers = (
{
anchors = (
{
name = top;
pos = (470,0);
}
);
background = {
anchors = (
{
name = top;
pos = (470,0);
}
);
shapes = (
{
closed = 1;
nodes = (
(208,-23,o),
(321,-23,cs),
(388,-23,o),
(448,-12,o),
(502,11,cs),
(671,82,o),
(755,256,o),
(755,499,cs),
(755,1456,l),
(583,1456,l),
(583,488,ls),
(583,296,o),
(517,125,o),
(326,125,cs),
(237,125,o),
(176,156,o),
(122,197,c),
(71,81,l),
(131,21,o)
);
}
);
};
layerId = "9FF46155-5700-4CC7-A83F-22EBDC7BC473";
shapes = (
{
closed = 1;
nodes = (
(208,-23,o),
(321,-23,cs),
(388,-23,o),
(448,-12,o),
(502,11,cs),
(671,82,o),
(755,256,o),
(755,499,cs),
(755,1456,l),
(583,1456,l),
(583,488,ls),
(583,296,o),
(517,125,o),
(326,125,cs),
(237,125,o),
(176,156,o),
(122,197,c),
(71,81,l),
(131,21,o)
);
}
);
width = 939;
}
);
},
{
glyphname = a;
lastChange = "2023-07-28 09:07:07 +0000";
layers = (
{
anchors = (
{
name = ogonek;
pos = (1077,23);
},
{
name = top;
pos = (630,1026);
}
);
background = {
anchors = (
{
name = ogonek;
pos = (1077,23);
},
{
name = top;
pos = (630,1026);
}
);
shapes = (
{
closed = 1;
nodes = (
(90,804,o),
(90,438,cs),
(90,162,o),
(256,-22,o),
(506,-22,cs),
(664,-22,o),
(814,53,o),
(882,166,c),
(905,64,o),
(998,-4,o),
(1114,-4,c),
(1148,139,l),
(1073,139,o),
(1023,198,o),
(1023,286,cs),
(1023,962,l),
(943,1014,o),
(800,1048,o),
(666,1048,cs),
(320,1048,o)
);
},
{
closed = 1;
nodes = (
(817,893,o),
(859,872,c),
(859,453,ls),
(859,261,o),
(728,116,o),
(531,116,cs),
(368,116,o),
(260,249,o),
(260,448,cs),
(260,723,o),
(421,907,o),
(663,907,cs),
(739,907,o)
);
}
);
};
layerId = "9FF46155-5700-4CC7-A83F-22EBDC7BC473";
shapes = (
{
closed = 1;
nodes = (
(90,804,o),
(90,438,cs),
(90,162,o),
(256,-22,o),
(506,-22,cs),
(664,-22,o),
(814,53,o),
(882,166,c),
(905,64,o),
(998,-4,o),
(1114,-4,c),
(1148,139,l),
(1073,139,o),
(1023,198,o),
(1023,286,cs),
(1023,962,l),
(943,1014,o),
(800,1048,o),
(666,1048,cs),
(320,1048,o)
);
},
{
closed = 1;
nodes = (
(817,893,o),
(859,872,c),
(859,453,ls),
(859,261,o),
(728,116,o),
(531,116,cs),
(368,116,o),
(260,249,o),
(260,448,cs),
(260,723,o),
(421,907,o),
(663,907,cs),
(739,907,o)
);
}
);
width = 1205;
}
);
unicode = 97;
},
{
glyphname = aacute;
lastChange = "2023-07-28 09:19:43 +0000";
layers = (
{
background = {
anchors = (
{
name = ogonek;
pos = (1077,23);
},
{
name = top;
pos = (630,1026);
}
);
shapes = (
{
closed = 1;
nodes = (
(90,804,o),
(90,438,cs),
(90,162,o),
(256,-22,o),
(506,-22,cs),
(664,-22,o),
(814,53,o),
(882,166,c),
(905,64,o),
(998,-4,o),
(1114,-4,c),
(1148,139,l),
(1073,139,o),
(1023,198,o),
(1023,286,cs),
(1023,962,l),
(943,1014,o),
(800,1048,o),
(666,1048,cs),
(320,1048,o)
);
},
{
closed = 1;
nodes = (
(817,893,o),
(859,872,c),
(859,453,ls),
(859,261,o),
(728,116,o),
(531,116,cs),
(368,116,o),
(260,249,o),
(260,448,cs),
(260,723,o),
(421,907,o),
(663,907,cs),
(739,907,o)
);
},
{
closed = 1;
nodes = (
(679,1172,l),
(987,1492,l),
(775,1492,l),
(549,1172,l)
);
}
);
};
layerId = "9FF46155-5700-4CC7-A83F-22EBDC7BC473";
shapes = (
{
ref = a;
},
{
pos = (374,0);
ref = acutecomb;
}
);
width = 1205;
}
);
unicode = 225;
},
{
glyphname = abreve;
lastChange = "2023-07-28 09:19:43 +0000";
layers = (
{
background = {
anchors = (
{
name = ogonek;
pos = (1077,23);
},
{
name = top;
pos = (630,1026);
}
);
shapes = (
{
closed = 1;
nodes = (
(90,804,o),
(90,438,cs),
(90,162,o),
(256,-22,o),
(506,-22,cs),
(664,-22,o),
(814,53,o),
(882,166,c),
(905,64,o),
(998,-4,o),
(1114,-4,c),
(1148,139,l),
(1073,139,o),
(1023,198,o),
(1023,286,cs),
(1023,962,l),
(943,1014,o),
(800,1048,o),
(666,1048,cs),
(320,1048,o)
);
},
{
closed = 1;
nodes = (
(817,893,o),
(859,872,c),
(859,453,ls),
(859,261,o),
(728,116,o),
(531,116,cs),
(368,116,o),
(260,249,o),
(260,448,cs),
(260,723,o),
(421,907,o),
(663,907,cs),
(739,907,o)
);
},
{
closed = 1;
nodes = (
(461,1218,o),
(632,1218,cs),
(798,1218,o),
(899,1300,o),
(912,1454,c),
(826,1454,l),
(806,1370,o),
(727,1325,o),
(625,1325,cs),
(523,1325,o),
(450,1366,o),
(435,1454,c),
(348,1454,l),
(361,1294,o)
);
}
);
};
layerId = "9FF46155-5700-4CC7-A83F-22EBDC7BC473";
shapes = (
{
ref = a;
},
{
pos = (316,0);
ref = brevecomb;
}
);
width = 1205;
}
);
unicode = 259;
},
{
glyphname = acircumflex;
lastChange = "2023-07-28 09:19:43 +0000";
layers = (
{
background = {
anchors = (
{
name = ogonek;
pos = (1077,23);
},
{
name = top;
pos = (630,1026);
}
);
shapes = (
{
closed = 1;
nodes = (
(90,804,o),
(90,438,cs),
(90,162,o),
(256,-22,o),
(506,-22,cs),
(664,-22,o),
(814,53,o),
(882,166,c),
(905,64,o),
(998,-4,o),
(1114,-4,c),
(1148,139,l),
(1073,139,o),
(1023,198,o),
(1023,286,cs),
(1023,962,l),
(943,1014,o),
(800,1048,o),
(666,1048,cs),
(320,1048,o)
);
},
{
closed = 1;
nodes = (
(817,893,o),
(859,872,c),
(859,453,ls),
(859,261,o),
(728,116,o),
(531,116,cs),
(368,116,o),
(260,249,o),
(260,448,cs),
(260,723,o),
(421,907,o),
(663,907,cs),
(739,907,o)
);
},
{
closed = 1;
nodes = (
(449,1170,l),
(627,1386,l),
(805,1170,l),
(937,1170,l),
(708,1494,l),
(551,1494,l),
(323,1170,l)
);
}
);
};
layerId = "9FF46155-5700-4CC7-A83F-22EBDC7BC473";
shapes = (
{
ref = a;
},
{
pos = (288,0);
ref = circumflexcomb;
}
);
width = 1205;
}
);
unicode = 226;
},
{
glyphname = adblgrave;
lastChange = "2023-07-28 09:19:43 +0000";
layers = (
{
background = {
anchors = (
{
name = ogonek;
pos = (1077,23);
},
{
name = top;
pos = (630,1026);
}
);
shapes = (
{
closed = 1;
nodes = (
(90,804,o),
(90,438,cs),
(90,162,o),
(256,-22,o),
(506,-22,cs),
(664,-22,o),
(814,53,o),
(882,166,c),
(905,64,o),
(998,-4,o),
(1114,-4,c),
(1148,139,l),
(1073,139,o),
(1023,198,o),
(1023,286,cs),
(1023,962,l),
(943,1014,o),
(800,1048,o),
(666,1048,cs),
(320,1048,o)
);
},
{
closed = 1;
nodes = (
(817,893,o),
(859,872,c),
(859,453,ls),
(859,261,o),
(728,116,o),
(531,116,cs),
(368,116,o),
(260,249,o),
(260,448,cs),
(260,723,o),
(421,907,o),
(663,907,cs),
(739,907,o)
);
},
{
closed = 1;
nodes = (
(562,1174,l),
(342,1487,l),
(166,1487,l),
(442,1174,l)
);
},
{
closed = 1;
nodes = (
(829,1174,l),
(612,1487,l),
(436,1487,l),
(711,1174,l)
);
}
);
};
layerId = "9FF46155-5700-4CC7-A83F-22EBDC7BC473";
shapes = (
{
ref = a;
},
{
pos = (4,0);
ref = dblgravecomb;
}
);
width = 1205;
}
);
unicode = 513;
},
{
glyphname = adieresis;
lastChange = "2023-07-28 09:19:43 +0000";
layers = (
{
background = {
anchors = (
{
name = ogonek;
pos = (1077,23);
},
{
name = top;
pos = (630,1026);
}
);
shapes = (
{
closed = 1;
nodes = (
(90,804,o),
(90,438,cs),
(90,162,o),
(256,-22,o),
(506,-22,cs),
(664,-22,o),
(814,53,o),
(882,166,c),
(905,64,o),
(998,-4,o),
(1114,-4,c),
(1148,139,l),
(1073,139,o),
(1023,198,o),
(1023,286,cs),
(1023,962,l),
(943,1014,o),
(800,1048,o),
(666,1048,cs),
(320,1048,o)
);
},
{
closed = 1;
nodes = (
(817,893,o),
(859,872,c),
(859,453,ls),
(859,261,o),
(728,116,o),
(531,116,cs),
(368,116,o),
(260,249,o),
(260,448,cs),
(260,723,o),
(421,907,o),
(663,907,cs),
(739,907,o)
);
},
{
closed = 1;
nodes = (
(546,1183,l),
(546,1346,l),
(382,1346,l),
(382,1183,l)
);
},
{
closed = 1;
nodes = (
(878,1183,l),
(878,1346,l),
(714,1346,l),
(714,1183,l)
);
}
);
};
layerId = "9FF46155-5700-4CC7-A83F-22EBDC7BC473";
shapes = (
{
ref = a;
},
{
pos = (261,0);
ref = dieresiscomb;
}
);
width = 1205;
}
);
unicode = 228;
},
{
glyphname = agrave;
lastChange = "2023-07-28 09:19:43 +0000";
layers = (
{
background = {
anchors = (
{
name = ogonek;
pos = (1077,23);
},
{
name = top;
pos = (630,1026);
}
);
shapes = (
{
closed = 1;
nodes = (
(90,804,o),
(90,438,cs),
(90,162,o),
(256,-22,o),
(506,-22,cs),
(664,-22,o),
(814,53,o),
(882,166,c),
(905,64,o),
(998,-4,o),
(1114,-4,c),
(1148,139,l),
(1073,139,o),
(1023,198,o),
(1023,286,cs),
(1023,962,l),
(943,1014,o),
(800,1048,o),
(666,1048,cs),
(320,1048,o)
);
},
{
closed = 1;
nodes = (
(817,893,o),
(859,872,c),
(859,453,ls),
(859,261,o),
(728,116,o),
(531,116,cs),
(368,116,o),
(260,249,o),
(260,448,cs),
(260,723,o),
(421,907,o),
(663,907,cs),
(739,907,o)
);
},
{
closed = 1;
nodes = (
(724,1172,l),
(477,1492,l),
(263,1492,l),
(595,1172,l)
);
}
);
};
layerId = "9FF46155-5700-4CC7-A83F-22EBDC7BC473";
shapes = (
{
ref = a;
},
{
pos = (262,0);
ref = gravecomb;
}
);
width = 1205;
}
);
unicode = 224;
},
{
glyphname = ainvertedbreve;
lastChange = "2023-07-28 09:19:43 +0000";
layers = (
{
background = {
anchors = (
{
name = ogonek;
pos = (1077,23);
},
{
name = top;
pos = (630,1026);
}
);
shapes = (
{
closed = 1;
nodes = (
(90,804,o),
(90,438,cs),
(90,162,o),
(256,-22,o),
(506,-22,cs),
(664,-22,o),
(814,53,o),
(882,166,c),
(905,64,o),
(998,-4,o),
(1114,-4,c),
(1148,139,l),
(1073,139,o),
(1023,198,o),
(1023,286,cs),
(1023,962,l),
(943,1014,o),
(800,1048,o),
(666,1048,cs),
(320,1048,o)
);
},
{
closed = 1;
nodes = (
(817,893,o),
(859,872,c),
(859,453,ls),
(859,261,o),
(728,116,o),
(531,116,cs),
(368,116,o),
(260,249,o),
(260,448,cs),
(260,723,o),
(421,907,o),
(663,907,cs),
(739,907,o)
);
},
{
closed = 1;
nodes = (
(357,1378,o),
(344,1218,c),
(431,1218,l),
(446,1306,o),
(519,1347,o),
(621,1347,cs),
(723,1347,o),
(802,1302,o),
(822,1218,c),
(908,1218,l),
(895,1372,o),
(794,1454,o),
(628,1454,cs),
(457,1454,o)
);
}
);
};
layerId = "9FF46155-5700-4CC7-A83F-22EBDC7BC473";
shapes = (
{
ref = a;
},
{
pos = (312,0);
ref = breveinvertedcomb;
}
);
width = 1205;
}
);
unicode = 515;
},
{
glyphname = amacron;
lastChange = "2023-07-28 09:19:43 +0000";
layers = (
{
background = {
anchors = (
{
name = ogonek;
pos = (1077,23);
},
{
name = top;
pos = (630,1026);
}
);
shapes = (
{
closed = 1;
nodes = (
(90,804,o),
(90,438,cs),
(90,162,o),
(256,-22,o),
(506,-22,cs),
(664,-22,o),
(814,53,o),
(882,166,c),
(905,64,o),
(998,-4,o),
(1114,-4,c),
(1148,139,l),
(1073,139,o),
(1023,198,o),
(1023,286,cs),
(1023,962,l),
(943,1014,o),
(800,1048,o),
(666,1048,cs),
(320,1048,o)
);
},
{
closed = 1;
nodes = (
(817,893,o),
(859,872,c),
(859,453,ls),
(859,261,o),
(728,116,o),
(531,116,cs),
(368,116,o),
(260,249,o),
(260,448,cs),
(260,723,o),
(421,907,o),
(663,907,cs),
(739,907,o)
);
},
{
closed = 1;
nodes = (
(916,1183,l),
(916,1317,l),
(344,1317,l),
(344,1183,l)
);
}
);
};
layerId = "9FF46155-5700-4CC7-A83F-22EBDC7BC473";
shapes = (
{
ref = a;
},
{
pos = (265,0);
ref = macroncomb;
}
);
width = 1205;
}
);
unicode = 257;
},
{
glyphname = aogonek;
lastChange = "2023-07-28 09:19:43 +0000";
layers = (
{
background = {
anchors = (
{
name = ogonek;
pos = (1077,23);
},
{
name = top;
pos = (630,1026);
}
);
shapes = (
{
closed = 1;
nodes = (
(90,804,o),
(90,438,cs),
(90,162,o),
(256,-22,o),
(506,-22,cs),
(664,-22,o),
(814,53,o),
(882,166,c),
(905,64,o),
(998,-4,o),
(1114,-4,c),
(1148,139,l),
(1073,139,o),
(1023,198,o),
(1023,286,cs),
(1023,962,l),
(943,1014,o),
(800,1048,o),
(666,1048,cs),
(320,1048,o)
);
},
{
closed = 1;
nodes = (
(817,893,o),
(859,872,c),
(859,453,ls),
(859,261,o),
(728,116,o),
(531,116,cs),
(368,116,o),
(260,249,o),
(260,448,cs),
(260,723,o),
(421,907,o),
(663,907,cs),
(739,907,o)
);
},
{
closed = 1;
nodes = (
(918,-377,o),
(1012,-377,cs),
(1076,-377,o),
(1143,-367,o),
(1189,-348,c),
(1189,-237,l),
(1143,-255,o),
(1099,-268,o),
(1035,-268,cs),
(984,-268,o),
(935,-237,o),
(935,-186,cs),
(935,-170,o),
(940,-154,o),
(950,-138,cs),
(992,-73,o),
(1069,-29,o),
(1138,13,c),
(1009,25,l),
(955,-1,o),
(901,-36,o),
(861,-76,cs),
(828,-109,o),
(794,-154,o),
(794,-212,cs),
(794,-239,o),
(800,-263,o),
(811,-283,cs),
(845,-344,o)
);
}
);
};
layerId = "9FF46155-5700-4CC7-A83F-22EBDC7BC473";
shapes = (
{
ref = a;
},
{
pos = (746,13);
ref = ogonekcomb;
}
);
width = 1205;
}
);
unicode = 261;
},
{
glyphname = aring;
lastChange = "2023-07-28 09:19:43 +0000";
layers = (
{
background = {
anchors = (
{
name = ogonek;
pos = (1077,23);
},
{
name = top;
pos = (630,1026);
}
);
shapes = (
{
closed = 1;
nodes = (
(90,804,o),
(90,438,cs),
(90,162,o),
(256,-22,o),
(506,-22,cs),
(664,-22,o),
(814,53,o),
(882,166,c),
(905,64,o),
(998,-4,o),
(1114,-4,c),
(1148,139,l),
(1073,139,o),
(1023,198,o),
(1023,286,cs),
(1023,962,l),
(943,1014,o),
(800,1048,o),
(666,1048,cs),
(320,1048,o)
);
},
{
closed = 1;
nodes = (
(817,893,o),
(859,872,c),
(859,453,ls),
(859,261,o),
(728,116,o),
(531,116,cs),
(368,116,o),
(260,249,o),
(260,448,cs),
(260,723,o),
(421,907,o),
(663,907,cs),
(739,907,o)
);
},
{
closed = 1;
nodes = (
(536,1149,o),
(631,1149,cs),
(659,1149,o),
(686,1154,o),
(711,1164,cs),
(778,1190,o),
(840,1249,o),
(840,1340,cs),
(840,1366,o),
(835,1391,o),
(824,1414,cs),
(794,1480,o),
(725,1530,o),
(630,1530,cs),
(601,1530,o),
(573,1526,o),
(548,1516,cs),
(480,1490,o),
(420,1431,o),
(420,1339,cs),
(420,1312,o),
(425,1287,o),
(436,1264,cs),
(467,1199,o)
);
},
{
closed = 1;
nodes = (
(689,1235,o),
(629,1235,cs),
(564,1235,o),
(519,1276,o),
(519,1340,cs),
(519,1400,o),
(569,1445,o),
(629,1445,cs),
(691,1445,o),
(740,1402,o),
(740,1340,cs),
(740,1280,o)
);
}
);
};
layerId = "9FF46155-5700-4CC7-A83F-22EBDC7BC473";
shapes = (
{
ref = a;
},
{
pos = (330,0);
ref = ringcomb;
}
);
width = 1205;
}
);
unicode = 229;
},
{
glyphname = atilde;
lastChange = "2023-07-28 09:19:43 +0000";
layers = (
{
background = {
anchors = (
{
name = ogonek;
pos = (1077,23);
},
{
name = top;
pos = (630,1026);
}
);
shapes = (
{
closed = 1;
nodes = (
(90,804,o),
(90,438,cs),
(90,162,o),
(256,-22,o),
(506,-22,cs),
(664,-22,o),
(814,53,o),
(882,166,c),
(905,64,o),
(998,-4,o),
(1114,-4,c),
(1148,139,l),
(1073,139,o),
(1023,198,o),
(1023,286,cs),
(1023,962,l),
(943,1014,o),
(800,1048,o),
(666,1048,cs),
(320,1048,o)
);
},
{
closed = 1;
nodes = (
(817,893,o),
(859,872,c),
(859,453,ls),
(859,261,o),
(728,116,o),
(531,116,cs),
(368,116,o),
(260,249,o),
(260,448,cs),
(260,723,o),
(421,907,o),
(663,907,cs),
(739,907,o)
);
},
{
closed = 1;
nodes = (
(318,1319,o),
(308,1203,c),
(413,1203,l),
(420,1260,o),
(450,1288,o),
(504,1288,cs),
(599,1288,o),
(661,1220,o),
(757,1220,cs),
(881,1220,o),
(939,1322,o),
(952,1435,c),
(844,1435,l),
(837,1384,o),
(810,1345,o),
(757,1345,cs),
(738,1345,o),
(718,1349,o),
(698,1356,cs),
(640,1377,o),
(583,1413,o),
(507,1413,cs),
(383,1413,o)
);
}
);
};
layerId = "9FF46155-5700-4CC7-A83F-22EBDC7BC473";
shapes = (
{
ref = a;
},
{
pos = (294,0);
ref = tildecomb;
}
);
width = 1205;
}
);
unicode = 227;
},
{
glyphname = ae;
lastChange = "2023-07-28 09:07:07 +0000";
layers = (
{
anchors = (
{
name = top;
pos = (904,0);
}
);
background = {
anchors = (
{
name = top;
pos = (904,0);
}
);
shapes = (
{
closed = 1;
nodes = (
(222,-22,o),
(441,-22,cs),
(661,-22,o),
(785,95,o),
(853,230,c),
(898,80,o),
(1044,-22,o),
(1232,-22,cs),
(1446,-22,o),
(1582,65,o),
(1664,206,c),
(1577,292,l),
(1511,193,o),
(1397,115,o),
(1242,115,cs),
(1029,115,o),
(941,253,o),
(941,463,cs),
(941,468,o),
(942,485,o),
(942,489,c),
(1697,489,l),
(1697,524,ls),
(1697,845,o),
(1543,1048,o),
(1251,1048,cs),
(1084,1048,o),
(933,941,o),
(877,806,c),
(835,956,o),
(716.028,1048,o),
(550,1048,cs),
(353,1048,o),
(217,985,o),
(148,856,c),
(238,763,l),
(298,864,o),
(391,907,o),
(540,907,cs),
(706,907,o),
(771,793,o),
(771,628,cs),
(771,605,l),
(443,605,o),
(81,611,o),
(81,282,cs),
(81,92,o)
);
},
{
closed = 1;
nodes = (
(684,115,o),
(464,115,cs),
(337,115,o),
(250,163,o),
(250,290,cs),
(250,461.258,o),
(441.619,480.741,o),
(627,486,c),
(773,489,l),
(773,272,o)
);
},
{
closed = 1;
nodes = (
(954.616,760.876,o),
(1054.51,907,o),
(1250,907,cs),
(1440,907,o),
(1517,780,o),
(1534,606,c),
(943,606,l)
);
}
);
};
layerId = "9FF46155-5700-4CC7-A83F-22EBDC7BC473";
shapes = (
{
closed = 1;
nodes = (
(222,-22,o),
(441,-22,cs),
(661,-22,o),
(785,95,o),
(853,230,c),
(898,80,o),
(1044,-22,o),
(1232,-22,cs),
(1446,-22,o),
(1582,65,o),
(1664,206,c),
(1577,292,l),
(1511,193,o),
(1397,115,o),
(1242,115,cs),
(1029,115,o),
(941,253,o),
(941,463,cs),
(941,468,o),
(942,485,o),
(942,489,c),
(1697,489,l),
(1697,524,ls),
(1697,845,o),
(1543,1048,o),
(1251,1048,cs),
(1084,1048,o),
(933,941,o),
(877,806,c),
(835,956,o),
(716.028,1048,o),
(550,1048,cs),
(353,1048,o),
(217,985,o),
(148,856,c),
(238,763,l),
(298,864,o),
(391,907,o),
(540,907,cs),
(706,907,o),
(771,793,o),
(771,628,cs),
(771,605,l),
(443,605,o),
(81,611,o),
(81,282,cs),
(81,92,o)
);
},
{
closed = 1;
nodes = (
(684,115,o),
(464,115,cs),
(337,115,o),
(250,163,o),
(250,290,cs),
(250,461.258,o),
(441.619,480.741,o),
(627,486,c),
(773,489,l),
(773,272,o)
);
},
{
closed = 1;
nodes = (
(954.616,760.876,o),
(1054.51,907,o),
(1250,907,cs),
(1440,907,o),
(1517,780,o),
(1534,606,c),
(943,606,l)
);
}
);
width = 1807;
}
);
unicode = 230;
},
{
glyphname = b;
lastChange = "2023-07-28 09:07:07 +0000";
layers = (
{
background = {
shapes = (
{
closed = 1;
nodes = (
(152,71,l),
(152,71,o),
(369,-22,o),
(612,-22,cs),
(929,-22,o),
(1120,215,o),
(1120,545,cs),
(1120,863,o),
(926,1045,o),
(704,1045,cs),
(574,1045,o),
(434,984,o),
(317,851,c),
(317,1525,l),
(152,1495,l)
);
},
{
closed = 1;
nodes = (
(950,788,o),
(950,550,cs),
(950,319,o),
(848,116,o),
(615,116,cs),
(461,116,o),
(317,156,o),
(317,156,c),
(317,686,l),
(431,830,o),
(568,904,o),
(686,904,cs),
(834,904,o)
);
}
);
};
layerId = "9FF46155-5700-4CC7-A83F-22EBDC7BC473";
shapes = (
{
closed = 1;
nodes = (
(152,71,l),
(152,71,o),
(369,-22,o),
(612,-22,cs),
(929,-22,o),
(1120,215,o),
(1120,545,cs),
(1120,863,o),
(926,1045,o),
(704,1045,cs),
(574,1045,o),
(434,984,o),
(317,851,c),
(317,1525,l),
(152,1495,l)
);
},
{
closed = 1;
nodes = (
(950,788,o),
(950,550,cs),
(950,319,o),
(848,116,o),
(615,116,cs),
(461,116,o),
(317,156,o),
(317,156,c),
(317,686,l),
(431,830,o),
(568,904,o),
(686,904,cs),
(834,904,o)
);
}
);
width = 1210;
}
);
unicode = 98;
},
{
glyphname = c;
lastChange = "2023-07-28 09:07:07 +0000";
layers = (
{
anchors = (
{
name = bottom;
pos = (646,0);
},
{
name = top;
pos = (611,1026);
}
);
background = {
anchors = (
{
name = bottom;
pos = (646,0);
},
{
name = top;
pos = (611,1026);
}
);
shapes = (
{
closed = 1;
nodes = (
(90,852,o),
(90,503,cs),
(90,157,o),
(353,-23,o),
(634,-23,cs),
(765,-23,o),
(902,22,o),
(1013,112,c),
(956,238,l),
(873,160,o),
(759,119,o),
(651,119,cs),
(450,119,o),
(260,241,o),
(260,508,cs),
(260,766,o),
(455,906,o),
(656,906,cs),
(751,906,o),
(848,871,o),
(923,799,c),
(983,920,l),
(886,1013,o),
(761,1050,o),
(640,1050,cs),
(364,1050,o)
);
}
);
};
layerId = "9FF46155-5700-4CC7-A83F-22EBDC7BC473";
shapes = (
{
closed = 1;
nodes = (
(90,852,o),
(90,503,cs),
(90,157,o),
(353,-23,o),
(634,-23,cs),
(765,-23,o),
(902,22,o),
(1013,112,c),
(956,238,l),
(873,160,o),
(759,119,o),
(651,119,cs),
(450,119,o),
(260,241,o),
(260,508,cs),
(260,766,o),
(455,906,o),
(656,906,cs),
(751,906,o),
(848,871,o),
(923,799,c),
(983,920,l),
(886,1013,o),
(761,1050,o),
(640,1050,cs),
(364,1050,o)
);
}
);
width = 1019;
}
);
unicode = 99;
},
{
glyphname = cacute;
lastChange = "2023-07-28 09:19:43 +0000";
layers = (
{
background = {
anchors = (
{
name = bottom;
pos = (646,0);
},
{
name = top;
pos = (611,1026);
}
);
shapes = (
{
closed = 1;
nodes = (
(675,1173,l),
(983,1493,l),
(771,1493,l),
(545,1173,l)
);
},
{
closed = 1;
nodes = (
(90,852,o),
(90,503,cs),
(90,157,o),
(353,-23,o),
(634,-23,cs),
(765,-23,o),
(902,22,o),
(1013,112,c),
(956,238,l),
(873,160,o),
(759,119,o),
(651,119,cs),
(450,119,o),
(260,241,o),
(260,508,cs),
(260,766,o),
(455,906,o),
(656,906,cs),
(751,906,o),
(848,871,o),
(923,799,c),
(983,920,l),
(886,1013,o),
(761,1050,o),
(640,1050,cs),
(364,1050,o)
);
}
);
};
layerId = "9FF46155-5700-4CC7-A83F-22EBDC7BC473";
shapes = (
{
ref = c;
},
{
pos = (355,0);
ref = acutecomb;
}
);
width = 1019;
}
);
unicode = 263;
},
{
glyphname = ccaron;
lastChange = "2023-07-28 09:19:43 +0000";
layers = (
{
background = {
anchors = (
{
name = bottom;
pos = (646,0);
},
{
name = top;
pos = (611,1026);
}
);
shapes = (
{
closed = 1;
nodes = (
(90,852,o),
(90,503,cs),
(90,157,o),
(353,-23,o),
(634,-23,cs),
(765,-23,o),
(902,22,o),
(1013,112,c),
(956,238,l),
(873,160,o),
(759,119,o),
(651,119,cs),
(450,119,o),
(260,241,o),
(260,508,cs),
(260,766,o),
(455,906,o),
(656,906,cs),
(751,906,o),
(848,871,o),
(923,799,c),
(983,920,l),
(886,1013,o),
(761,1050,o),
(640,1050,cs),
(364,1050,o)
);
},
{
closed = 1;
nodes = (
(689,1170,l),
(927,1493,l),
(773,1493,l),
(605,1278,l),
(441,1493,l),
(294,1493,l),
(533,1170,l)
);
}
);
};
layerId = "9FF46155-5700-4CC7-A83F-22EBDC7BC473";
shapes = (
{
ref = c;
},
{
pos = (265,0);
ref = caroncomb;
}
);
width = 1019;
}
);
unicode = 269;
},
{
glyphname = ccedilla;
lastChange = "2023-07-28 09:19:43 +0000";
layers = (
{
background = {
anchors = (
{
name = bottom;
pos = (646,0);
},
{
name = top;
pos = (611,1026);
}
);
shapes = (
{
closed = 1;
nodes = (
(90,852,o),
(90,503,cs),
(90,157,o),
(353,-23,o),
(634,-23,cs),
(765,-23,o),
(902,22,o),
(1013,112,c),
(956,238,l),
(873,160,o),
(759,119,o),
(651,119,cs),
(450,119,o),
(260,241,o),
(260,508,cs),
(260,766,o),
(455,906,o),
(656,906,cs),
(751,906,o),
(848,871,o),
(923,799,c),
(983,920,l),
(886,1013,o),
(761,1050,o),
(640,1050,cs),
(364,1050,o)
);
},
{
closed = 1;
nodes = (
(553,-396,o),
(613,-396,cs),
(734,-396,o),
(854,-359,o),
(854,-239,cs),
(854,-131,o),
(758,-95,o),
(654,-90,c),
(645,-90,l),
(663,17,l),
(566,17,l),
(533,-173,l),
(565,-171,ls),
(576,-170,o),
(593,-168,o),
(602,-168,cs),
(662,-168,o),
(711,-182,o),
(711,-241,cs),
(711,-297,o),
(663,-313,o),
(597,-313,cs),
(543,-313,o),
(496,-301,o),
(446,-289,c),
(438,-374,l),
(492,-385,o)
);
}
);
};
layerId = "9FF46155-5700-4CC7-A83F-22EBDC7BC473";
shapes = (
{
ref = c;
},
{
pos = (386,0);
ref = cedillacomb;
}
);
width = 1019;
}
);
unicode = 231;
},
{
glyphname = d;
lastChange = "2023-07-28 09:07:07 +0000";
layers = (
{
anchors = (
{
name = center;
pos = (985,1294);
}
);
background = {
anchors = (
{
name = center;
pos = (985,1294);
}
);
shapes = (
{
closed = 1;
nodes = (
(906,917,l),
(796,1011,o),
(693,1048,o),
(561,1048,cs),
(252,1048,o),
(90,810,o),
(90,501,cs),
(90,186,o),
(278,-22,o),
(561,-22,cs),
(722,-22,o),
(859,52,o),
(919,177,c),
(923,111,o),
(959,32,o),
(997,-13,c),
(1159,10,l),
(1114,76,o),
(1071,162,o),
(1071,390,cs),
(1071,1526,l),
(906,1506,l)
);
},
{
closed = 1;
nodes = (
(832,844,o),
(907,744,c),
(907,534,l),
(907,296,o),
(818,116,o),
(579,116,cs),
(391,116,o),
(260,274,o),
(260,507,cs),
(260,732,o),
(359,907,o),
(585,907,cs),
(704,907,o)
);
}
);
};
layerId = "9FF46155-5700-4CC7-A83F-22EBDC7BC473";
shapes = (
{
closed = 1;
nodes = (
(906,917,l),
(796,1011,o),
(693,1048,o),
(561,1048,cs),
(252,1048,o),
(90,810,o),
(90,501,cs),
(90,186,o),
(278,-22,o),
(561,-22,cs),
(722,-22,o),
(859,52,o),
(919,177,c),
(923,111,o),
(959,32,o),
(997,-13,c),
(1159,10,l),
(1114,76,o),
(1071,162,o),
(1071,390,cs),
(1071,1526,l),
(906,1506,l)
);
},
{
closed = 1;
nodes = (
(832,844,o),
(907,744,c),
(907,534,l),
(907,296,o),
(818,116,o),
(579,116,cs),
(391,116,o),
(260,274,o),
(260,507,cs),
(260,732,o),
(359,907,o),
(585,907,cs),
(704,907,o)
);
}
);
width = 1226;
}
);
unicode = 100;
},
{
glyphname = eth;
lastChange = "2023-07-28 09:07:07 +0000";
layers = (
{
background = {
shapes = (
{
closed = 1;
nodes = (
(347,-23,o),
(581,-23,cs),
(662,-23,o),
(734,-8,o),
(798,22,cs),
(1006,121,o),
(1093,361,o),
(1093,672,cs),
(1093,805,o),
(1075,921,o),
(1045,1026,c),
(1190,1026,l),
(1190,1163,l),
(993,1163,l),
(920,1315,o),
(812,1428,o),
(653,1490,c),
(574,1406,l),
(684,1344,o),
(766,1271,o),
(826,1163,c),
(620,1163,l),
(620,1026,l),
(882,1026,l),
(906,937,o),
(917,847,o),
(918,733,c),
(918,723,l),
(846,838,o),
(725,897,o),
(545,897,cs),
(475,897,o),
(412,886,o),
(356,864,cs),
(199,802,o),
(88,662,o),
(88,446,cs),
(88,380,o),
(99,318,o),
(122,261,cs),
(189,93,o)
);
},
{
closed = 1;
nodes = (
(798,118,o),
(573,118,cs),
(526,118,o),
(484,126,o),
(446,142,cs),
(339,188,o),
(264,291,o),
(264,441,cs),
(264,638,o),
(373,757,o),
(572,757,cs),
(742,757,o),
(859,664,o),
(903,536,c),
(903,512,ls),
(903,290,o)
);
}
);
};
layerId = "9FF46155-5700-4CC7-A83F-22EBDC7BC473";
shapes = (
{
closed = 1;
nodes = (
(347,-23,o),
(581,-23,cs),
(662,-23,o),
(734,-8,o),
(798,22,cs),
(1006,121,o),
(1093,361,o),
(1093,672,cs),
(1093,805,o),
(1075,921,o),
(1045,1026,c),
(1190,1026,l),
(1190,1163,l),
(993,1163,l),
(920,1315,o),
(812,1428,o),
(653,1490,c),
(574,1406,l),
(684,1344,o),
(766,1271,o),
(826,1163,c),
(620,1163,l),
(620,1026,l),
(882,1026,l),
(906,937,o),
(917,847,o),
(918,733,c),
(918,723,l),
(846,838,o),
(725,897,o),
(545,897,cs),
(475,897,o),
(412,886,o),
(356,864,cs),
(199,802,o),
(88,662,o),
(88,446,cs),
(88,380,o),
(99,318,o),
(122,261,cs),
(189,93,o)
);
},
{
closed = 1;
nodes = (
(798,118,o),
(573,118,cs),
(526,118,o),
(484,126,o),
(446,142,cs),
(339,188,o),
(264,291,o),
(264,441,cs),
(264,638,o),
(373,757,o),
(572,757,cs),
(742,757,o),
(859,664,o),
(903,536,c),
(903,512,ls),
(903,290,o)
);
}
);
width = 1190;
}
);
unicode = 240;
},
{
glyphname = e;
lastChange = "2023-07-28 09:07:07 +0000";
layers = (
{
anchors = (
{
name = bottom;
pos = (621,0);
},
{
name = ogonek;
pos = (776,46);
},
{
name = top;
pos = (562,1026);
}
);
background = {
anchors = (
{
name = bottom;
pos = (621,0);
},
{
name = ogonek;
pos = (776,46);
},
{
name = top;
pos = (562,1026);
}
);
shapes = (
{
closed = 1;
nodes = (
(90,797,o),
(90,516,cs),
(90,187,o),
(315,-22,o),
(619,-22,cs),
(779,-22,o),
(931,43,o),
(1031,146,c),
(948,252,l),
(881,176,o),
(758,116,o),
(619,116,cs),
(471,116,o),
(325,219,o),
(285,371,c),
(673,425,o),
(964,506,o),
(964,751,cs),
(964,918,o),
(826,1048,o),
(610,1048,cs),
(281,1048,o)
);
},
{
closed = 1;
nodes = (
(801,846,o),
(801,755,cs),
(801,594,o),
(581,534,o),
(273,490,c),
(271,506,o),
(270,525,o),
(270,539,cs),
(270,786,o),
(445,907,o),
(611,907,cs),
(732,907,o)
);
}
);
};
layerId = "9FF46155-5700-4CC7-A83F-22EBDC7BC473";
shapes = (
{
closed = 1;
nodes = (
(90,797,o),
(90,516,cs),
(90,187,o),
(315,-22,o),
(619,-22,cs),
(779,-22,o),
(931,43,o),
(1031,146,c),
(948,252,l),
(881,176,o),
(758,116,o),
(619,116,cs),
(471,116,o),
(325,219,o),
(285,371,c),
(673,425,o),
(964,506,o),
(964,751,cs),
(964,918,o),
(826,1048,o),
(610,1048,cs),
(281,1048,o)
);
},
{
closed = 1;
nodes = (
(801,846,o),
(801,755,cs),
(801,594,o),
(581,534,o),
(273,490,c),
(271,506,o),
(270,525,o),
(270,539,cs),
(270,786,o),
(445,907,o),
(611,907,cs),
(732,907,o)
);
}
);
width = 1070;
}
);
unicode = 101;
},
{
glyphname = eacute;
lastChange = "2023-07-28 09:19:43 +0000";
layers = (
{
background = {
anchors = (
{
name = bottom;
pos = (621,0);
},
{
name = ogonek;
pos = (776,46);
},
{
name = top;
pos = (562,1026);
}
);
shapes = (
{
closed = 1;
nodes = (
(657,1178,l),
(965,1498,l),
(753,1498,l),
(527,1178,l)
);
},
{
closed = 1;
nodes = (
(90,797,o),
(90,516,cs),
(90,187,o),
(315,-22,o),
(619,-22,cs),
(779,-22,o),
(931,43,o),
(1031,146,c),
(948,252,l),
(881,176,o),
(758,116,o),
(619,116,cs),
(471,116,o),
(325,219,o),
(285,371,c),
(673,425,o),
(964,506,o),
(964,751,cs),
(964,918,o),
(826,1048,o),
(610,1048,cs),
(281,1048,o)
);
},
{
closed = 1;
nodes = (
(801,846,o),
(801,755,cs),
(801,594,o),
(581,534,o),
(273,490,c),
(271,506,o),
(270,525,o),
(270,539,cs),
(270,786,o),
(445,907,o),
(611,907,cs),
(732,907,o)
);
}
);
};
layerId = "9FF46155-5700-4CC7-A83F-22EBDC7BC473";
shapes = (
{
ref = e;
},
{
pos = (306,0);
ref = acutecomb;
}
);
width = 1070;
}
);
unicode = 233;
},
{
glyphname = ecircumflex;
lastChange = "2023-07-28 09:19:43 +0000";
layers = (
{
background = {
anchors = (
{
name = bottom;
pos = (621,0);
},
{
name = ogonek;
pos = (776,46);
},
{
name = top;
pos = (562,1026);
}
);
shapes = (
{
closed = 1;
nodes = (
(411,1178,l),
(589,1394,l),
(767,1178,l),
(899,1178,l),
(670,1502,l),
(513,1502,l),
(285,1178,l)
);
},
{
closed = 1;
nodes = (
(90,797,o),
(90,516,cs),
(90,187,o),
(315,-22,o),
(619,-22,cs),
(779,-22,o),
(931,43,o),
(1031,146,c),
(948,252,l),
(881,176,o),
(758,116,o),
(619,116,cs),
(471,116,o),
(325,219,o),
(285,371,c),
(673,425,o),
(964,506,o),
(964,751,cs),
(964,918,o),
(826,1048,o),
(610,1048,cs),
(281,1048,o)
);
},
{
closed = 1;
nodes = (
(801,846,o),
(801,755,cs),
(801,594,o),
(581,534,o),
(273,490,c),
(271,506,o),
(270,525,o),
(270,539,cs),
(270,786,o),
(445,907,o),
(611,907,cs),
(732,907,o)
);
}
);
};
layerId = "9FF46155-5700-4CC7-A83F-22EBDC7BC473";
shapes = (
{
ref = e;
},
{
pos = (220,0);
ref = circumflexcomb;
}
);
width = 1070;
}
);
unicode = 234;
},
{
glyphname = edblgrave;
lastChange = "2023-07-28 09:19:43 +0000";
layers = (
{
background = {
anchors = (
{
name = bottom;
pos = (621,0);
},
{
name = ogonek;
pos = (776,46);
},
{
name = top;
pos = (562,1026);
}
);
shapes = (
{
closed = 1;
nodes = (
(90,797,o),
(90,516,cs),
(90,187,o),
(315,-22,o),
(619,-22,cs),
(779,-22,o),
(931,43,o),
(1031,146,c),
(948,252,l),
(881,176,o),
(758,116,o),
(619,116,cs),
(471,116,o),
(325,219,o),
(285,371,c),
(673,425,o),
(964,506,o),
(964,751,cs),
(964,918,o),
(826,1048,o),
(610,1048,cs),
(281,1048,o)
);
},
{
closed = 1;
nodes = (
(801,846,o),
(801,755,cs),
(801,594,o),
(581,534,o),
(273,490,c),
(271,506,o),
(270,525,o),
(270,539,cs),
(270,786,o),
(445,907,o),
(611,907,cs),
(732,907,o)
);
},
{
closed = 1;
nodes = (
(494,1174,l),
(274,1487,l),
(98,1487,l),
(374,1174,l)
);
},
{
closed = 1;
nodes = (
(761,1174,l),
(544,1487,l),
(368,1487,l),
(643,1174,l)
);
}
);
};
layerId = "9FF46155-5700-4CC7-A83F-22EBDC7BC473";
shapes = (
{
ref = e;
},
{
pos = (-64,0);
ref = dblgravecomb;
}
);
width = 1070;
}
);
unicode = 517;
},
{
glyphname = edieresis;
lastChange = "2023-07-28 09:19:43 +0000";
layers = (
{
background = {
anchors = (
{
name = bottom;
pos = (621,0);
},
{
name = ogonek;
pos = (776,46);
},
{
name = top;
pos = (562,1026);
}
);
shapes = (
{
closed = 1;
nodes = (
(508,1178,l),
(508,1341,l),
(344,1341,l),
(344,1178,l)
);
},
{
closed = 1;
nodes = (
(840,1178,l),
(840,1341,l),
(676,1341,l),
(676,1178,l)
);
},
{
closed = 1;
nodes = (
(90,797,o),
(90,516,cs),
(90,187,o),
(315,-22,o),
(619,-22,cs),
(779,-22,o),
(931,43,o),
(1031,146,c),
(948,252,l),
(881,176,o),
(758,116,o),
(619,116,cs),
(471,116,o),
(325,219,o),
(285,371,c),
(673,425,o),
(964,506,o),
(964,751,cs),
(964,918,o),
(826,1048,o),
(610,1048,cs),
(281,1048,o)
);
},
{
closed = 1;
nodes = (
(801,846,o),
(801,755,cs),
(801,594,o),
(581,534,o),
(273,490,c),
(271,506,o),
(270,525,o),
(270,539,cs),
(270,786,o),
(445,907,o),
(611,907,cs),
(732,907,o)
);
}
);
};
layerId = "9FF46155-5700-4CC7-A83F-22EBDC7BC473";
shapes = (
{
ref = e;
},
{
pos = (193,0);
ref = dieresiscomb;
}
);
width = 1070;
}
);
unicode = 235;
},
{
glyphname = egrave;
lastChange = "2023-07-28 09:19:43 +0000";
layers = (
{
background = {
anchors = (
{
name = bottom;
pos = (621,0);
},
{
name = ogonek;
pos = (776,46);
},
{
name = top;
pos = (562,1026);
}
);
shapes = (
{
closed = 1;
nodes = (
(90,797,o),
(90,516,cs),
(90,187,o),
(315,-22,o),
(619,-22,cs),
(779,-22,o),
(931,43,o),
(1031,146,c),
(948,252,l),
(881,176,o),
(758,116,o),
(619,116,cs),
(471,116,o),
(325,219,o),
(285,371,c),
(673,425,o),
(964,506,o),
(964,751,cs),
(964,918,o),
(826,1048,o),
(610,1048,cs),
(281,1048,o)
);
},
{
closed = 1;
nodes = (
(801,846,o),
(801,755,cs),
(801,594,o),
(581,534,o),
(273,490,c),
(271,506,o),
(270,525,o),
(270,539,cs),
(270,786,o),
(445,907,o),
(611,907,cs),
(732,907,o)
);
},
{
closed = 1;
nodes = (
(656,1172,l),
(409,1492,l),
(195,1492,l),
(527,1172,l)
);
}
);
};
layerId = "9FF46155-5700-4CC7-A83F-22EBDC7BC473";
shapes = (
{
ref = e;
},
{
pos = (194,0);
ref = gravecomb;
}
);
width = 1070;
}
);
unicode = 232;
},
{
glyphname = einvertedbreve;
lastChange = "2023-07-28 09:19:43 +0000";
layers = (
{
background = {
anchors = (
{
name = bottom;
pos = (621,0);
},
{
name = ogonek;
pos = (776,46);
},
{
name = top;
pos = (562,1026);
}
);
shapes = (
{
closed = 1;
nodes = (
(90,797,o),
(90,516,cs),
(90,187,o),
(315,-22,o),
(619,-22,cs),
(779,-22,o),
(931,43,o),
(1031,146,c),
(948,252,l),
(881,176,o),
(758,116,o),
(619,116,cs),
(471,116,o),
(325,219,o),
(285,371,c),
(673,425,o),
(964,506,o),
(964,751,cs),
(964,918,o),
(826,1048,o),
(610,1048,cs),
(281,1048,o)
);
},
{
closed = 1;
nodes = (
(801,846,o),
(801,755,cs),
(801,594,o),
(581,534,o),
(273,490,c),
(271,506,o),
(270,525,o),
(270,539,cs),
(270,786,o),
(445,907,o),
(611,907,cs),
(732,907,o)
);
},
{
closed = 1;
nodes = (
(289,1378,o),
(276,1218,c),
(363,1218,l),
(378,1306,o),
(451,1347,o),
(553,1347,cs),
(655,1347,o),
(734,1302,o),
(754,1218,c),
(840,1218,l),
(827,1372,o),
(726,1454,o),
(560,1454,cs),
(389,1454,o)
);
}
);
};
layerId = "9FF46155-5700-4CC7-A83F-22EBDC7BC473";
shapes = (
{
ref = e;
},
{
pos = (244,0);
ref = breveinvertedcomb;
}
);
width = 1070;
}
);
unicode = 519;
},
{
glyphname = emacron;
lastChange = "2023-07-28 09:19:43 +0000";
layers = (
{
background = {
anchors = (
{
name = bottom;
pos = (621,0);
},
{
name = ogonek;
pos = (776,46);
},
{
name = top;
pos = (562,1026);
}
);
shapes = (
{
closed = 1;
nodes = (
(90,797,o),
(90,516,cs),
(90,187,o),
(315,-22,o),
(619,-22,cs),
(779,-22,o),
(931,43,o),
(1031,146,c),
(948,252,l),
(881,176,o),
(758,116,o),
(619,116,cs),
(471,116,o),
(325,219,o),
(285,371,c),
(673,425,o),
(964,506,o),
(964,751,cs),
(964,918,o),
(826,1048,o),
(610,1048,cs),
(281,1048,o)
);
},
{
closed = 1;
nodes = (
(801,846,o),
(801,755,cs),
(801,594,o),
(581,534,o),
(273,490,c),
(271,506,o),
(270,525,o),
(270,539,cs),
(270,786,o),
(445,907,o),
(611,907,cs),
(732,907,o)
);
},
{
closed = 1;
nodes = (
(848,1183,l),
(848,1317,l),
(276,1317,l),
(276,1183,l)
);
}
);
};
layerId = "9FF46155-5700-4CC7-A83F-22EBDC7BC473";
shapes = (
{
ref = e;
},
{
pos = (197,0);
ref = macroncomb;
}
);
width = 1070;
}
);
unicode = 275;
},
{
glyphname = eogonek;
lastChange = "2023-07-28 09:19:43 +0000";
layers = (
{
background = {
anchors = (
{
name = bottom;
pos = (621,0);
},
{
name = ogonek;
pos = (776,46);
},
{
name = top;
pos = (562,1026);
}
);
shapes = (
{
closed = 1;
nodes = (
(90,797,o),
(90,516,cs),
(90,187,o),
(315,-22,o),
(619,-22,cs),
(779,-22,o),
(931,43,o),
(1031,146,c),
(948,252,l),
(881,176,o),
(758,116,o),
(619,116,cs),
(471,116,o),
(325,219,o),
(285,371,c),
(673,425,o),
(964,506,o),
(964,751,cs),
(964,918,o),
(826,1048,o),
(610,1048,cs),
(281,1048,o)
);
},
{
closed = 1;
nodes = (
(801,846,o),
(801,755,cs),
(801,594,o),
(581,534,o),
(273,490,c),
(271,506,o),
(270,525,o),
(270,539,cs),
(270,786,o),
(445,907,o),
(611,907,cs),
(732,907,o)
);
},
{
closed = 1;
nodes = (
(617,-354,o),
(711,-354,cs),
(775,-354,o),
(842,-344,o),
(888,-325,c),
(888,-214,l),
(842,-232,o),
(798,-245,o),
(734,-245,cs),
(683,-245,o),
(634,-214,o),
(634,-163,cs),
(634,-147,o),
(639,-131,o),
(649,-115,cs),
(691,-50,o),
(768,-6,o),
(837,36,c),
(708,48,l),
(654,22,o),
(600,-13,o),
(560,-53,cs),
(527,-86,o),
(493,-131,o),
(493,-189,cs),
(493,-216,o),
(499,-240,o),
(510,-260,cs),
(544,-321,o)
);
}
);
};
layerId = "9FF46155-5700-4CC7-A83F-22EBDC7BC473";
shapes = (
{
ref = e;
},
{
pos = (445,36);
ref = ogonekcomb;
}
);
width = 1070;
}
);
unicode = 281;
},
{
glyphname = f;
lastChange = "2023-07-28 09:07:07 +0000";
layers = (
{
background = {
shapes = (
{
closed = 1;
nodes = (
(253,1423,o),
(253,1170,cs),
(253,1026,l),
(51,1026,l),
(51,919,l),
(253,919,l),
(253,-34,ls),
(253,-194,o),
(190,-299,o),
(70,-328,c),
(91,-449,l),
(330,-418,o),
(417,-261,o),
(417,-11,cs),
(417,919,l),
(665,919,l),
(665,1026,l),
(417,1026,l),
(417,1193,ls),
(417,1344,o),
(467,1409,o),
(584,1409,cs),
(620,1409,o),
(658,1401,o),
(695,1392,c),
(719,1499,l),
(655,1521,o),
(595,1532,o),
(541,1532,cs),
(339,1532,o)
);
}
);
};
layerId = "9FF46155-5700-4CC7-A83F-22EBDC7BC473";
shapes = (
{
closed = 1;
nodes = (
(253,1423,o),
(253,1170,cs),
(253,1026,l),
(51,1026,l),
(51,919,l),
(253,919,l),
(253,-34,ls),
(253,-194,o),
(190,-299,o),
(70,-328,c),
(91,-449,l),
(330,-418,o),
(417,-261,o),
(417,-11,cs),
(417,919,l),
(665,919,l),
(665,1026,l),
(417,1026,l),
(417,1193,ls),
(417,1344,o),
(467,1409,o),
(584,1409,cs),
(620,1409,o),
(658,1401,o),
(695,1392,c),
(719,1499,l),
(655,1521,o),
(595,1532,o),
(541,1532,cs),
(339,1532,o)
);
}
);
width = 699;
}
);
unicode = 102;
},
{
glyphname = g;
lastChange = "2023-07-28 09:07:07 +0000";
layers = (
{
anchors = (
{
name = top;
pos = (639,1026);
}
);
background = {
anchors = (
{
name = top;
pos = (639,1026);
}
);
shapes = (
{
closed = 1;
nodes = (
(90,804,o),
(90,438,cs),
(90,162,o),
(256,-22,o),
(506,-22,cs),
(648.066,-22,o),
(783.663,38.636,o),
(859,133.01,c),
(859,-44,ls),
(859,-232,o),
(720,-357,o),
(511,-357,cs),
(422,-357,o),
(300,-326,o),
(208,-280,c),
(189,-433,l),
(290,-470,o),
(424,-494,o),
(525,-494,cs),
(824,-494,o),
(1023,-306,o),
(1023,-23,cs),
(1023,962,l),
(943,1014,o),
(800,1048,o),
(666,1048,cs),
(320,1048,o)
);
},
{
closed = 1;
nodes = (
(817,893,o),
(859,872,c),
(859,453,ls),
(859,261,o),
(728,116,o),
(531,116,cs),
(368,116,o),
(260,249,o),
(260,448,cs),
(260,723,o),
(421,907,o),
(663,907,cs),
(739,907,o)
);
}
);
};
layerId = "9FF46155-5700-4CC7-A83F-22EBDC7BC473";
shapes = (
{
closed = 1;
nodes = (
(90,804,o),
(90,438,cs),
(90,162,o),
(256,-22,o),
(506,-22,cs),
(648.066,-22,o),
(783.663,38.636,o),
(859,133.01,c),
(859,-44,ls),
(859,-232,o),
(720,-357,o),
(511,-357,cs),
(422,-357,o),
(300,-326,o),
(208,-280,c),
(189,-433,l),
(290,-470,o),
(424,-494,o),
(525,-494,cs),
(824,-494,o),
(1023,-306,o),
(1023,-23,cs),
(1023,962,l),
(943,1014,o),
(800,1048,o),
(666,1048,cs),
(320,1048,o)
);
},
{
closed = 1;
nodes = (
(817,893,o),
(859,872,c),
(859,453,ls),
(859,261,o),
(728,116,o),
(531,116,cs),
(368,116,o),
(260,249,o),
(260,448,cs),
(260,723,o),
(421,907,o),
(663,907,cs),
(739,907,o)
);
}
);
width = 1143;
}
);
unicode = 103;
},
{
glyphname = gcommaaccent;
lastChange = "2023-07-28 09:07:23 +0000";
layers = (
{
background = {
anchors = (
{
name = top;
pos = (639,1026);
}
);
shapes = (
{
closed = 1;
nodes = (
(90,804,o),
(90,438,cs),
(90,162,o),
(256,-22,o),
(506,-22,cs),
(648.066,-22,o),
(783.663,38.636,o),
(859,133.01,c),
(859,-44,ls),
(859,-232,o),
(720,-357,o),
(511,-357,cs),
(422,-357,o),
(300,-326,o),
(208,-280,c),
(189,-433,l),
(290,-470,o),
(424,-494,o),
(525,-494,cs),
(824,-494,o),
(1023,-306,o),
(1023,-23,cs),
(1023,962,l),
(943,1014,o),
(800,1048,o),
(666,1048,cs),
(320,1048,o)
);
},
{
closed = 1;
nodes = (
(817,893,o),
(859,872,c),
(859,453,ls),
(859,261,o),
(728,116,o),
(531,116,cs),
(368,116,o),
(260,249,o),
(260,448,cs),
(260,723,o),
(421,907,o),
(663,907,cs),
(739,907,o)
);
},
{
closed = 1;
nodes = (
(586,1625,l),
(423,1162,l),
(610,1162,l),
(717,1625,l)
);
}
);
};
layerId = "9FF46155-5700-4CC7-A83F-22EBDC7BC473";
shapes = (
{
ref = g;
},
{
angle = 180;
pos = (827,1022);
ref = uniF6C3;
}
);
width = 1143;
}
);
unicode = 291;
},
{
glyphname = h;
lastChange = "2023-07-28 09:07:07 +0000";
layers = (
{
anchors = (
{
name = center;
pos = (228,1200);
},
{
name = top;
pos = (617,1467);
}
);
background = {
anchors = (
{
name = center;
pos = (228,1200);
},
{
name = top;
pos = (617,1467);
}
);
shapes = (
{
closed = 1;
nodes = (
(354,965,o),
(298,842,c),
(316,532,l),
(316,795,o),
(499,907,o),
(651,907,cs),
(805,907,o),
(867,804,o),
(867,562,c),
(865,284,l),
(863,48,o),
(912,-51,o),
(1130,-19,c),
(1146,119,l),
(1022,95,o),
(1029,167,o),
(1030,320,c),
(1032,565,l),
(1035,903,o),
(918,1048,o),
(686,1048,cs),
(519,1048,o)
);
},
{
closed = 1;
nodes = (
(152,0,l),
(316,0,l),
(316,1526,l),
(152,1506,l)
);
}
);
};
layerId = "9FF46155-5700-4CC7-A83F-22EBDC7BC473";
shapes = (
{
closed = 1;
nodes = (
(354,965,o),
(298,842,c),
(316,532,l),
(316,795,o),
(499,907,o),
(651,907,cs),
(805,907,o),
(867,804,o),
(867,562,c),
(865,284,l),
(863,48,o),
(912,-51,o),
(1130,-19,c),
(1146,119,l),
(1022,95,o),
(1029,167,o),
(1030,320,c),
(1032,565,l),
(1035,903,o),
(918,1048,o),
(686,1048,cs),
(519,1048,o)
);
},
{
closed = 1;
nodes = (
(152,0,l),
(316,0,l),
(316,1526,l),
(152,1506,l)
);
}
);
width = 1222;
}
);
unicode = 104;
},
{
glyphname = hbar;
lastChange = "2023-07-28 09:07:23 +0000";
layers = (
{
background = {
anchors = (
{
name = center;
pos = (228,1200);
},
{
name = top;
pos = (617,1467);
}
);
shapes = (
{
closed = 1;
nodes = (
(354,965,o),
(298,842,c),
(316,532,l),
(316,795,o),
(499,907,o),
(651,907,cs),
(805,907,o),
(867,804,o),
(867,562,c),
(865,284,l),
(863,48,o),
(912,-51,o),
(1130,-19,c),
(1146,119,l),
(1022,95,o),
(1029,167,o),
(1030,320,c),
(1032,565,l),
(1035,903,o),
(918,1048,o),
(686,1048,cs),
(519,1048,o)
);
},
{
closed = 1;
nodes = (
(152,0,l),
(316,0,l),
(316,1526,l),
(152,1506,l)
);
},
{
closed = 1;
nodes = (
(903,1624,l),
(903,1758,l),
(331,1758,l),
(331,1624,l)
);
}
);
};
layerId = "9FF46155-5700-4CC7-A83F-22EBDC7BC473";
shapes = (
{
ref = h;
},
{
pos = (252,441);
ref = macron;
}
);
width = 1222;
}
);
unicode = 295;
},
{
glyphname = i;
lastChange = "2023-07-28 09:19:43 +0000";
layers = (
{
background = {
shapes = (
{
closed = 1;
nodes = (
(167,262,ls),
(167,-19,o),
(393,-69,o),
(625,26,c),
(602,145,l),
(466,96,o),
(331,74,o),
(331,267,cs),
(331,1026,l),
(167,1026,l)
);
},
{
closed = 1;
nodes = (
(144,1411,o),
(144,1345,cs),
(144,1279,o),
(197,1245,o),
(251,1245,cs),
(305,1245,o),
(359,1278,o),
(359,1344,cs),
(359,1410,o),
(306,1444,o),
(252,1444,cs),
(198,1444,o)
);
}
);
};
layerId = "9FF46155-5700-4CC7-A83F-22EBDC7BC473";
shapes = (
{
ref = idotless;
},
{
pos = (-12,0);
ref = dotaccentcomb;
}
);
width = 503;
}
);
unicode = 105;
},
{
glyphname = idotless;
lastChange = "2023-07-28 09:10:20 +0000";
layers = (
{
anchors = (
{
name = ogonek;
pos = (453,10);
},
{
name = top;
pos = (252,1026);
}
);
background = {
anchors = (
{
name = ogonek;
pos = (453,10);
},
{
name = top;
pos = (252,1026);
}
);
shapes = (
{
closed = 1;
nodes = (
(292,-5,o),
(434,-5,cs),
(481,-5,o),
(550,10,o),
(600,30,c),
(580,141,l),
(545,128,o),
(487,118,o),
(457,118,cs),
(389,118,o),
(332,143,o),
(332,283,c),
(332,1026,l),
(167,1026,l),
(167,278,ls),
(167,67,o)
);
}
);
};
layerId = "9FF46155-5700-4CC7-A83F-22EBDC7BC473";
shapes = (
{
closed = 1;
nodes = (
(292,-5,o),
(434,-5,cs),
(481,-5,o),
(550,10,o),
(600,30,c),
(580,141,l),
(545,128,o),
(487,118,o),
(457,118,cs),
(389,118,o),
(332,143,o),
(332,283,c),
(332,1026,l),
(167,1026,l),
(167,278,ls),
(167,67,o)
);
}
);
width = 503;
}
);
unicode = 305;
},
{
glyphname = iacute;
lastChange = "2023-07-28 09:19:43 +0000";
layers = (
{
background = {
anchors = (
{
name = ogonek;
pos = (453,10);
},
{
name = top;
pos = (252,1026);
}
);
shapes = (
{
closed = 1;
nodes = (
(315,1173,l),
(623,1493,l),
(411,1493,l),
(185,1173,l)
);
},
{
closed = 1;
nodes = (
(292,-5,o),
(434,-5,cs),
(481,-5,o),
(550,10,o),
(600,30,c),
(580,141,l),
(545,128,o),
(487,118,o),
(457,118,cs),
(389,118,o),
(332,143,o),
(332,283,c),
(332,1026,l),
(167,1026,l),
(167,278,ls),
(167,67,o)
);
}
);
};
layerId = "9FF46155-5700-4CC7-A83F-22EBDC7BC473";
shapes = (
{
ref = idotless;
},
{
pos = (-4,0);
ref = acutecomb;
}
);
width = 503;
}
);
unicode = 237;
},
{
glyphname = icircumflex;
lastChange = "2023-07-28 09:19:43 +0000";
layers = (
{
background = {
anchors = (
{
name = ogonek;
pos = (453,10);
},
{
name = top;
pos = (252,1026);
}
);
shapes = (
{
closed = 1;
nodes = (
(69,1173,l),
(247,1389,l),
(425,1173,l),
(557,1173,l),
(328,1497,l),
(171,1497,l),
(-57,1173,l)
);
},
{
closed = 1;
nodes = (
(292,-5,o),
(434,-5,cs),
(481,-5,o),
(550,10,o),
(600,30,c),
(580,141,l),
(545,128,o),
(487,118,o),
(457,118,cs),
(389,118,o),
(332,143,o),
(332,283,c),
(332,1026,l),
(167,1026,l),
(167,278,ls),
(167,67,o)
);
}
);
};
layerId = "9FF46155-5700-4CC7-A83F-22EBDC7BC473";
shapes = (
{
ref = idotless;
},
{
pos = (-90,0);
ref = circumflexcomb;
}
);
width = 503;
}
);
unicode = 238;
},
{
glyphname = idblgrave;
lastChange = "2023-07-28 09:19:43 +0000";
layers = (
{
background = {
anchors = (
{
name = ogonek;
pos = (453,10);
},
{
name = top;
pos = (252,1026);
}
);
shapes = (
{
closed = 1;
nodes = (
(292,-5,o),
(434,-5,cs),
(481,-5,o),
(550,10,o),
(600,30,c),
(580,141,l),
(545,128,o),
(487,118,o),
(457,118,cs),
(389,118,o),
(332,143,o),
(332,283,c),
(332,1026,l),
(167,1026,l),
(167,278,ls),
(167,67,o)
);
},
{
closed = 1;
nodes = (
(184,1174,l),
(-36,1487,l),
(-212,1487,l),
(64,1174,l)
);
},
{
closed = 1;
nodes = (
(451,1174,l),
(234,1487,l),
(58,1487,l),
(333,1174,l)
);
}
);
};
layerId = "9FF46155-5700-4CC7-A83F-22EBDC7BC473";
shapes = (
{
ref = idotless;
},
{
pos = (-374,0);
ref = dblgravecomb;
}
);
width = 503;
}
);
unicode = 521;
},
{
glyphname = idieresis;
lastChange = "2023-07-28 09:19:43 +0000";
layers = (
{
background = {
anchors = (
{
name = ogonek;
pos = (453,10);
},
{
name = top;
pos = (252,1026);
}
);
shapes = (
{
closed = 1;
nodes = (
(166,1173,l),
(166,1336,l),
(2,1336,l),
(2,1173,l)
);
},
{
closed = 1;
nodes = (
(498,1173,l),
(498,1336,l),
(334,1336,l),
(334,1173,l)
);
},
{
closed = 1;
nodes = (
(292,-5,o),
(434,-5,cs),
(481,-5,o),
(550,10,o),
(600,30,c),
(580,141,l),
(545,128,o),
(487,118,o),
(457,118,cs),
(389,118,o),
(332,143,o),
(332,283,c),
(332,1026,l),
(167,1026,l),
(167,278,ls),
(167,67,o)
);
}
);
};
layerId = "9FF46155-5700-4CC7-A83F-22EBDC7BC473";
shapes = (
{
ref = idotless;
},
{
pos = (-117,0);
ref = dieresiscomb;
}
);
width = 503;
}
);
unicode = 239;
},
{
glyphname = igrave;
lastChange = "2023-07-28 09:19:43 +0000";
layers = (
{
background = {
anchors = (
{
name = ogonek;
pos = (453,10);
},
{
name = top;
pos = (252,1026);
}
);
shapes = (
{
closed = 1;
nodes = (
(292,-5,o),
(434,-5,cs),
(481,-5,o),
(550,10,o),
(600,30,c),
(580,141,l),
(545,128,o),
(487,118,o),
(457,118,cs),
(389,118,o),
(332,143,o),
(332,283,c),
(332,1026,l),
(167,1026,l),
(167,278,ls),
(167,67,o)
);
},
{
closed = 1;
nodes = (
(346,1172,l),
(99,1492,l),
(-115,1492,l),
(217,1172,l)
);
}
);
};
layerId = "9FF46155-5700-4CC7-A83F-22EBDC7BC473";
shapes = (
{
ref = idotless;
},
{
pos = (-116,0);
ref = gravecomb;
}
);
width = 503;
}
);
unicode = 236;
},
{
glyphname = iinvertedbreve;
lastChange = "2023-07-28 09:19:43 +0000";
layers = (
{
background = {
anchors = (
{
name = ogonek;
pos = (453,10);
},
{
name = top;
pos = (252,1026);
}
);
shapes = (
{
closed = 1;
nodes = (
(292,-5,o),
(434,-5,cs),
(481,-5,o),
(550,10,o),
(600,30,c),
(580,141,l),
(545,128,o),
(487,118,o),
(457,118,cs),
(389,118,o),
(332,143,o),
(332,283,c),
(332,1026,l),
(167,1026,l),
(167,278,ls),
(167,67,o)
);
},
{
closed = 1;
nodes = (
(-21,1378,o),
(-34,1218,c),
(53,1218,l),
(68,1306,o),
(141,1347,o),
(243,1347,cs),
(345,1347,o),
(424,1302,o),
(444,1218,c),
(530,1218,l),
(517,1372,o),
(416,1454,o),
(250,1454,cs),
(79,1454,o)
);
}
);
};
layerId = "9FF46155-5700-4CC7-A83F-22EBDC7BC473";
shapes = (
{
ref = idotless;
},
{
pos = (-66,0);
ref = breveinvertedcomb;
}
);
width = 503;
}
);
unicode = 523;
},
{
glyphname = imacron;
lastChange = "2023-07-28 09:19:43 +0000";
layers = (
{
background = {
anchors = (
{
name = ogonek;
pos = (453,10);
},
{
name = top;
pos = (252,1026);
}
);
shapes = (
{
closed = 1;
nodes = (
(292,-5,o),
(434,-5,cs),
(481,-5,o),
(550,10,o),
(600,30,c),
(580,141,l),
(545,128,o),
(487,118,o),
(457,118,cs),
(389,118,o),
(332,143,o),
(332,283,c),
(332,1026,l),
(167,1026,l),
(167,278,ls),
(167,67,o)
);
},
{
closed = 1;
nodes = (
(538,1183,l),
(538,1317,l),
(-34,1317,l),
(-34,1183,l)
);
}
);
};
layerId = "9FF46155-5700-4CC7-A83F-22EBDC7BC473";
shapes = (
{
ref = idotless;
},
{
pos = (-113,0);
ref = macroncomb;
}
);
width = 503;
}
);
unicode = 299;
},
{
glyphname = iogonek;
lastChange = "2023-07-28 09:19:43 +0000";
layers = (
{
background = {
shapes = (
{
closed = 1;
nodes = (
(167,262,ls),
(167,-19,o),
(393,-69,o),
(625,26,c),
(602,145,l),
(466,96,o),
(331,74,o),
(331,267,cs),
(331,1026,l),
(167,1026,l)
);
},
{
closed = 1;
nodes = (
(144,1411,o),
(144,1345,cs),
(144,1279,o),
(197,1245,o),
(251,1245,cs),
(305,1245,o),
(359,1278,o),
(359,1344,cs),
(359,1410,o),
(306,1444,o),
(252,1444,cs),
(198,1444,o)
);
},
{
closed = 1;
nodes = (
(176,-390,o),
(270,-390,cs),
(334,-390,o),
(401,-380,o),
(447,-361,c),
(447,-250,l),
(401,-268,o),
(357,-281,o),
(293,-281,cs),
(242,-281,o),
(193,-250,o),
(193,-199,cs),
(193,-183,o),
(198,-167,o),
(208,-151,cs),
(250,-86,o),
(327,-42,o),
(396,0,c),
(267,12,l),
(213,-14,o),
(159,-49,o),
(119,-89,cs),
(86,-122,o),
(52,-167,o),
(52,-225,cs),
(52,-252,o),
(58,-276,o),
(69,-296,cs),
(103,-357,o)
);
}
);
};
layerId = "9FF46155-5700-4CC7-A83F-22EBDC7BC473";
shapes = (
{
ref = idotless;
},
{
pos = (-12,0);
ref = dotaccentcomb;
},
{
pos = (122,0);
ref = ogonekcomb;
}
);
width = 503;
}
);
unicode = 303;
},
{
glyphname = itilde;
lastChange = "2023-07-28 09:19:43 +0000";
layers = (
{
background = {
anchors = (
{
name = ogonek;
pos = (453,10);
},
{
name = top;
pos = (252,1026);
}
);
shapes = (
{
closed = 1;
nodes = (
(292,-5,o),
(434,-5,cs),
(481,-5,o),
(550,10,o),
(600,30,c),
(580,141,l),
(545,128,o),
(487,118,o),
(457,118,cs),
(389,118,o),
(332,143,o),
(332,283,c),
(332,1026,l),
(167,1026,l),
(167,278,ls),
(167,67,o)
);
},
{
closed = 1;
nodes = (
(-60,1319,o),
(-70,1203,c),
(35,1203,l),
(42,1260,o),
(72,1288,o),
(126,1288,cs),
(221,1288,o),
(283,1220,o),
(379,1220,cs),
(503,1220,o),
(561,1322,o),
(574,1435,c),
(466,1435,l),
(459,1384,o),
(432,1345,o),
(379,1345,cs),
(360,1345,o),
(340,1349,o),
(320,1356,cs),
(262,1377,o),
(205,1413,o),
(129,1413,cs),
(5,1413,o)
);
}
);
};
layerId = "9FF46155-5700-4CC7-A83F-22EBDC7BC473";
shapes = (
{
ref = idotless;
},
{
pos = (-84,0);
ref = tildecomb;
}
);
width = 503;
}
);
unicode = 297;
},
{
glyphname = ij;
lastChange = "2023-07-28 09:19:44 +0000";
layers = (
{
background = {
shapes = (
{
closed = 1;
nodes = (
(167,262,ls),
(167,-19,o),
(393,-69,o),
(625,26,c),
(602,145,l),
(466,96,o),
(331,74,o),
(331,267,cs),
(331,1026,l),
(167,1026,l)
);
},
{
closed = 1;
nodes = (
(144,1411,o),
(144,1345,cs),
(144,1279,o),
(197,1245,o),
(251,1245,cs),
(305,1245,o),
(359,1278,o),
(359,1344,cs),
(359,1410,o),
(306,1444,o),
(252,1444,cs),
(198,1444,o)
);
},
{
closed = 1;
nodes = (
(810,29,ls),
(810,-340,o),
(640,-367,o),
(460,-307,c),
(441,-435,l),
(729,-523,o),
(974,-416,o),
(974,35,cs),
(974,1026,l),
(810,1026,l)
);
},
{
closed = 1;
nodes = (
(786,1411,o),
(786,1345,cs),
(786,1279,o),
(839,1245,o),
(893,1245,cs),
(947,1245,o),
(1001,1278,o),
(1001,1344,cs),
(1001,1410,o),
(948,1444,o),
(894,1444,cs),
(840,1444,o)
);
}
);
};
layerId = "9FF46155-5700-4CC7-A83F-22EBDC7BC473";
shapes = (
{
ref = i;
},
{
pos = (503,0);
ref = j;
}
);
width = 1006;
}
);
unicode = 307;
},
{
glyphname = j;
lastChange = "2023-07-28 09:19:43 +0000";
layers = (
{
background = {
shapes = (
{
closed = 1;
nodes = (
(207,29,ls),
(207,-340,o),
(37,-367,o),
(-143,-307,c),
(-162,-435,l),
(126,-523,o),
(371,-416,o),
(371,35,cs),
(371,1026,l),
(207,1026,l)
);
},
{
closed = 1;
nodes = (
(183,1411,o),
(183,1345,cs),
(183,1279,o),
(236,1245,o),
(290,1245,cs),
(344,1245,o),
(398,1278,o),
(398,1344,cs),
(398,1410,o),
(345,1444,o),
(291,1444,cs),
(237,1444,o)
);
}
);
};
layerId = "9FF46155-5700-4CC7-A83F-22EBDC7BC473";
shapes = (
{
ref = jdotless;
},
{
pos = (-12,0);
ref = dotaccentcomb;
}
);
width = 503;
}
);
unicode = 106;
},
{
glyphname = jdotless;
lastChange = "2023-07-28 09:10:20 +0000";
layers = (
{
anchors = (
{
name = top;
pos = (252,1026);
}
);
background = {
anchors = (
{
name = top;
pos = (252,1026);
}
);
shapes = (
{
closed = 1;
nodes = (
(-23,-429,o),
(21,-429,cs),
(67,-429,o),
(106,-422,o),
(140,-407,cs),
(296,-339,o),
(340,-150,o),
(340,73,cs),
(340,1026,l),
(175,1026,l),
(175,31,ls),
(175,-146,o),
(138,-283,o),
(-18,-283,cs),
(-48,-283,o),
(-72,-278,o),
(-102,-273,c),
(-101,-416,l),
(-63,-425,o)
);
}
);
};
layerId = "9FF46155-5700-4CC7-A83F-22EBDC7BC473";
shapes = (
{
closed = 1;
nodes = (
(-23,-429,o),
(21,-429,cs),
(67,-429,o),
(106,-422,o),
(140,-407,cs),
(296,-339,o),
(340,-150,o),
(340,73,cs),
(340,1026,l),
(175,1026,l),
(175,31,ls),
(175,-146,o),
(138,-283,o),
(-18,-283,cs),
(-48,-283,o),
(-72,-278,o),
(-102,-273,c),
(-101,-416,l),
(-63,-425,o)
);
}
);
width = 503;
}
);
unicode = 567;
},
{
glyphname = jcircumflex;
lastChange = "2023-07-28 09:19:43 +0000";
layers = (
{
background = {
anchors = (
{
name = top;
pos = (252,1026);
}
);
shapes = (
{
closed = 1;
nodes = (
(76,1173,l),
(254,1389,l),
(432,1173,l),
(564,1173,l),
(335,1497,l),
(178,1497,l),
(-50,1173,l)
);
},
{
closed = 1;
nodes = (
(-23,-429,o),
(21,-429,cs),
(67,-429,o),
(106,-422,o),
(140,-407,cs),
(296,-339,o),
(340,-150,o),
(340,73,cs),
(340,1026,l),
(175,1026,l),
(175,31,ls),
(175,-146,o),
(138,-283,o),
(-18,-283,cs),
(-48,-283,o),
(-72,-278,o),
(-102,-273,c),
(-101,-416,l),
(-63,-425,o)
);
}
);
};
layerId = "9FF46155-5700-4CC7-A83F-22EBDC7BC473";
shapes = (
{
ref = jdotless;
},
{
pos = (-90,0);
ref = circumflexcomb;
}
);
width = 503;
}
);
unicode = 309;
},
{
glyphname = k;
lastChange = "2023-07-28 09:07:07 +0000";
layers = (
{
anchors = (
{
name = bottom;
pos = (587,0);
}
);
background = {
anchors = (
{
name = bottom;
pos = (587,0);
}
);
shapes = (
{
closed = 1;
nodes = (
(152,60,l),
(152,-26,o),
(243,-39,o),
(297,27,c),
(602,458,l),
(763,189,ls),
(843,55,o),
(960,-16,o),
(1064,-35,c),
(1153,89,l),
(1050,88,o),
(962,158,o),
(891,270,cs),
(694,580,l),
(981,976,l),
(832,1026,l),
(316,292,l),
(316,1526,l),
(152,1496,l)
);
}
);
};
layerId = "9FF46155-5700-4CC7-A83F-22EBDC7BC473";
shapes = (
{
closed = 1;
nodes = (
(152,60,l),
(152,-26,o),
(243,-39,o),
(297,27,c),
(602,458,l),
(763,189,ls),
(843,55,o),
(960,-16,o),
(1064,-35,c),
(1153,89,l),
(1050,88,o),
(962,158,o),
(891,270,cs),
(694,580,l),
(981,976,l),
(832,1026,l),
(316,292,l),
(316,1526,l),
(152,1496,l)
);
}
);
width = 1107;
}
);
unicode = 107;
},
{
glyphname = kcommaaccent;
lastChange = "2023-07-28 09:19:43 +0000";
layers = (
{
background = {
anchors = (
{
name = bottom;
pos = (587,0);
}
);
shapes = (
{
closed = 1;
nodes = (
(152,60,l),
(152,-26,o),
(243,-39,o),
(297,27,c),
(602,458,l),
(763,189,ls),
(843,55,o),
(960,-16,o),
(1064,-35,c),
(1153,89,l),
(1050,88,o),
(962,158,o),
(891,270,cs),
(694,580,l),
(981,976,l),
(832,1026,l),
(316,292,l),
(316,1526,l),
(152,1496,l)
);
},
{
closed = 1;
nodes = (
(571,-625,l),
(734,-162,l),
(547,-162,l),
(440,-625,l)
);
}
);
};
layerId = "9FF46155-5700-4CC7-A83F-22EBDC7BC473";
shapes = (
{
ref = k;
},
{
pos = (362,0);
ref = commaaccentcomb;
}
);
width = 1107;
}
);
unicode = 311;
},
{
glyphname = kgreenlandic;
lastChange = "2023-07-28 09:07:07 +0000";
layers = (
{
background = {
shapes = (
{
closed = 1;
nodes = (
(343,0,l),
(343,471,l),
(853,0,l),
(1072,0,l),
(881,174,o),
(695,338,o),
(504,512,c),
(1034,1026,l),
(809,1026,l),
(343,557,l),
(343,1026,l),
(178,1026,l),
(178,0,l)
);
}
);
};
layerId = "9FF46155-5700-4CC7-A83F-22EBDC7BC473";
shapes = (
{
closed = 1;
nodes = (
(343,0,l),
(343,471,l),
(853,0,l),
(1072,0,l),
(881,174,o),
(695,338,o),
(504,512,c),
(1034,1026,l),
(809,1026,l),
(343,557,l),
(343,1026,l),
(178,1026,l),
(178,0,l)
);
}
);
width = 1082;
}
);
unicode = 312;
},
{
glyphname = l;
lastChange = "2023-07-28 09:07:07 +0000";
layers = (
{
anchors = (
{
name = bottom;
pos = (414,0);
},
{
name = top;
pos = (410,1456);
},
{
name = topright;
pos = (579,960);
}
);
background = {
anchors = (
{
name = bottom;
pos = (414,0);
},
{
name = top;
pos = (410,1456);
},
{
name = topright;
pos = (579,960);
}
);
shapes = (
{
closed = 1;
nodes = (
(168,300,ls),
(168,-9,o),
(450,-82,o),
(720,35,c),
(695,152,l),
(519,77,o),
(332,84,o),
(332,292,cs),
(332,1526,l),
(168,1496,l)
);
}
);
};
layerId = "9FF46155-5700-4CC7-A83F-22EBDC7BC473";
shapes = (
{
closed = 1;
nodes = (
(168,300,ls),
(168,-9,o),
(450,-82,o),
(720,35,c),
(695,152,l),
(519,77,o),
(332,84,o),
(332,292,cs),
(332,1526,l),
(168,1496,l)
);
}
);
width = 686;
}
);
unicode = 108;
},
{
glyphname = ldot;
lastChange = "2023-07-28 09:19:43 +0000";
layers = (
{
background = {
anchors = (
{
name = bottom;
pos = (414,0);
},
{
name = top;
pos = (410,1456);
},
{
name = topright;
pos = (579,960);
}
);
shapes = (
{
closed = 1;
nodes = (
(168,300,ls),
(168,-9,o),
(450,-82,o),
(720,35,c),
(695,152,l),
(519,77,o),
(332,84,o),
(332,292,cs),
(332,1526,l),
(168,1496,l)
);
},
{
closed = 1;
nodes = (
(735,1132,l),
(735,1342,l),
(518,1342,l),
(518,1132,l)
);
}
);
};
layerId = "9FF46155-5700-4CC7-A83F-22EBDC7BC473";
shapes = (
{
ref = l;
},
{
pos = (442,619);
ref = periodcentered;
}
);
width = 686;
}
);
unicode = 320;
},
{
glyphname = lslash;
lastChange = "2023-07-28 09:07:07 +0000";
layers = (
{
background = {
shapes = (
{
closed = 1;
nodes = (
(333,0,l),
(333,788,l),
(504,890,l),
(504,1027,l),
(333,925,l),
(333,1492,l),
(168,1492,l),
(168,826,l),
(0,726,l),
(0,589,l),
(168,689,l),
(168,0,l)
);
}
);
};
layerId = "9FF46155-5700-4CC7-A83F-22EBDC7BC473";
shapes = (
{
closed = 1;
nodes = (
(333,0,l),
(333,788,l),
(504,890,l),
(504,1027,l),
(333,925,l),
(333,1492,l),
(168,1492,l),
(168,826,l),
(0,726,l),
(0,589,l),
(168,689,l),
(168,0,l)
);
}
);
width = 503;
}
);
unicode = 322;
},
{
glyphname = m;
lastChange = "2023-07-28 09:07:07 +0000";
layers = (
{
background = {
shapes = (
{
closed = 1;
nodes = (
(1096,965,o),
(1040,842,c),
(1017,797,l),
(1058,532,l),
(1058,795,o),
(1241,907,o),
(1393,907,cs),
(1547,907,o),
(1609,804,o),
(1609,562,c),
(1607,284,l),
(1605,48,o),
(1654,-51,o),
(1872,-19,c),
(1888,119,l),
(1764,95,o),
(1771,167,o),
(1772,320,c),
(1774,565,l),
(1777,903,o),
(1660,1048,o),
(1428,1048,cs),
(1261,1048,o)
);
},
{
closed = 1;
nodes = (
(130,897,o),
(179,815,o),
(179,699,cs),
(179,0,l),
(343,0,l),
(343,652,l),
(331,812,l),
(331,896,o),
(292,960,o),
(249,1026,c),
(84,974,l)
);
},
{
closed = 1;
nodes = (
(380,965,o),
(324,842,c),
(342,532,l),
(342,795,o),
(525,907,o),
(677,907,cs),
(831,907,o),
(893,804,o),
(893,562,c),
(891,0,l),
(1056,0,l),
(1058,565,l),
(1061,903,o),
(944,1048,o),
(712,1048,cs),
(545,1048,o)
);
}
);
};
layerId = "9FF46155-5700-4CC7-A83F-22EBDC7BC473";
shapes = (
{
closed = 1;
nodes = (
(1096,965,o),
(1040,842,c),
(1017,797,l),
(1058,532,l),
(1058,795,o),
(1241,907,o),
(1393,907,cs),
(1547,907,o),
(1609,804,o),
(1609,562,c),
(1607,284,l),
(1605,48,o),
(1654,-51,o),
(1872,-19,c),
(1888,119,l),
(1764,95,o),
(1771,167,o),
(1772,320,c),
(1774,565,l),
(1777,903,o),
(1660,1048,o),
(1428,1048,cs),
(1261,1048,o)
);
},
{
closed = 1;
nodes = (
(130,897,o),
(179,815,o),
(179,699,cs),
(179,0,l),
(343,0,l),
(343,652,l),
(331,812,l),
(331,896,o),
(292,960,o),
(249,1026,c),
(84,974,l)
);
},
{
closed = 1;
nodes = (
(380,965,o),
(324,842,c),
(342,532,l),
(342,795,o),
(525,907,o),
(677,907,cs),
(831,907,o),
(893,804,o),
(893,562,c),
(891,0,l),
(1056,0,l),
(1058,565,l),
(1061,903,o),
(944,1048,o),
(712,1048,cs),
(545,1048,o)
);
}
);
width = 1964;
}
);
unicode = 109;
},
{
glyphname = n;
lastChange = "2023-07-28 09:07:07 +0000";
layers = (
{
anchors = (
{
name = bottom;
pos = (630,0);
},
{
name = top;
pos = (677,1026);
}
);
background = {
anchors = (
{
name = bottom;
pos = (630,0);
},
{
name = top;
pos = (677,1026);
}
);
shapes = (
{
closed = 1;
nodes = (
(380,965,o),
(324,842,c),
(342,532,ls),
(342,795,o),
(525,907,o),
(677,907,cs),
(831,907,o),
(893,804,o),
(893,562,c),
(891,284,ls),
(889,48,o),
(938,-51,o),
(1156,-19,c),
(1172,119,l),
(1048,95,o),
(1055,167,o),
(1056,320,c),
(1058,565,ls),
(1061,903,o),
(944,1048,o),
(712,1048,cs),
(545,1048,o)
);
},
{
closed = 1;
nodes = (
(130,897,o),
(179,815,o),
(179,699,cs),
(179,0,l),
(343,0,l),
(343,652,l),
(331,812,l),
(331,896,o),
(292,960,o),
(249,1026,c),
(84,974,l)
);
}
);
};
layerId = "9FF46155-5700-4CC7-A83F-22EBDC7BC473";
shapes = (
{
closed = 1;
nodes = (
(380,965,o),
(324,842,c),
(342,532,ls),
(342,795,o),
(525,907,o),
(677,907,cs),
(831,907,o),
(893,804,o),
(893,562,c),
(891,284,ls),
(889,48,o),
(938,-51,o),
(1156,-19,c),
(1172,119,l),
(1048,95,o),
(1055,167,o),
(1056,320,c),
(1058,565,ls),
(1061,903,o),
(944,1048,o),
(712,1048,cs),
(545,1048,o)
);
},
{
closed = 1;
nodes = (
(130,897,o),
(179,815,o),
(179,699,cs),
(179,0,l),
(343,0,l),
(343,652,l),
(331,812,l),
(331,896,o),
(292,960,o),
(249,1026,c),
(84,974,l)
);
}
);
width = 1248;
}
);
unicode = 110;
},
{
glyphname = nacute;
lastChange = "2023-07-28 09:19:43 +0000";
layers = (
{
background = {
anchors = (
{
name = bottom;
pos = (630,0);
},
{
name = top;
pos = (677,1026);
}
);
shapes = (
{
closed = 1;
nodes = (
(738,1173,l),
(1046,1493,l),
(834,1493,l),
(608,1173,l)
);
},
{
closed = 1;
nodes = (
(380,965,o),
(324,842,c),
(342,532,ls),
(342,795,o),
(525,907,o),
(677,907,cs),
(831,907,o),
(893,804,o),
(893,562,c),
(891,284,ls),
(889,48,o),
(938,-51,o),
(1156,-19,c),
(1172,119,l),
(1048,95,o),
(1055,167,o),
(1056,320,c),
(1058,565,ls),
(1061,903,o),
(944,1048,o),
(712,1048,cs),
(545,1048,o)
);
},
{
closed = 1;
nodes = (
(130,897,o),
(179,815,o),
(179,699,cs),
(179,0,l),
(343,0,l),
(343,652,l),
(331,812,l),
(331,896,o),
(292,960,o),
(249,1026,c),
(84,974,l)
);
}
);
};
layerId = "9FF46155-5700-4CC7-A83F-22EBDC7BC473";
shapes = (
{
ref = n;
},
{
pos = (421,0);
ref = acutecomb;
}
);
width = 1248;
}
);
unicode = 324;
},
{
glyphname = ntilde;
lastChange = "2023-07-28 09:19:43 +0000";
layers = (
{
background = {
anchors = (
{
name = bottom;
pos = (630,0);
},
{
name = top;
pos = (677,1026);
}
);
shapes = (
{
closed = 1;
nodes = (
(380,965,o),
(324,842,c),
(342,532,ls),
(342,795,o),
(525,907,o),
(677,907,cs),
(831,907,o),
(893,804,o),
(893,562,c),
(891,284,ls),
(889,48,o),
(938,-51,o),
(1156,-19,c),
(1172,119,l),
(1048,95,o),
(1055,167,o),
(1056,320,c),
(1058,565,ls),
(1061,903,o),
(944,1048,o),
(712,1048,cs),
(545,1048,o)
);
},
{
closed = 1;
nodes = (
(130,897,o),
(179,815,o),
(179,699,cs),
(179,0,l),
(343,0,l),
(343,652,l),
(331,812,l),
(331,896,o),
(292,960,o),
(249,1026,c),
(84,974,l)
);
},
{
closed = 1;
nodes = (
(365,1319,o),
(355,1203,c),
(460,1203,l),
(467,1260,o),
(497,1288,o),
(551,1288,cs),
(646,1288,o),
(708,1220,o),
(804,1220,cs),
(928,1220,o),
(986,1322,o),
(999,1435,c),
(891,1435,l),
(884,1384,o),
(857,1345,o),
(804,1345,cs),
(785,1345,o),
(765,1349,o),
(745,1356,cs),
(687,1377,o),
(630,1413,o),
(554,1413,cs),
(430,1413,o)
);
}
);
};
layerId = "9FF46155-5700-4CC7-A83F-22EBDC7BC473";
shapes = (
{
ref = n;
},
{
pos = (341,0);
ref = tildecomb;
}
);
width = 1248;
}
);
unicode = 241;
},
{
glyphname = o;
lastChange = "2023-07-28 09:07:07 +0000";
layers = (
{
anchors = (
{
name = top;
pos = (621,1026);
}
);
background = {
anchors = (
{
name = top;
pos = (621,1026);
}
);
shapes = (
{
closed = 1;
nodes = (
(92,833,o),
(92,511,cs),
(92,191,o),
(304,-22,o),
(622,-22,cs),
(934,-22,o),
(1142,192,o),
(1142,513,cs),
(1142,834,o),
(934,1048,o),
(621,1048,cs),
(304,1048,o)
);
},
{
closed = 1;
nodes = (
(972,749,o),
(972,511,cs),
(972,274,o),
(832,116,o),
(622,116,cs),
(406,116,o),
(262,273,o),
(262,509,cs),
(262,748,o),
(406,907,o),
(621,907,cs),
(832,907,o)
);
}
);
};
layerId = "9FF46155-5700-4CC7-A83F-22EBDC7BC473";
shapes = (
{
closed = 1;
nodes = (
(92,833,o),
(92,511,cs),
(92,191,o),
(304,-22,o),
(622,-22,cs),
(934,-22,o),
(1142,192,o),
(1142,513,cs),
(1142,834,o),
(934,1048,o),
(621,1048,cs),
(304,1048,o)
);
},
{
closed = 1;
nodes = (
(972,749,o),
(972,511,cs),
(972,274,o),
(832,116,o),
(622,116,cs),
(406,116,o),
(262,273,o),
(262,509,cs),
(262,748,o),
(406,907,o),
(621,907,cs),
(832,907,o)
);
}
);
width = 1230;
}
);
unicode = 111;
},
{
glyphname = oacute;
lastChange = "2023-07-28 09:19:43 +0000";
layers = (
{
background = {
anchors = (
{
name = top;
pos = (621,1026);
}
);
shapes = (
{
closed = 1;
nodes = (
(689,1173,l),
(997,1493,l),
(785,1493,l),
(559,1173,l)
);
},
{
closed = 1;
nodes = (
(92,833,o),
(92,511,cs),
(92,191,o),
(304,-22,o),
(622,-22,cs),
(934,-22,o),
(1142,192,o),
(1142,513,cs),
(1142,834,o),
(934,1048,o),
(621,1048,cs),
(304,1048,o)
);
},
{
closed = 1;
nodes = (
(972,749,o),
(972,511,cs),
(972,274,o),
(832,116,o),
(622,116,cs),
(406,116,o),
(262,273,o),
(262,509,cs),
(262,748,o),
(406,907,o),
(621,907,cs),
(832,907,o)
);
}
);
};
layerId = "9FF46155-5700-4CC7-A83F-22EBDC7BC473";
shapes = (
{
ref = o;
},
{
pos = (365,0);
ref = acutecomb;
}
);
width = 1230;
}
);
unicode = 243;
},
{
glyphname = ocircumflex;
lastChange = "2023-07-28 09:19:43 +0000";
layers = (
{
background = {
anchors = (
{
name = top;
pos = (621,1026);
}
);
shapes = (
{
closed = 1;
nodes = (
(443,1173,l),
(621,1389,l),
(799,1173,l),
(931,1173,l),
(702,1497,l),
(545,1497,l),
(317,1173,l)
);
},
{
closed = 1;
nodes = (
(92,833,o),
(92,511,cs),
(92,191,o),
(304,-22,o),
(622,-22,cs),
(934,-22,o),
(1142,192,o),
(1142,513,cs),
(1142,834,o),
(934,1048,o),
(621,1048,cs),
(304,1048,o)
);
},
{
closed = 1;
nodes = (
(972,749,o),
(972,511,cs),
(972,274,o),
(832,116,o),
(622,116,cs),
(406,116,o),
(262,273,o),
(262,509,cs),
(262,748,o),
(406,907,o),
(621,907,cs),
(832,907,o)
);
}
);
};
layerId = "9FF46155-5700-4CC7-A83F-22EBDC7BC473";
shapes = (
{
ref = o;
},
{
pos = (279,0);
ref = circumflexcomb;
}
);
width = 1230;
}
);
unicode = 244;
},
{
glyphname = odblgrave;
lastChange = "2023-07-28 09:19:43 +0000";
layers = (
{
background = {
anchors = (
{
name = top;
pos = (621,1026);
}
);
shapes = (
{
closed = 1;
nodes = (
(92,833,o),
(92,511,cs),
(92,191,o),
(304,-22,o),
(622,-22,cs),
(934,-22,o),
(1142,192,o),
(1142,513,cs),
(1142,834,o),
(934,1048,o),
(621,1048,cs),
(304,1048,o)
);
},
{
closed = 1;
nodes = (
(972,749,o),
(972,511,cs),
(972,274,o),
(832,116,o),
(622,116,cs),
(406,116,o),
(262,273,o),
(262,509,cs),
(262,748,o),
(406,907,o),
(621,907,cs),
(832,907,o)
);
},
{
closed = 1;
nodes = (
(553,1174,l),
(333,1487,l),
(157,1487,l),
(433,1174,l)
);
},
{
closed = 1;
nodes = (
(820,1174,l),
(603,1487,l),
(427,1487,l),
(702,1174,l)
);
}
);
};
layerId = "9FF46155-5700-4CC7-A83F-22EBDC7BC473";
shapes = (
{
ref = o;
},
{
pos = (-5,0);
ref = dblgravecomb;
}
);
width = 1230;
}
);
unicode = 525;
},
{
glyphname = odieresis;
lastChange = "2023-07-28 09:19:43 +0000";
layers = (
{
background = {
anchors = (
{
name = top;
pos = (621,1026);
}
);
shapes = (
{
closed = 1;
nodes = (
(540,1173,l),
(540,1336,l),
(376,1336,l),
(376,1173,l)
);
},
{
closed = 1;
nodes = (
(872,1173,l),
(872,1336,l),
(708,1336,l),
(708,1173,l)
);
},
{
closed = 1;
nodes = (
(92,833,o),
(92,511,cs),
(92,191,o),
(304,-22,o),
(622,-22,cs),
(934,-22,o),
(1142,192,o),
(1142,513,cs),
(1142,834,o),
(934,1048,o),
(621,1048,cs),
(304,1048,o)
);
},
{
closed = 1;
nodes = (
(972,749,o),
(972,511,cs),
(972,274,o),
(832,116,o),
(622,116,cs),
(406,116,o),
(262,273,o),
(262,509,cs),
(262,748,o),
(406,907,o),
(621,907,cs),
(832,907,o)
);
}
);
};
layerId = "9FF46155-5700-4CC7-A83F-22EBDC7BC473";
shapes = (
{
ref = o;
},
{
pos = (252,0);
ref = dieresiscomb;
}
);
width = 1230;
}
);
unicode = 246;
},
{
glyphname = ograve;
lastChange = "2023-07-28 09:19:43 +0000";
layers = (
{
background = {
anchors = (
{
name = top;
pos = (621,1026);
}
);
shapes = (
{
closed = 1;
nodes = (
(689,1173,l),
(442,1493,l),
(228,1493,l),
(560,1173,l)
);
},
{
closed = 1;
nodes = (
(92,833,o),
(92,511,cs),
(92,191,o),
(304,-22,o),
(622,-22,cs),
(934,-22,o),
(1142,192,o),
(1142,513,cs),
(1142,834,o),
(934,1048,o),
(621,1048,cs),
(304,1048,o)
);
},
{
closed = 1;
nodes = (
(972,749,o),
(972,511,cs),
(972,274,o),
(832,116,o),
(622,116,cs),
(406,116,o),
(262,273,o),
(262,509,cs),
(262,748,o),
(406,907,o),
(621,907,cs),
(832,907,o)
);
}
);
};
layerId = "9FF46155-5700-4CC7-A83F-22EBDC7BC473";
shapes = (
{
ref = o;
},
{
pos = (253,0);
ref = gravecomb;
}
);
width = 1230;
}
);
unicode = 242;
},
{
glyphname = oinvertedbreve;
lastChange = "2023-07-28 09:19:43 +0000";
layers = (
{
background = {
anchors = (
{
name = top;
pos = (621,1026);
}
);
shapes = (
{
closed = 1;
nodes = (
(92,833,o),
(92,511,cs),
(92,191,o),
(304,-22,o),
(622,-22,cs),
(934,-22,o),
(1142,192,o),
(1142,513,cs),
(1142,834,o),
(934,1048,o),
(621,1048,cs),
(304,1048,o)
);
},
{
closed = 1;
nodes = (
(972,749,o),
(972,511,cs),
(972,274,o),
(832,116,o),
(622,116,cs),
(406,116,o),
(262,273,o),
(262,509,cs),
(262,748,o),
(406,907,o),
(621,907,cs),
(832,907,o)
);
},
{
closed = 1;
nodes = (
(348,1378,o),
(335,1218,c),
(422,1218,l),
(437,1306,o),
(510,1347,o),
(612,1347,cs),
(714,1347,o),
(793,1302,o),
(813,1218,c),
(899,1218,l),
(886,1372,o),
(785,1454,o),
(619,1454,cs),
(448,1454,o)
);
}
);
};
layerId = "9FF46155-5700-4CC7-A83F-22EBDC7BC473";
shapes = (
{
ref = o;
},
{
pos = (303,0);
ref = breveinvertedcomb;
}
);
width = 1230;
}
);
unicode = 527;
},
{
glyphname = oslash;
lastChange = "2023-07-28 09:07:23 +0000";
layers = (
{
anchors = (
{
name = top;
pos = (619,0);
}
);
background = {
anchors = (
{
name = top;
pos = (619,0);
}
);
shapes = (
{
closed = 1;
nodes = (
(987,1245,l),
(884,1277,l),
(247,-229,l),
(346,-261,l)
);
},
{
closed = 1;
nodes = (
(92,833,o),
(92,511,cs),
(92,191,o),
(304,-22,o),
(622,-22,cs),
(934,-22,o),
(1142,192,o),
(1142,513,cs),
(1142,834,o),
(934,1048,o),
(621,1048,cs),
(304,1048,o)
);
},
{
closed = 1;
nodes = (
(972,749,o),
(972,511,cs),
(972,274,o),
(832,116,o),
(622,116,cs),
(406,116,o),
(262,273,o),
(262,509,cs),
(262,748,o),
(406,907,o),
(621,907,cs),
(832,907,o)
);
}
);
};
layerId = "9FF46155-5700-4CC7-A83F-22EBDC7BC473";
shapes = (
{
closed = 1;
nodes = (
(987,1245,l),
(884,1277,l),
(247,-229,l),
(346,-261,l)
);
},
{
ref = o;
}
);
width = 1238;
}
);
unicode = 248;
},
{
glyphname = otilde;
lastChange = "2023-07-28 09:19:43 +0000";
layers = (
{
background = {
anchors = (
{
name = top;
pos = (621,1026);
}
);
shapes = (
{
closed = 1;
nodes = (
(92,833,o),
(92,511,cs),
(92,191,o),
(304,-22,o),
(622,-22,cs),
(934,-22,o),
(1142,192,o),
(1142,513,cs),
(1142,834,o),
(934,1048,o),
(621,1048,cs),
(304,1048,o)
);
},
{
closed = 1;
nodes = (
(972,749,o),
(972,511,cs),
(972,274,o),
(832,116,o),
(622,116,cs),
(406,116,o),
(262,273,o),
(262,509,cs),
(262,748,o),
(406,907,o),
(621,907,cs),
(832,907,o)
);
},
{
closed = 1;
nodes = (
(309,1319,o),
(299,1203,c),
(404,1203,l),
(411,1260,o),
(441,1288,o),
(495,1288,cs),
(590,1288,o),
(652,1220,o),
(748,1220,cs),
(872,1220,o),
(930,1322,o),
(943,1435,c),
(835,1435,l),
(828,1384,o),
(801,1345,o),
(748,1345,cs),
(729,1345,o),
(709,1349,o),
(689,1356,cs),
(631,1377,o),
(574,1413,o),
(498,1413,cs),
(374,1413,o)
);
}
);
};
layerId = "9FF46155-5700-4CC7-A83F-22EBDC7BC473";
shapes = (
{
ref = o;
},
{
pos = (285,0);
ref = tildecomb;
}
);
width = 1230;
}
);
unicode = 245;
},
{
glyphname = oe;
lastChange = "2023-07-28 09:07:07 +0000";
layers = (
{
anchors = (
{
name = top;
pos = (985,0);
}
);
background = {
anchors = (
{
name = top;
pos = (985,0);
}
);
shapes = (
{
closed = 1;
nodes = (
(354,-28,o),
(610,-28,cs),
(821,-28,o),
(961,57,o),
(1022,209,c),
(1082,62,o),
(1213,-28,o),
(1410,-28,cs),
(1616,-28,o),
(1757,63,o),
(1836,206,c),
(1748,292,l),
(1685,192,o),
(1574,109,o),
(1421,109,cs),
(1371,109,o),
(1328,118,o),
(1290,135,cs),
(1181,185,o),
(1117,296,o),
(1113,450,c),
(1113,470,l),
(1868,472,l),
(1868,525,ls),
(1868,835,o),
(1726,1053,o),
(1417,1053,cs),
(1216,1053,o),
(1095,963,o),
(1027,821,c),
(952,964,o),
(830,1053,o),
(620,1053,cs),
(536,1053,o),
(462,1039,o),
(396,1010,cs),
(217,932,o),
(92,761,o),
(92,509,cs),
(92,435,o),
(104,365,o),
(127,300,cs),
(195,110,o)
);
},
{
closed = 1;
nodes = (
(845,109,o),
(620,109,cs),
(559,109,o),
(506,120,o),
(462,141,cs),
(338,200,o),
(265,327,o),
(265,507,cs),
(265,562,o),
(273,614,o),
(288,663,cs),
(330,802,o),
(433,917,o),
(612,917,cs),
(846,917,o),
(945,745,o),
(945,511,cs),
(945,287,o)
);
},
{
closed = 1;
nodes = (
(1116,649,o),
(1125,688,o),
(1140,725,cs),
(1183,830,o),
(1277,917,o),
(1423,917,cs),
(1607,917,o),
(1695,793,o),
(1695,609,c),
(1113,609,l)
);
}
);
};
layerId = "9FF46155-5700-4CC7-A83F-22EBDC7BC473";
shapes = (
{
closed = 1;
nodes = (
(354,-28,o),
(610,-28,cs),
(821,-28,o),
(961,57,o),
(1022,209,c),
(1082,62,o),
(1213,-28,o),
(1410,-28,cs),
(1616,-28,o),
(1757,63,o),
(1836,206,c),
(1748,292,l),
(1685,192,o),
(1574,109,o),
(1421,109,cs),
(1371,109,o),
(1328,118,o),
(1290,135,cs),
(1181,185,o),
(1117,296,o),
(1113,450,c),
(1113,470,l),
(1868,472,l),
(1868,525,ls),
(1868,835,o),
(1726,1053,o),
(1417,1053,cs),
(1216,1053,o),
(1095,963,o),
(1027,821,c),
(952,964,o),
(830,1053,o),
(620,1053,cs),
(536,1053,o),
(462,1039,o),
(396,1010,cs),
(217,932,o),
(92,761,o),
(92,509,cs),
(92,435,o),
(104,365,o),
(127,300,cs),
(195,110,o)
);
},
{
closed = 1;
nodes = (
(845,109,o),
(620,109,cs),
(559,109,o),
(506,120,o),
(462,141,cs),
(338,200,o),
(265,327,o),
(265,507,cs),
(265,562,o),
(273,614,o),
(288,663,cs),
(330,802,o),
(433,917,o),
(612,917,cs),
(846,917,o),
(945,745,o),
(945,511,cs),
(945,287,o)
);
},
{
closed = 1;
nodes = (
(1116,649,o),
(1125,688,o),
(1140,725,cs),
(1183,830,o),
(1277,917,o),
(1423,917,cs),
(1607,917,o),
(1695,793,o),
(1695,609,c),
(1113,609,l)
);
}
);
width = 1970;
}
);
unicode = 339;
},
{
glyphname = p;
lastChange = "2023-07-28 09:07:07 +0000";
layers = (
{
background = {
shapes = (
{
closed = 1;
nodes = (
(390,971,o),
(317,840,c),
(309,919,o),
(273,988,o),
(221,1026,c),
(82,948,l),
(133,893,o),
(173,814,o),
(173,718,cs),
(173,-457,l),
(337,-439,l),
(337,95,l),
(413,21,o),
(553,-22,o),
(694,-22,cs),
(988,-22,o),
(1161,182,o),
(1161,527,cs),
(1161,854,o),
(991,1048,o),
(704,1048,cs),
(541,1048,o)
);
},
{
closed = 1;
nodes = (
(991,764,o),
(991,521,cs),
(991,266,o),
(872,116,o),
(670,116,cs),
(536,116,o),
(405,172,o),
(336,268,c),
(336,434,l),
(336,731,o),
(477,907,o),
(695,907,cs),
(881,907,o)
);
}
);
};
layerId = "9FF46155-5700-4CC7-A83F-22EBDC7BC473";
shapes = (
{
closed = 1;
nodes = (
(390,971,o),
(317,840,c),
(309,919,o),
(273,988,o),
(221,1026,c),
(82,948,l),
(133,893,o),
(173,814,o),
(173,718,cs),
(173,-457,l),
(337,-439,l),
(337,95,l),
(413,21,o),
(553,-22,o),
(694,-22,cs),
(988,-22,o),
(1161,182,o),
(1161,527,cs),
(1161,854,o),
(991,1048,o),
(704,1048,cs),
(541,1048,o)
);
},
{
closed = 1;
nodes = (
(991,764,o),
(991,521,cs),
(991,266,o),
(872,116,o),
(670,116,cs),
(536,116,o),
(405,172,o),
(336,268,c),
(336,434,l),
(336,731,o),
(477,907,o),
(695,907,cs),
(881,907,o)
);
}
);
width = 1253;
}
);
unicode = 112;
},
{
glyphname = thorn;
lastChange = "2023-07-28 09:07:07 +0000";
layers = (
{
background = {
shapes = (
{
closed = 1;
nodes = (
(323,-427,l),
(323,135,l),
(409,30,o),
(524,-23,o),
(668,-23,cs),
(747,-23,o),
(815,-8,o),
(874,22,cs),
(1037,106,o),
(1139,284,o),
(1139,527,cs),
(1139,598,o),
(1129,664,o),
(1110,728,cs),
(1054,916,o),
(912,1051,o),
(668,1051,cs),
(507,1051,o),
(399,982,o),
(325,882,c),
(325,1455,l),
(158,1455,l),
(158,-427,l)
);
},
{
closed = 1;
nodes = (
(870,109,o),
(644,109,cs),
(592,109,o),
(546,119,o),
(506,138,cs),
(389,195,o),
(323,321,o),
(323,494,cs),
(323,732,o),
(411,917,o),
(650,917,cs),
(875,917,o),
(963,745,o),
(963,521,cs),
(963,296,o)
);
}
);
};
layerId = "9FF46155-5700-4CC7-A83F-22EBDC7BC473";
shapes = (
{
closed = 1;
nodes = (
(323,-427,l),
(323,135,l),
(409,30,o),
(524,-23,o),
(668,-23,cs),
(747,-23,o),
(815,-8,o),
(874,22,cs),
(1037,106,o),
(1139,284,o),
(1139,527,cs),
(1139,598,o),
(1129,664,o),
(1110,728,cs),
(1054,916,o),
(912,1051,o),
(668,1051,cs),
(507,1051,o),
(399,982,o),
(325,882,c),
(325,1455,l),
(158,1455,l),
(158,-427,l)
);
},
{
closed = 1;
nodes = (
(870,109,o),
(644,109,cs),
(592,109,o),
(546,119,o),
(506,138,cs),
(389,195,o),
(323,321,o),
(323,494,cs),
(323,732,o),
(411,917,o),
(650,917,cs),
(875,917,o),
(963,745,o),
(963,521,cs),
(963,296,o)
);
}
);
width = 1239;
}
);
unicode = 254;
},
{
glyphname = q;
lastChange = "2023-07-28 09:07:07 +0000";
layers = (
{
background = {
shapes = (
{
closed = 1;
nodes = (
(92,815,o),
(92,506,cs),
(92,203,o),
(267,-22,o),
(571,-22,cs),
(713,-22,o),
(831,33,o),
(909,128,c),
(909,-426,l),
(1023,-539,l),
(1072,-515,o),
(1360,-363,o),
(1397,-343,c),
(1325,-221,l),
(1325,-221,o),
(1113,-335,o),
(1073,-355,c),
(1073,813,ls),
(1073,916,o),
(1086,992,o),
(1091,1026,c),
(924,1026,l),
(909,888,l),
(852,985,o),
(771,1048,o),
(583,1048,cs),
(273,1048,o)
);
},
{
closed = 1;
nodes = (
(909,759,o),
(909,543,c),
(909,302,l),
(858,212,o),
(722,116,o),
(588,116,cs),
(365,116,o),
(262,284,o),
(262,507,cs),
(262,736,o),
(360,907,o),
(589,907,cs),
(804,907,o)
);
}
);
};
layerId = "9FF46155-5700-4CC7-A83F-22EBDC7BC473";
shapes = (
{
closed = 1;
nodes = (
(92,815,o),
(92,506,cs),
(92,203,o),
(267,-22,o),
(571,-22,cs),
(713,-22,o),
(831,33,o),
(909,128,c),
(909,-426,l),
(1023,-539,l),
(1072,-515,o),
(1360,-363,o),
(1397,-343,c),
(1325,-221,l),
(1325,-221,o),
(1113,-335,o),
(1073,-355,c),
(1073,813,ls),
(1073,916,o),
(1086,992,o),
(1091,1026,c),
(924,1026,l),
(909,888,l),
(852,985,o),
(771,1048,o),
(583,1048,cs),
(273,1048,o)
);
},
{
closed = 1;
nodes = (
(909,759,o),
(909,543,c),
(909,302,l),
(858,212,o),
(722,116,o),
(588,116,cs),
(365,116,o),
(262,284,o),
(262,507,cs),
(262,736,o),
(360,907,o),
(589,907,cs),
(804,907,o)
);
}
);
width = 1241;
}
);
unicode = 113;
},
{
glyphname = r;
lastChange = "2023-07-28 09:07:07 +0000";
layers = (
{
anchors = (
{
name = bottom;
pos = (401,0);
},
{
name = top;
pos = (491,1026);
}
);
background = {
anchors = (
{
name = bottom;
pos = (401,0);
},
{
name = top;
pos = (491,1026);
}
);
shapes = (
{
closed = 1;
nodes = (
(385,960,o),
(332,851,c),
(185,779,l),
(349,568,l),
(349,803,o),
(473,907,o),
(619,907,cs),
(704,907,o),
(747,889,o),
(764,883,c),
(778,1028,l),
(742,1038,o),
(707,1048,o),
(624,1048,cs),
(496,1048,o)
);
},
{
closed = 1;
nodes = (
(136,897,o),
(185,815,o),
(185,699,cs),
(185,0,l),
(349,0,l),
(349,652,l),
(337,812,l),
(337,896,o),
(298,960,o),
(255,1026,c),
(90,974,l)
);
}
);
};
layerId = "9FF46155-5700-4CC7-A83F-22EBDC7BC473";
shapes = (
{
closed = 1;
nodes = (
(385,960,o),
(332,851,c),
(185,779,l),
(349,568,l),
(349,803,o),
(473,907,o),
(619,907,cs),
(704,907,o),
(747,889,o),
(764,883,c),
(778,1028,l),
(742,1038,o),
(707,1048,o),
(624,1048,cs),
(496,1048,o)
);
},
{
closed = 1;
nodes = (
(136,897,o),
(185,815,o),
(185,699,cs),
(185,0,l),
(349,0,l),
(349,652,l),
(337,812,l),
(337,896,o),
(298,960,o),
(255,1026,c),
(90,974,l)
);
}
);
width = 792;
}
);
unicode = 114;
},
{
glyphname = rcaron;
lastChange = "2023-07-28 09:19:43 +0000";
layers = (
{
background = {
anchors = (
{
name = bottom;
pos = (401,0);
},
{
name = top;
pos = (491,1026);
}
);
shapes = (
{
closed = 1;
nodes = (
(522,1173,l),
(760,1496,l),
(606,1496,l),
(438,1281,l),
(274,1496,l),
(127,1496,l),
(366,1173,l)
);
},
{
closed = 1;
nodes = (
(385,960,o),
(332,851,c),
(185,779,l),
(349,568,l),
(349,803,o),
(473,907,o),
(619,907,cs),
(704,907,o),
(747,889,o),
(764,883,c),
(778,1028,l),
(742,1038,o),
(707,1048,o),
(624,1048,cs),
(496,1048,o)
);
},
{
closed = 1;
nodes = (
(136,897,o),
(185,815,o),
(185,699,cs),
(185,0,l),
(349,0,l),
(349,652,l),
(337,812,l),
(337,896,o),
(298,960,o),
(255,1026,c),
(90,974,l)
);
}
);
};
layerId = "9FF46155-5700-4CC7-A83F-22EBDC7BC473";
shapes = (
{
ref = r;
},
{
pos = (145,0);
ref = caroncomb;
}
);
width = 792;
}
);
unicode = 345;
},
{
glyphname = rcommaaccent;
lastChange = "2023-07-28 09:19:43 +0000";
layers = (
{
background = {
anchors = (
{
name = bottom;
pos = (401,0);
},
{
name = top;
pos = (491,1026);
}
);
shapes = (
{
closed = 1;
nodes = (
(385,960,o),
(332,851,c),
(185,779,l),
(349,568,l),
(349,803,o),
(473,907,o),
(619,907,cs),
(704,907,o),
(747,889,o),
(764,883,c),
(778,1028,l),
(742,1038,o),
(707,1048,o),
(624,1048,cs),
(496,1048,o)
);
},
{
closed = 1;
nodes = (
(136,897,o),
(185,815,o),
(185,699,cs),
(185,0,l),
(349,0,l),
(349,652,l),
(337,812,l),
(337,896,o),
(298,960,o),
(255,1026,c),
(90,974,l)
);
},
{
closed = 1;
nodes = (
(385,-625,l),
(548,-162,l),
(361,-162,l),
(254,-625,l)
);
}
);
};
layerId = "9FF46155-5700-4CC7-A83F-22EBDC7BC473";
shapes = (
{
ref = r;
},
{
pos = (176,0);
ref = commaaccentcomb;
}
);
width = 792;
}
);
unicode = 343;
},
{
glyphname = rdblgrave;
lastChange = "2023-07-28 09:19:43 +0000";
layers = (
{
background = {
anchors = (
{
name = bottom;
pos = (401,0);
},
{
name = top;
pos = (491,1026);
}
);
shapes = (
{
closed = 1;
nodes = (
(385,960,o),
(332,851,c),
(185,779,l),
(349,568,l),
(349,803,o),
(473,907,o),
(619,907,cs),
(704,907,o),
(747,889,o),
(764,883,c),
(778,1028,l),
(742,1038,o),
(707,1048,o),
(624,1048,cs),
(496,1048,o)
);
},
{
closed = 1;
nodes = (
(136,897,o),
(185,815,o),
(185,699,cs),
(185,0,l),
(349,0,l),
(349,652,l),
(337,812,l),
(337,896,o),
(298,960,o),
(255,1026,c),
(90,974,l)
);
},
{
closed = 1;
nodes = (
(423,1174,l),
(203,1487,l),
(27,1487,l),
(303,1174,l)
);
},
{
closed = 1;
nodes = (
(690,1174,l),
(473,1487,l),
(297,1487,l),
(572,1174,l)
);
}
);
};
layerId = "9FF46155-5700-4CC7-A83F-22EBDC7BC473";
shapes = (
{
ref = r;
},
{
pos = (-135,0);
ref = dblgravecomb;
}
);
width = 792;
}
);
unicode = 529;
},
{
glyphname = rinvertedbreve;
lastChange = "2023-07-28 09:19:43 +0000";
layers = (
{
background = {
anchors = (
{
name = bottom;
pos = (401,0);
},
{
name = top;
pos = (491,1026);
}
);
shapes = (
{
closed = 1;
nodes = (
(385,960,o),
(332,851,c),
(185,779,l),
(349,568,l),
(349,803,o),
(473,907,o),
(619,907,cs),
(704,907,o),
(747,889,o),
(764,883,c),
(778,1028,l),
(742,1038,o),
(707,1048,o),
(624,1048,cs),
(496,1048,o)
);
},
{
closed = 1;
nodes = (
(136,897,o),
(185,815,o),
(185,699,cs),
(185,0,l),
(349,0,l),
(349,652,l),
(337,812,l),
(337,896,o),
(298,960,o),
(255,1026,c),
(90,974,l)
);
},
{
closed = 1;
nodes = (
(218,1378,o),
(205,1218,c),
(292,1218,l),
(307,1306,o),
(380,1347,o),
(482,1347,cs),
(584,1347,o),
(663,1302,o),
(683,1218,c),
(769,1218,l),
(756,1372,o),
(655,1454,o),
(489,1454,cs),
(318,1454,o)
);
}
);
};
layerId = "9FF46155-5700-4CC7-A83F-22EBDC7BC473";
shapes = (
{
ref = r;
},
{
pos = (173,0);
ref = breveinvertedcomb;
}
);
width = 792;
}
);
unicode = 531;
},
{
glyphname = s;
lastChange = "2023-07-28 09:07:07 +0000";
layers = (
{
anchors = (
{
name = bottom;
pos = (455,0);
},
{
name = top;
pos = (455,1026);
}
);
background = {
anchors = (
{
name = bottom;
pos = (455,0);
},
{
name = top;
pos = (455,1026);
}
);
shapes = (
{
closed = 1;
nodes = (
(114,941,o),
(111,771,cs),
(105,451,o),
(652,470,o),
(652,260,cs),
(652,157,o),
(562,116,o),
(452,116,cs),
(352,116,o),
(235,153,o),
(158,212,c),
(108,71,l),
(182,30,o),
(309,-22,o),
(464,-22,cs),
(674,-22,o),
(808,99,o),
(812,275,cs),
(820,593,o),
(273,587,o),
(273,776,cs),
(273,859,o),
(345,907,o),
(461,907,cs),
(546,907,o),
(647,877,o),
(731,832,c),
(775,967,l),
(691,1011,o),
(582,1048,o),
(451,1048,cs),
(245,1048,o)
);
}
);
};
layerId = "9FF46155-5700-4CC7-A83F-22EBDC7BC473";
shapes = (
{
closed = 1;
nodes = (
(114,941,o),
(111,771,cs),
(105,451,o),
(652,470,o),
(652,260,cs),
(652,157,o),
(562,116,o),
(452,116,cs),
(352,116,o),
(235,153,o),
(158,212,c),
(108,71,l),
(182,30,o),
(309,-22,o),
(464,-22,cs),
(674,-22,o),
(808,99,o),
(812,275,cs),
(820,593,o),
(273,587,o),
(273,776,cs),
(273,859,o),
(345,907,o),
(461,907,cs),
(546,907,o),
(647,877,o),
(731,832,c),
(775,967,l),
(691,1011,o),
(582,1048,o),
(451,1048,cs),
(245,1048,o)
);
}
);
width = 896;
}
);
unicode = 115;
},
{
glyphname = sacute;
lastChange = "2023-07-28 09:19:43 +0000";
layers = (
{
background = {
anchors = (
{
name = bottom;
pos = (455,0);
},
{
name = top;
pos = (455,1026);
}
);
shapes = (
{
closed = 1;
nodes = (
(559,1178,l),
(867,1498,l),
(655,1498,l),
(429,1178,l)
);
},
{
closed = 1;
nodes = (
(114,941,o),
(111,771,cs),
(105,451,o),
(652,470,o),
(652,260,cs),
(652,157,o),
(562,116,o),
(452,116,cs),
(352,116,o),
(235,153,o),
(158,212,c),
(108,71,l),
(182,30,o),
(309,-22,o),
(464,-22,cs),
(674,-22,o),
(808,99,o),
(812,275,cs),
(820,593,o),
(273,587,o),
(273,776,cs),
(273,859,o),
(345,907,o),
(461,907,cs),
(546,907,o),
(647,877,o),
(731,832,c),
(775,967,l),
(691,1011,o),
(582,1048,o),
(451,1048,cs),
(245,1048,o)
);
}
);
};
layerId = "9FF46155-5700-4CC7-A83F-22EBDC7BC473";
shapes = (
{
ref = s;
},
{
pos = (199,0);
ref = acutecomb;
}
);
width = 896;
}
);
unicode = 347;
},
{
glyphname = scaron;
lastChange = "2023-07-28 09:19:43 +0000";
layers = (
{
background = {
anchors = (
{
name = bottom;
pos = (455,0);
},
{
name = top;
pos = (455,1026);
}
);
shapes = (
{
closed = 1;
nodes = (
(573,1178,l),
(811,1501,l),
(657,1501,l),
(489,1286,l),
(325,1501,l),
(178,1501,l),
(417,1178,l)
);
},
{
closed = 1;
nodes = (
(114,941,o),
(111,771,cs),
(105,451,o),
(652,470,o),
(652,260,cs),
(652,157,o),
(562,116,o),
(452,116,cs),
(352,116,o),
(235,153,o),
(158,212,c),
(108,71,l),
(182,30,o),
(309,-22,o),
(464,-22,cs),
(674,-22,o),
(808,99,o),
(812,275,cs),
(820,593,o),
(273,587,o),
(273,776,cs),
(273,859,o),
(345,907,o),
(461,907,cs),
(546,907,o),
(647,877,o),
(731,832,c),
(775,967,l),
(691,1011,o),
(582,1048,o),
(451,1048,cs),
(245,1048,o)
);
}
);
};
layerId = "9FF46155-5700-4CC7-A83F-22EBDC7BC473";
shapes = (
{
ref = s;
},
{
pos = (109,0);
ref = caroncomb;
}
);
width = 896;
}
);
unicode = 353;
},
{
glyphname = scommaaccent;
lastChange = "2023-07-28 09:19:43 +0000";
layers = (
{
background = {
anchors = (
{
name = bottom;
pos = (455,0);
},
{
name = top;
pos = (455,1026);
}
);
shapes = (
{
closed = 1;
nodes = (
(114,941,o),
(111,771,cs),
(105,451,o),
(652,470,o),
(652,260,cs),
(652,157,o),
(562,116,o),
(452,116,cs),
(352,116,o),
(235,153,o),
(158,212,c),
(108,71,l),
(182,30,o),
(309,-22,o),
(464,-22,cs),
(674,-22,o),
(808,99,o),
(812,275,cs),
(820,593,o),
(273,587,o),
(273,776,cs),
(273,859,o),
(345,907,o),
(461,907,cs),
(546,907,o),
(647,877,o),
(731,832,c),
(775,967,l),
(691,1011,o),
(582,1048,o),
(451,1048,cs),
(245,1048,o)
);
},
{
closed = 1;
nodes = (
(439,-625,l),
(602,-162,l),
(415,-162,l),
(308,-625,l)
);
}
);
};
layerId = "9FF46155-5700-4CC7-A83F-22EBDC7BC473";
shapes = (
{
ref = s;
},
{
pos = (230,0);
ref = commaaccentcomb;
}
);
width = 896;
}
);
unicode = 537;
},
{
glyphname = germandbls;
lastChange = "2023-07-28 09:07:07 +0000";
layers = (
{
background = {
shapes = (
{
closed = 1;
nodes = (
(648,-23,o),
(792,-23,cs),
(841,-23,o),
(888,-14,o),
(934,3,cs),
(1064,52,o),
(1173,164,o),
(1173,341,cs),
(1173,407,o),
(1160,464,o),
(1133,514,cs),
(1054,661,o),
(896,747,o),
(722,798,cs),
(703,804,o),
(693,810,o),
(693,816,cs),
(693,827,o),
(710,834,o),
(719,838,cs),
(788,868,o),
(852,916,o),
(903,968,cs),
(955,1020,o),
(1011,1093,o),
(1011,1192,cs),
(1011,1236,o),
(1002,1277,o),
(984,1316,cs),
(925,1440,o),
(788,1511,o),
(604,1511,cs),
(535,1511,o),
(474,1501,o),
(420,1480,cs),
(267,1420,o),
(174,1282,o),
(174,1071,cs),
(176,0,l),
(341,0,l),
(341,101,o),
(340,217,o),
(340,326,cs),
(340,450,o),
(338,587,o),
(338,711,cs),
(338,820,o),
(337,937,o),
(337,1038,cs),
(337,1228,o),
(413,1382,o),
(603,1382,cs),
(731,1382,o),
(823,1318,o),
(823,1191,cs),
(823,1157,o),
(817,1125,o),
(804,1095,cs),
(763,1001,o),
(681,934,o),
(588,892,c),
(572,756,l),
(672,699,o),
(777,641,o),
(858,570,cs),
(924,512,o),
(986,437,o),
(986,322,cs),
(986,197,o),
(911,109,o),
(788,109,cs),
(679,109,o),
(597,173,o),
(536,243,c),
(471,138,l),
(543,47,o)
);
}
);
};
layerId = "9FF46155-5700-4CC7-A83F-22EBDC7BC473";
shapes = (
{
closed = 1;
nodes = (
(648,-23,o),
(792,-23,cs),
(841,-23,o),
(888,-14,o),
(934,3,cs),
(1064,52,o),
(1173,164,o),
(1173,341,cs),
(1173,407,o),
(1160,464,o),
(1133,514,cs),
(1054,661,o),
(896,747,o),
(722,798,cs),
(703,804,o),
(693,810,o),
(693,816,cs),
(693,827,o),
(710,834,o),
(719,838,cs),
(788,868,o),
(852,916,o),
(903,968,cs),
(955,1020,o),
(1011,1093,o),
(1011,1192,cs),
(1011,1236,o),
(1002,1277,o),
(984,1316,cs),
(925,1440,o),
(788,1511,o),
(604,1511,cs),
(535,1511,o),
(474,1501,o),
(420,1480,cs),
(267,1420,o),
(174,1282,o),
(174,1071,cs),
(176,0,l),
(341,0,l),
(341,101,o),
(340,217,o),
(340,326,cs),
(340,450,o),
(338,587,o),
(338,711,cs),
(338,820,o),
(337,937,o),
(337,1038,cs),
(337,1228,o),
(413,1382,o),
(603,1382,cs),
(731,1382,o),
(823,1318,o),
(823,1191,cs),
(823,1157,o),
(817,1125,o),
(804,1095,cs),
(763,1001,o),
(681,934,o),
(588,892,c),
(572,756,l),
(672,699,o),
(777,641,o),
(858,570,cs),
(924,512,o),
(986,437,o),
(986,322,cs),
(986,197,o),
(911,109,o),
(788,109,cs),
(679,109,o),
(597,173,o),
(536,243,c),
(471,138,l),
(543,47,o)
);
}
);
width = 1257;
}
);
unicode = 223;
},
{
glyphname = t;
lastChange = "2023-07-28 09:07:07 +0000";
layers = (
{
anchors = (
{
name = bottom;
pos = (554,0);
},
{
name = center;
pos = (318,644);
}
);
background = {
anchors = (
{
name = bottom;
pos = (554,0);
},
{
name = center;
pos = (318,644);
}
);
shapes = (
{
closed = 1;
nodes = (
(233,1026,l),
(25,1026,l),
(25,919,l),
(228,919,l),
(228,300,ls),
(228,84,o),
(328,-8,o),
(560,-8,cs),
(617,-8,o),
(728,13,o),
(791,35,c),
(772,158,l),
(725,140,o),
(625,119,o),
(579,119,cs),
(449,119,o),
(392,173,o),
(392,298,cs),
(392,919,l),
(729,919,l),
(729,1026,l),
(392,1026,l),
(392,1345,l),
(233,1298,l)
);
}
);
};
layerId = "9FF46155-5700-4CC7-A83F-22EBDC7BC473";
shapes = (
{
closed = 1;
nodes = (
(233,1026,l),
(25,1026,l),
(25,919,l),
(228,919,l),
(228,300,ls),
(228,84,o),
(328,-8,o),
(560,-8,cs),
(617,-8,o),
(728,13,o),
(791,35,c),
(772,158,l),
(725,140,o),
(625,119,o),
(579,119,cs),
(449,119,o),
(392,173,o),
(392,298,cs),
(392,919,l),
(729,919,l),
(729,1026,l),
(392,1026,l),
(392,1345,l),
(233,1298,l)
);
}
);
width = 821;
}
);
unicode = 116;
},
{
glyphname = tcommaaccent;
lastChange = "2023-07-28 09:19:43 +0000";
layers = (
{
background = {
anchors = (
{
name = bottom;
pos = (554,0);
},
{
name = center;
pos = (318,644);
}
);
shapes = (
{
closed = 1;
nodes = (
(233,1026,l),
(25,1026,l),
(25,919,l),
(228,919,l),
(228,300,ls),
(228,84,o),
(328,-8,o),
(560,-8,cs),
(617,-8,o),
(728,13,o),
(791,35,c),
(772,158,l),
(725,140,o),
(625,119,o),
(579,119,cs),
(449,119,o),
(392,173,o),
(392,298,cs),
(392,919,l),
(729,919,l),
(729,1026,l),
(392,1026,l),
(392,1345,l),
(233,1298,l)
);
},
{
closed = 1;
nodes = (
(538,-625,l),
(701,-162,l),
(514,-162,l),
(407,-625,l)
);
}
);
};
layerId = "9FF46155-5700-4CC7-A83F-22EBDC7BC473";
shapes = (
{
ref = t;
},
{
pos = (329,0);
ref = commaaccentcomb;
}
);
width = 821;
}
);
unicode = 539;
},
{
glyphname = u;
lastChange = "2023-07-28 09:07:07 +0000";
layers = (
{
anchors = (
{
name = ogonek;
pos = (1085,10);
},
{
name = top;
pos = (600,1026);
}
);
background = {
anchors = (
{
name = ogonek;
pos = (1085,10);
},
{
name = top;
pos = (600,1026);
}
);
shapes = (
{
closed = 1;
nodes = (
(850,427,ls),
(850,231,o),
(712,116,o),
(547,116,cs),
(426,116,o),
(305,169,o),
(310,365,cs),
(316,595,ls),
(325,941,o),
(257,1026,o),
(257,1026,c),
(92,1000,l),
(92,1000,o),
(160,901,o),
(151,582,cs),
(145,365,ls),
(137,80,o),
(328,-22,o),
(522,-22,cs),
(680,-22,o),
(798,40,o),
(875,164,c),
(887,43,o),
(982,-33,o),
(1139,-3,c),
(1155,135,l),
(1063,115,o),
(1014,156,o),
(1014,302,cs),
(1014,1026,l),
(850,1026,l)
);
}
);
};
layerId = "9FF46155-5700-4CC7-A83F-22EBDC7BC473";
shapes = (
{
closed = 1;
nodes = (
(850,427,ls),
(850,231,o),
(712,116,o),
(547,116,cs),
(426,116,o),
(305,169,o),
(310,365,cs),
(316,595,ls),
(325,941,o),
(257,1026,o),
(257,1026,c),
(92,1000,l),
(92,1000,o),
(160,901,o),
(151,582,cs),
(145,365,ls),
(137,80,o),
(328,-22,o),
(522,-22,cs),
(680,-22,o),
(798,40,o),
(875,164,c),
(887,43,o),
(982,-33,o),
(1139,-3,c),
(1155,135,l),
(1063,115,o),
(1014,156,o),
(1014,302,cs),
(1014,1026,l),
(850,1026,l)
);
}
);
width = 1199;
}
);
unicode = 117;
},
{
glyphname = uacute;
lastChange = "2023-07-28 09:19:43 +0000";
layers = (
{
background = {
anchors = (
{
name = ogonek;
pos = (1085,10);
},
{
name = top;
pos = (600,1026);
}
);
shapes = (
{
closed = 1;
nodes = (
(656,1173,l),
(964,1493,l),
(752,1493,l),
(526,1173,l)
);
},
{
closed = 1;
nodes = (
(850,427,ls),
(850,231,o),
(712,116,o),
(547,116,cs),
(426,116,o),
(305,169,o),
(310,365,cs),
(316,595,ls),
(325,941,o),
(257,1026,o),
(257,1026,c),
(92,1000,l),
(92,1000,o),
(160,901,o),
(151,582,cs),
(145,365,ls),
(137,80,o),
(328,-22,o),
(522,-22,cs),
(680,-22,o),
(798,40,o),
(875,164,c),
(887,43,o),
(982,-33,o),
(1139,-3,c),
(1155,135,l),
(1063,115,o),
(1014,156,o),
(1014,302,cs),
(1014,1026,l),
(850,1026,l)
);
}
);
};
layerId = "9FF46155-5700-4CC7-A83F-22EBDC7BC473";
shapes = (
{
ref = u;
},
{
pos = (344,0);
ref = acutecomb;
}
);
width = 1199;
}
);
unicode = 250;
},
{
glyphname = ucircumflex;
lastChange = "2023-07-28 09:19:43 +0000";
layers = (
{
background = {
anchors = (
{
name = ogonek;
pos = (1085,10);
},
{
name = top;
pos = (600,1026);
}
);
shapes = (
{
closed = 1;
nodes = (
(410,1173,l),
(588,1389,l),
(766,1173,l),
(898,1173,l),
(669,1497,l),
(512,1497,l),
(284,1173,l)
);
},
{
closed = 1;
nodes = (
(850,427,ls),
(850,231,o),
(712,116,o),
(547,116,cs),
(426,116,o),
(305,169,o),
(310,365,cs),
(316,595,ls),
(325,941,o),
(257,1026,o),
(257,1026,c),
(92,1000,l),
(92,1000,o),
(160,901,o),
(151,582,cs),
(145,365,ls),
(137,80,o),
(328,-22,o),
(522,-22,cs),
(680,-22,o),
(798,40,o),
(875,164,c),
(887,43,o),
(982,-33,o),
(1139,-3,c),
(1155,135,l),
(1063,115,o),
(1014,156,o),
(1014,302,cs),
(1014,1026,l),
(850,1026,l)
);
}
);
};
layerId = "9FF46155-5700-4CC7-A83F-22EBDC7BC473";
shapes = (
{
ref = u;
},
{
pos = (258,0);
ref = circumflexcomb;
}
);
width = 1199;
}
);
unicode = 251;
},
{
glyphname = udblgrave;
lastChange = "2023-07-28 09:19:43 +0000";
layers = (
{
background = {
anchors = (
{
name = ogonek;
pos = (1085,10);
},
{
name = top;
pos = (600,1026);
}
);
shapes = (
{
closed = 1;
nodes = (
(850,427,ls),
(850,231,o),
(712,116,o),
(547,116,cs),
(426,116,o),
(305,169,o),
(310,365,cs),
(316,595,ls),
(325,941,o),
(257,1026,o),
(257,1026,c),
(92,1000,l),
(92,1000,o),
(160,901,o),
(151,582,cs),
(145,365,ls),
(137,80,o),
(328,-22,o),
(522,-22,cs),
(680,-22,o),
(798,40,o),
(875,164,c),
(887,43,o),
(982,-33,o),
(1139,-3,c),
(1155,135,l),
(1063,115,o),
(1014,156,o),
(1014,302,cs),
(1014,1026,l),
(850,1026,l)
);
},
{
closed = 1;
nodes = (
(532,1174,l),
(312,1487,l),
(136,1487,l),
(412,1174,l)
);
},
{
closed = 1;
nodes = (
(799,1174,l),
(582,1487,l),
(406,1487,l),
(681,1174,l)
);
}
);
};
layerId = "9FF46155-5700-4CC7-A83F-22EBDC7BC473";
shapes = (
{
ref = u;
},
{
pos = (-26,0);
ref = dblgravecomb;
}
);
width = 1199;
}
);
unicode = 533;
},
{
glyphname = udieresis;
lastChange = "2023-07-28 09:19:43 +0000";
layers = (
{
background = {
anchors = (
{
name = ogonek;
pos = (1085,10);
},
{
name = top;
pos = (600,1026);
}
);
shapes = (
{
closed = 1;
nodes = (
(507,1173,l),
(507,1336,l),
(343,1336,l),
(343,1173,l)
);
},
{
closed = 1;
nodes = (
(839,1173,l),
(839,1336,l),
(675,1336,l),
(675,1173,l)
);
},
{
closed = 1;
nodes = (
(850,427,ls),
(850,231,o),
(712,116,o),
(547,116,cs),
(426,116,o),
(305,169,o),
(310,365,cs),
(316,595,ls),
(325,941,o),
(257,1026,o),
(257,1026,c),
(92,1000,l),
(92,1000,o),
(160,901,o),
(151,582,cs),
(145,365,ls),
(137,80,o),
(328,-22,o),
(522,-22,cs),
(680,-22,o),
(798,40,o),
(875,164,c),
(887,43,o),
(982,-33,o),
(1139,-3,c),
(1155,135,l),
(1063,115,o),
(1014,156,o),
(1014,302,cs),
(1014,1026,l),
(850,1026,l)
);
}
);
};
layerId = "9FF46155-5700-4CC7-A83F-22EBDC7BC473";
shapes = (
{
ref = u;
},
{
pos = (231,0);
ref = dieresiscomb;
}
);
width = 1199;
}
);
unicode = 252;
},
{
glyphname = ugrave;
lastChange = "2023-07-28 09:19:43 +0000";
layers = (
{
background = {
anchors = (
{
name = ogonek;
pos = (1085,10);
},
{
name = top;
pos = (600,1026);
}
);
shapes = (
{
closed = 1;
nodes = (
(655,1173,l),
(408,1493,l),
(194,1493,l),
(526,1173,l)
);
},
{
closed = 1;
nodes = (
(850,427,ls),
(850,231,o),
(712,116,o),
(547,116,cs),
(426,116,o),
(305,169,o),
(310,365,cs),
(316,595,ls),
(325,941,o),
(257,1026,o),
(257,1026,c),
(92,1000,l),
(92,1000,o),
(160,901,o),
(151,582,cs),
(145,365,ls),
(137,80,o),
(328,-22,o),
(522,-22,cs),
(680,-22,o),
(798,40,o),
(875,164,c),
(887,43,o),
(982,-33,o),
(1139,-3,c),
(1155,135,l),
(1063,115,o),
(1014,156,o),
(1014,302,cs),
(1014,1026,l),
(850,1026,l)
);
}
);
};
layerId = "9FF46155-5700-4CC7-A83F-22EBDC7BC473";
shapes = (
{
ref = u;
},
{
pos = (232,0);
ref = gravecomb;
}
);
width = 1199;
}
);
unicode = 249;
},
{
glyphname = uinvertedbreve;
lastChange = "2023-07-28 09:19:43 +0000";
layers = (
{
background = {
anchors = (
{
name = ogonek;
pos = (1085,10);
},
{
name = top;
pos = (600,1026);
}
);
shapes = (
{
closed = 1;
nodes = (
(850,427,ls),
(850,231,o),
(712,116,o),
(547,116,cs),
(426,116,o),
(305,169,o),
(310,365,cs),
(316,595,ls),
(325,941,o),
(257,1026,o),
(257,1026,c),
(92,1000,l),
(92,1000,o),
(160,901,o),
(151,582,cs),
(145,365,ls),
(137,80,o),
(328,-22,o),
(522,-22,cs),
(680,-22,o),
(798,40,o),
(875,164,c),
(887,43,o),
(982,-33,o),
(1139,-3,c),
(1155,135,l),
(1063,115,o),
(1014,156,o),
(1014,302,cs),
(1014,1026,l),
(850,1026,l)
);
},
{
closed = 1;
nodes = (
(327,1378,o),
(314,1218,c),
(401,1218,l),
(416,1306,o),
(489,1347,o),
(591,1347,cs),
(693,1347,o),
(772,1302,o),
(792,1218,c),
(878,1218,l),
(865,1372,o),
(764,1454,o),
(598,1454,cs),
(427,1454,o)
);
}
);
};
layerId = "9FF46155-5700-4CC7-A83F-22EBDC7BC473";
shapes = (
{
ref = u;
},
{
pos = (282,0);
ref = breveinvertedcomb;
}
);
width = 1199;
}
);
unicode = 535;
},
{
glyphname = v;
lastChange = "2023-07-28 09:07:07 +0000";
layers = (
{
background = {
shapes = (
{
closed = 1;
nodes = (
(593,336,l),
(581,309,o),
(568,264,o),
(537,163,c),
(521,217,o),
(498,290,o),
(479,336,cs),
(198,1026,l),
(16,1026,l),
(445,0,l),
(613,0,l),
(1046,1026,l),
(869,1026,l)
);
}
);
};
layerId = "9FF46155-5700-4CC7-A83F-22EBDC7BC473";
shapes = (
{
closed = 1;
nodes = (
(593,336,l),
(581,309,o),
(568,264,o),
(537,163,c),
(521,217,o),
(498,290,o),
(479,336,cs),
(198,1026,l),
(16,1026,l),
(445,0,l),
(613,0,l),
(1046,1026,l),
(869,1026,l)
);
}
);
width = 1062;
}
);
unicode = 118;
},
{
glyphname = w;
lastChange = "2023-07-28 09:07:07 +0000";
layers = (
{
anchors = (
{
name = top;
pos = (858,1026);
}
);
background = {
anchors = (
{
name = top;
pos = (858,1026);
}
);
shapes = (
{
closed = 1;
nodes = (
(1253,287,l),
(1241,255,o),
(1232,219,o),
(1219,189,c),
(1209,219,o),
(1200,258,o),
(1190,286,cs),
(942,1026,l),
(776,1026,l),
(511,276,l),
(499,249,o),
(490,214,o),
(480,186,c),
(470,217,o),
(461,255,o),
(451,284,cs),
(202,1026,l),
(26,1026,l),
(391,0,l),
(553,0,l),
(853,831,l),
(1134,0,l),
(1294,0,l),
(1662,1026,l),
(1493,1026,l)
);
}
);
};
layerId = "9FF46155-5700-4CC7-A83F-22EBDC7BC473";
shapes = (
{
closed = 1;
nodes = (
(1253,287,l),
(1241,255,o),
(1232,219,o),
(1219,189,c),
(1209,219,o),
(1200,258,o),
(1190,286,cs),
(942,1026,l),
(776,1026,l),
(511,276,l),
(499,249,o),
(490,214,o),
(480,186,c),
(470,217,o),
(461,255,o),
(451,284,cs),
(202,1026,l),
(26,1026,l),
(391,0,l),
(553,0,l),
(853,831,l),
(1134,0,l),
(1294,0,l),
(1662,1026,l),
(1493,1026,l)
);
}
);
width = 1688;
}
);
unicode = 119;
},
{
glyphname = x;
lastChange = "2023-07-28 09:07:07 +0000";
layers = (
{
background = {
shapes = (
{
closed = 1;
nodes = (
(558,626,l),
(270,1026,l),
(67,1026,l),
(448,514,l),
(48,0,l),
(238,0,l),
(542,408,l),
(838,0,l),
(1039,0,l),
(648,518,l),
(1026,1026,l),
(847,1026,l)
);
}
);
};
layerId = "9FF46155-5700-4CC7-A83F-22EBDC7BC473";
shapes = (
{
closed = 1;
nodes = (
(558,626,l),
(270,1026,l),
(67,1026,l),
(448,514,l),
(48,0,l),
(238,0,l),
(542,408,l),
(838,0,l),
(1039,0,l),
(648,518,l),
(1026,1026,l),
(847,1026,l)
);
}
);
width = 1087;
}
);
unicode = 120;
},
{
glyphname = y;
lastChange = "2023-07-28 09:07:07 +0000";
layers = (
{
anchors = (
{
name = top;
pos = (566,1026);
}
);
background = {
anchors = (
{
name = top;
pos = (566,1026);
}
);
shapes = (
{
closed = 1;
nodes = (
(862,-44,ls),
(862,-232,o),
(722,-357,o),
(513,-357,cs),
(424,-357,o),
(302,-326,o),
(210,-280,c),
(191,-433,l),
(292,-470,o),
(426,-494,o),
(527,-494,cs),
(826,-494,o),
(1026,-306,o),
(1026,-23,cs),
(1026,1026,l),
(862,145,l)
);
},
{
closed = 1;
nodes = (
(862,427,l),
(862,231,o),
(724,116,o),
(559,116,cs),
(438,116,o),
(317,169,o),
(322,365,cs),
(328,595,l),
(337,941,o),
(269,1026,o),
(269,1026,c),
(104,1000,l),
(104,1000,o),
(172,901,o),
(163,582,cs),
(157,365,l),
(149,80,o),
(340,-22,o),
(534,-22,cs),
(692,-22,o),
(810,40,o),
(887,164,c),
(1026,302,l),
(1026,1026,l),
(862,1026,l)
);
}
);
};
layerId = "9FF46155-5700-4CC7-A83F-22EBDC7BC473";
shapes = (
{
closed = 1;
nodes = (
(862,-44,ls),
(862,-232,o),
(722,-357,o),
(513,-357,cs),
(424,-357,o),
(302,-326,o),
(210,-280,c),
(191,-433,l),
(292,-470,o),
(426,-494,o),
(527,-494,cs),
(826,-494,o),
(1026,-306,o),
(1026,-23,cs),
(1026,1026,l),
(862,145,l)
);
},
{
closed = 1;
nodes = (
(862,427,l),
(862,231,o),
(724,116,o),
(559,116,cs),
(438,116,o),
(317,169,o),
(322,365,cs),
(328,595,l),
(337,941,o),
(269,1026,o),
(269,1026,c),
(104,1000,l),
(104,1000,o),
(172,901,o),
(163,582,cs),
(157,365,l),
(149,80,o),
(340,-22,o),
(534,-22,cs),
(692,-22,o),
(810,40,o),
(887,164,c),
(1026,302,l),
(1026,1026,l),
(862,1026,l)
);
}
);
width = 1186;
}
);
unicode = 121;
},
{
glyphname = yacute;
lastChange = "2023-07-28 09:19:43 +0000";
layers = (
{
background = {
anchors = (
{
name = top;
pos = (566,1026);
}
);
shapes = (
{
closed = 1;
nodes = (
(665,1173,l),
(973,1493,l),
(761,1493,l),
(535,1173,l)
);
},
{
closed = 1;
nodes = (
(862,-44,ls),
(862,-232,o),
(722,-357,o),
(513,-357,cs),
(424,-357,o),
(302,-326,o),
(210,-280,c),
(191,-433,l),
(292,-470,o),
(426,-494,o),
(527,-494,cs),
(826,-494,o),
(1026,-306,o),
(1026,-23,cs),
(1026,1026,l),
(862,145,l)
);
},
{
closed = 1;
nodes = (
(862,427,l),
(862,231,o),
(724,116,o),
(559,116,cs),
(438,116,o),
(317,169,o),
(322,365,cs),
(328,595,l),
(337,941,o),
(269,1026,o),
(269,1026,c),
(104,1000,l),
(104,1000,o),
(172,901,o),
(163,582,cs),
(157,365,l),
(149,80,o),
(340,-22,o),
(534,-22,cs),
(692,-22,o),
(810,40,o),
(887,164,c),
(1026,302,l),
(1026,1026,l),
(862,1026,l)
);
}
);
};
layerId = "9FF46155-5700-4CC7-A83F-22EBDC7BC473";
shapes = (
{
ref = y;
},
{
pos = (310,0);
ref = acutecomb;
}
);
width = 1186;
}
);
unicode = 253;
},
{
glyphname = ydieresis;
lastChange = "2023-07-28 09:19:43 +0000";
layers = (
{
background = {
anchors = (
{
name = top;
pos = (566,1026);
}
);
shapes = (
{
closed = 1;
nodes = (
(516,1173,l),
(516,1336,l),
(352,1336,l),
(352,1173,l)
);
},
{
closed = 1;
nodes = (
(848,1173,l),
(848,1336,l),
(684,1336,l),
(684,1173,l)
);
},
{
closed = 1;
nodes = (
(862,-44,ls),
(862,-232,o),
(722,-357,o),
(513,-357,cs),
(424,-357,o),
(302,-326,o),
(210,-280,c),
(191,-433,l),
(292,-470,o),
(426,-494,o),
(527,-494,cs),
(826,-494,o),
(1026,-306,o),
(1026,-23,cs),
(1026,1026,l),
(862,145,l)
);
},
{
closed = 1;
nodes = (
(862,427,l),
(862,231,o),
(724,116,o),
(559,116,cs),
(438,116,o),
(317,169,o),
(322,365,cs),
(328,595,l),
(337,941,o),
(269,1026,o),
(269,1026,c),
(104,1000,l),
(104,1000,o),
(172,901,o),
(163,582,cs),
(157,365,l),
(149,80,o),
(340,-22,o),
(534,-22,cs),
(692,-22,o),
(810,40,o),
(887,164,c),
(1026,302,l),
(1026,1026,l),
(862,1026,l)
);
}
);
};
layerId = "9FF46155-5700-4CC7-A83F-22EBDC7BC473";
shapes = (
{
ref = y;
},
{
pos = (197,0);
ref = dieresiscomb;
}
);
width = 1186;
}
);
unicode = 255;
},
{
glyphname = z;
lastChange = "2023-07-28 09:07:07 +0000";
layers = (
{
anchors = (
{
name = top;
pos = (498,0);
}
);
background = {
anchors = (
{
name = top;
pos = (498,0);
}
);
shapes = (
{
closed = 1;
nodes = (
(106,891,l),
(680,891,l),
(80,89,l),
(80,0,l),
(920,0,l),
(920,134,l),
(305,134,l),
(903,939,l),
(903,1026,l),
(106,1026,l)
);
}
);
};
layerId = "9FF46155-5700-4CC7-A83F-22EBDC7BC473";
shapes = (
{
closed = 1;
nodes = (
(106,891,l),
(680,891,l),
(80,89,l),
(80,0,l),
(920,0,l),
(920,134,l),
(305,134,l),
(903,939,l),
(903,1026,l),
(106,1026,l)
);
}
);
width = 979;
}
);
unicode = 122;
},
{
glyphname = zacute;
lastChange = "2023-07-28 09:19:43 +0000";
layers = (
{
background = {
anchors = (
{
name = top;
pos = (498,0);
}
);
shapes = (
{
closed = 1;
nodes = (
(575,1173,l),
(883,1493,l),
(671,1493,l),
(445,1173,l)
);
},
{
closed = 1;
nodes = (
(106,891,l),
(680,891,l),
(80,89,l),
(80,0,l),
(920,0,l),
(920,134,l),
(305,134,l),
(903,939,l),
(903,1026,l),
(106,1026,l)
);
}
);
};
layerId = "9FF46155-5700-4CC7-A83F-22EBDC7BC473";
shapes = (
{
ref = z;
},
{
pos = (242,-1026);
ref = acutecomb;
}
);
width = 979;
}
);
unicode = 378;
},
{
glyphname = zcaron;
lastChange = "2023-07-28 09:19:43 +0000";
layers = (
{
background = {
anchors = (
{
name = top;
pos = (498,0);
}
);
shapes = (
{
closed = 1;
nodes = (
(588,1173,l),
(826,1496,l),
(672,1496,l),
(504,1281,l),
(340,1496,l),
(193,1496,l),
(432,1173,l)
);
},
{
closed = 1;
nodes = (
(106,891,l),
(680,891,l),
(80,89,l),
(80,0,l),
(920,0,l),
(920,134,l),
(305,134,l),
(903,939,l),
(903,1026,l),
(106,1026,l)
);
}
);
};
layerId = "9FF46155-5700-4CC7-A83F-22EBDC7BC473";
shapes = (
{
ref = z;
},
{
pos = (152,-1026);
ref = caroncomb;
}
);
width = 979;
}
);
unicode = 382;
},
{
glyphname = zdotaccent;
lastChange = "2023-07-28 09:19:43 +0000";
layers = (
{
background = {
anchors = (
{
name = top;
pos = (498,0);
}
);
shapes = (
{
closed = 1;
nodes = (
(590,1173,l),
(590,1336,l),
(430,1336,l),
(430,1173,l)
);
},
{
closed = 1;
nodes = (
(106,891,l),
(680,891,l),
(80,89,l),
(80,0,l),
(920,0,l),
(920,134,l),
(305,134,l),
(903,939,l),
(903,1026,l),
(106,1026,l)
);
}
);
};
layerId = "9FF46155-5700-4CC7-A83F-22EBDC7BC473";
shapes = (
{
ref = z;
},
{
pos = (234,-1026);
ref = dotaccentcomb;
}
);
width = 979;
}
);
unicode = 380;
},
{
glyphname = a.alt;
lastChange = "2023-07-28 09:10:20 +0000";
layers = (
{
anchors = (
{
name = ogonek;
pos = (1077,23);
},
{
name = top;
pos = (630,1014);
}
);
background = {
anchors = (
{
name = ogonek;
pos = (1077,23);
},
{
name = top;
pos = (630,1014);
}
);
shapes = (
{
closed = 1;
nodes = (
(281,-23,o),
(553,-23,cs),
(675,-23,o),
(832,13,o),
(925,166,c),
(952,46,o),
(1070,-4,o),
(1157,-4,c),
(1191,139,l),
(1139,139,o),
(1066,170,o),
(1066,286,cs),
(1066,519,ls),
(1066,928,o),
(864,1052,o),
(614,1052,cs),
(284,1052,o),
(88,844,o),
(88,494,cs),
(88,192,o)
);
},
{
closed = 1;
nodes = (
(828,117,o),
(572,117,cs),
(387,117,o),
(255,278,o),
(255,504,cs),
(255,761,o),
(390,913,o),
(617,913,cs),
(798,913,o),
(902,814,o),
(902,524,cs),
(902,272,o)
);
}
);
};
layerId = "9FF46155-5700-4CC7-A83F-22EBDC7BC473";
shapes = (
{
closed = 1;
nodes = (
(281,-23,o),
(553,-23,cs),
(675,-23,o),
(832,13,o),
(925,166,c),
(952,46,o),
(1070,-4,o),
(1157,-4,c),
(1191,139,l),
(1139,139,o),
(1066,170,o),
(1066,286,cs),
(1066,519,ls),
(1066,928,o),
(864,1052,o),
(614,1052,cs),
(284,1052,o),
(88,844,o),
(88,494,cs),
(88,192,o)
);
},
{
closed = 1;
nodes = (
(828,117,o),
(572,117,cs),
(387,117,o),
(255,278,o),
(255,504,cs),
(255,761,o),
(390,913,o),
(617,913,cs),
(798,913,o),
(902,814,o),
(902,524,cs),
(902,272,o)
);
}
);
width = 1219;
}
);
},
{
glyphname = e.alt;
lastChange = "2023-07-28 09:10:20 +0000";
layers = (
{
anchors = (
{
name = bottom;
pos = (537,0);
},
{
name = ogonek;
pos = (966,10);
},
{
name = top;
pos = (537,0);
}
);
background = {
anchors = (
{
name = bottom;
pos = (537,0);
},
{
name = ogonek;
pos = (966,10);
},
{
name = top;
pos = (537,0);
}
);
shapes = (
{
closed = 1;
nodes = (
(325,-19,o),
(589,-19,cs),
(758,-19,o),
(895,46,o),
(1013,170,c),
(930,276,l),
(856,187,o),
(735,123,o),
(596,123,cs),
(462,123,o),
(334,192,o),
(289,371,c),
(655,425,o),
(946,506,o),
(946,751,cs),
(946,918,o),
(808,1056,o),
(592,1056,cs),
(269,1056,o),
(94,805,o),
(94,516,cs),
(94,176,o)
);
},
{
closed = 1;
nodes = (
(563,534,o),
(277,490,c),
(275,507,o),
(274,523,o),
(274,539,cs),
(274,735,o),
(392,913,o),
(593,913,cs),
(714,913,o),
(783,846,o),
(783,755,cs),
(783,594,o)
);
}
);
};
layerId = "9FF46155-5700-4CC7-A83F-22EBDC7BC473";
shapes = (
{
closed = 1;
nodes = (
(325,-19,o),
(589,-19,cs),
(758,-19,o),
(895,46,o),
(1013,170,c),
(930,276,l),
(856,187,o),
(735,123,o),
(596,123,cs),
(462,123,o),
(334,192,o),
(289,371,c),
(655,425,o),
(946,506,o),
(946,751,cs),
(946,918,o),
(808,1056,o),
(592,1056,cs),
(269,1056,o),
(94,805,o),
(94,516,cs),
(94,176,o)
);
},
{
closed = 1;
nodes = (
(563,534,o),
(277,490,c),
(275,507,o),
(274,523,o),
(274,539,cs),
(274,735,o),
(392,913,o),
(593,913,cs),
(714,913,o),
(783,846,o),
(783,755,cs),
(783,594,o)
);
}
);
width = 1073;
}
);
},
{
glyphname = k.alt;
lastChange = "2023-07-28 09:10:20 +0000";
layers = (
{
anchors = (
{
name = bottom;
pos = (541,0);
}
);
background = {
anchors = (
{
name = bottom;
pos = (541,0);
}
);
shapes = (
{
closed = 1;
nodes = (
(303,0,l),
(534,343,o),
(766,684,o),
(998,1026,c),
(819,1026,l),
(343,308,l),
(343,1526,l),
(178,1526,l),
(178,0,l)
);
},
{
closed = 1;
nodes = (
(1066,0,l),
(693,583,l),
(578,485,l),
(885,0,l)
);
}
);
};
layerId = "9FF46155-5700-4CC7-A83F-22EBDC7BC473";
shapes = (
{
closed = 1;
nodes = (
(303,0,l),
(534,343,o),
(766,684,o),
(998,1026,c),
(819,1026,l),
(343,308,l),
(343,1526,l),
(178,1526,l),
(178,0,l)
);
},
{
closed = 1;
nodes = (
(1066,0,l),
(693,583,l),
(578,485,l),
(885,0,l)
);
}
);
width = 1082;
}
);
},
{
glyphname = n.alt;
lastChange = "2023-07-28 09:10:20 +0000";
layers = (
{
anchors = (
{
name = bottom;
pos = (632,0);
},
{
name = top;
pos = (632,0);
}
);
background = {
anchors = (
{
name = bottom;
pos = (632,0);
},
{
name = top;
pos = (632,0);
}
);
shapes = (
{
closed = 1;
nodes = (
(908,-2,o),
(1096,-24,c),
(1132,102,l),
(1057,117,o),
(1046,142,o),
(1046,255,cs),
(1046,270,ls),
(1048,567,ls),
(1048,577,ls),
(1048,867,o),
(960,1051,o),
(667,1051,cs),
(499,1051,o),
(416,988,o),
(343,884,c),
(321,1026,l),
(154,1026,l),
(160,977,o),
(180,784,o),
(180,699,cs),
(180,0,l),
(345,0,l),
(345,652,ls),
(345,799,o),
(485,911,o),
(639,911,cs),
(850,911,o),
(883,790,o),
(883,585,cs),
(883,572,ls),
(881,265,ls),
(881,248,ls),
(881,62,o)
);
}
);
};
layerId = "9FF46155-5700-4CC7-A83F-22EBDC7BC473";
shapes = (
{
closed = 1;
nodes = (
(908,-2,o),
(1096,-24,c),
(1132,102,l),
(1057,117,o),
(1046,142,o),
(1046,255,cs),
(1046,270,ls),
(1048,567,ls),
(1048,577,ls),
(1048,867,o),
(960,1051,o),
(667,1051,cs),
(499,1051,o),
(416,988,o),
(343,884,c),
(321,1026,l),
(154,1026,l),
(160,977,o),
(180,784,o),
(180,699,cs),
(180,0,l),
(345,0,l),
(345,652,ls),
(345,799,o),
(485,911,o),
(639,911,cs),
(850,911,o),
(883,790,o),
(883,585,cs),
(883,572,ls),
(881,265,ls),
(881,248,ls),
(881,62,o)
);
}
);
width = 1263;
}
);
},
{
glyphname = s.alt;
lastChange = "2023-07-28 09:10:20 +0000";
layers = (
{
anchors = (
{
name = bottom;
pos = (501,0);
},
{
name = top;
pos = (501,0);
}
);
background = {
anchors = (
{
name = bottom;
pos = (501,0);
},
{
name = top;
pos = (501,0);
}
);
shapes = (
{
closed = 1;
nodes = (
(396,-26,o),
(552,-26,cs),
(739,-26,o),
(902,52,o),
(902,284,cs),
(902,492,o),
(710,547,o),
(550,596,cs),
(455,625,o),
(285,653,o),
(285,774,cs),
(285,881,o),
(382,917,o),
(493,917,cs),
(606,917,o),
(732,880,o),
(787,844,c),
(834,966,l),
(736,1025,o),
(612,1056,o),
(494,1056,cs),
(294,1056,o),
(114,967,o),
(114,771,cs),
(114,570,o),
(283,512,o),
(448,463,cs),
(555,431,o),
(739,404,o),
(739,272,cs),
(739,150,o),
(644,112,o),
(529,112,cs),
(396,112,o),
(236,170,o),
(161,227,c),
(114,90,l),
(220,25,o)
);
}
);
};
layerId = "9FF46155-5700-4CC7-A83F-22EBDC7BC473";
shapes = (
{
closed = 1;
nodes = (
(396,-26,o),
(552,-26,cs),
(739,-26,o),
(902,52,o),
(902,284,cs),
(902,492,o),
(710,547,o),
(550,596,cs),
(455,625,o),
(285,653,o),
(285,774,cs),
(285,881,o),
(382,917,o),
(493,917,cs),
(606,917,o),
(732,880,o),
(787,844,c),
(834,966,l),
(736,1025,o),
(612,1056,o),
(494,1056,cs),
(294,1056,o),
(114,967,o),
(114,771,cs),
(114,570,o),
(283,512,o),
(448,463,cs),
(555,431,o),
(739,404,o),
(739,272,cs),
(739,150,o),
(644,112,o),
(529,112,cs),
(396,112,o),
(236,170,o),
(161,227,c),
(114,90,l),
(220,25,o)
);
}
);
width = 1001;
}
);
},
{
glyphname = u.alt;
lastChange = "2023-07-28 09:10:20 +0000";
layers = (
{
anchors = (
{
name = ogonek;
pos = (1093,10);
},
{
name = top;
pos = (608,0);
}
);
background = {
anchors = (
{
name = ogonek;
pos = (1093,10);
},
{
name = top;
pos = (608,0);
}
);
shapes = (
{
closed = 1;
nodes = (
(336,-24,o),
(530,-24,cs),
(688,-24,o),
(807,38,o),
(889,155,c),
(916,44,o),
(1014,-4,o),
(1111,-4,c),
(1146,139,l),
(1094,139,o),
(1022,170,o),
(1022,286,cs),
(1022,1026,l),
(857,1026,l),
(857,418,ls),
(857,222,o),
(699,118,o),
(555,118,cs),
(434,118,o),
(324,183,o),
(324,379,cs),
(324,595,l),
(324,911,o),
(285,1026,o),
(285,1026,c),
(120,1026,l),
(120,1026,o),
(159,871,o),
(159,582,c),
(159,379,ls),
(159,94,o)
);
}
);
};
layerId = "9FF46155-5700-4CC7-A83F-22EBDC7BC473";
shapes = (
{
closed = 1;
nodes = (
(336,-24,o),
(530,-24,cs),
(688,-24,o),
(807,38,o),
(889,155,c),
(916,44,o),
(1014,-4,o),
(1111,-4,c),
(1146,139,l),
(1094,139,o),
(1022,170,o),
(1022,286,cs),
(1022,1026,l),
(857,1026,l),
(857,418,ls),
(857,222,o),
(699,118,o),
(555,118,cs),
(434,118,o),
(324,183,o),
(324,379,cs),
(324,595,l),
(324,911,o),
(285,1026,o),
(285,1026,c),
(120,1026,l),
(120,1026,o),
(159,871,o),
(159,582,c),
(159,379,ls),
(159,94,o)
);
}
);
width = 1215;
}
);
},
{
glyphname = fi;
lastChange = "2023-07-28 09:12:26 +0000";
layers = (
{
anchors = (
{
name = caret_1;
pos = (602.5,0);
}
);
background = {
shapes = (
{
closed = 1;
nodes = (
(411,0,l),
(411,919,l),
(869,919,l),
(869,0,l),
(1034,0,l),
(1034,1026,l),
(411,1026,l),
(412,1162,ls),
(412,1297,o),
(438,1379,o),
(573,1379,cs),
(610,1379,o),
(657,1374,o),
(683,1364,c),
(681,1493,l),
(637,1503,o),
(600,1514,o),
(545,1514,cs),
(322,1514,o),
(251,1358,o),
(248,1138,cs),
(246,1026,l),
(45,1026,l),
(45,919,l),
(246,919,l),
(246,0,l)
);
},
{
closed = 1;
nodes = (
(1030,1307,l),
(1030,1462,l),
(877,1462,l),
(877,1307,l)
);
}
);
};
layerId = "9FF46155-5700-4CC7-A83F-22EBDC7BC473";
shapes = (
{
closed = 1;
nodes = (
(411,0,l),
(411,919,l),
(869,919,l),
(869,0,l),
(1034,0,l),
(1034,1026,l),
(411,1026,l),
(412,1162,ls),
(412,1297,o),
(438,1379,o),
(573,1379,cs),
(610,1379,o),
(657,1374,o),
(683,1364,c),
(681,1493,l),
(637,1503,o),
(600,1514,o),
(545,1514,cs),
(322,1514,o),
(251,1358,o),
(248,1138,cs),
(246,1026,l),
(45,1026,l),
(45,919,l),
(246,919,l),
(246,0,l)
);
},
{
closed = 1;
nodes = (
(1030,1307,l),
(1030,1462,l),
(877,1462,l),
(877,1307,l)
);
}
);
width = 1205;
}
);
unicode = 64257;
},
{
glyphname = fl;
lastChange = "2023-07-28 09:12:26 +0000";
layers = (
{
anchors = (
{
name = caret_1;
pos = (692.5,0);
}
);
background = {
anchors = (
{
name = bottom_1;
pos = (1113,0);
},
{
name = top_1;
pos = (1109,1456);
},
{
name = topright_1;
pos = (1278,960);
}
);
shapes = (
{
closed = 1;
nodes = (
(253,1423,o),
(253,1170,cs),
(253,1026,l),
(51,1026,l),
(51,919,l),
(253,919,l),
(253,-34,ls),
(253,-194,o),
(190,-299,o),
(70,-328,c),
(91,-449,l),
(330,-418,o),
(417,-261,o),
(417,-11,cs),
(417,919,l),
(665,919,l),
(665,1026,l),
(417,1026,l),
(417,1193,ls),
(417,1344,o),
(467,1409,o),
(584,1409,cs),
(620,1409,o),
(658,1401,o),
(695,1392,c),
(719,1499,l),
(655,1521,o),
(595,1532,o),
(541,1532,cs),
(339,1532,o)
);
},
{
closed = 1;
nodes = (
(867,300,ls),
(867,-9,o),
(1149,-82,o),
(1419,35,c),
(1394,152,l),
(1218,77,o),
(1031,84,o),
(1031,292,cs),
(1031,1526,l),
(867,1496,l)
);
}
);
};
layerId = "9FF46155-5700-4CC7-A83F-22EBDC7BC473";
shapes = (
{
ref = f;
},
{
pos = (699,0);
ref = l;
}
);
width = 1385;
}
);
unicode = 64258;
},
{
glyphname = ordfeminine;
lastChange = "2023-07-28 09:07:07 +0000";
layers = (
{
background = {
shapes = (
{
closed = 1;
nodes = (
(205,768,o),
(317,768,cs),
(417,768,o),
(492,805,o),
(537,860,c),
(543,786,l),
(674,786,l),
(669,846,o),
(667,870,o),
(667,914,cs),
(669,1235,l),
(669,1400,o),
(558,1477,o),
(394,1477,cs),
(262,1477,o),
(162,1436,o),
(111,1350,c),
(178,1275,l),
(222,1340,o),
(289,1369,o),
(388,1369,cs),
(498,1369,o),
(536,1329,o),
(536,1219,cs),
(536,1211,l),
(462,1201,o),
(383,1202,o),
(309,1192,c),
(189,1174,o),
(66,1112,o),
(66,975,cs),
(66,944,o),
(72,916,o),
(85,890,cs),
(122,814,o)
);
},
{
closed = 1;
nodes = (
(468,871,o),
(338,871,cs),
(260,871,o),
(202,899,o),
(202,977,cs),
(202,1115,o),
(424,1088,o),
(536,1110,c),
(536,1085,l),
(530,962,o)
);
}
);
};
layerId = "9FF46155-5700-4CC7-A83F-22EBDC7BC473";
shapes = (
{
closed = 1;
nodes = (
(205,768,o),
(317,768,cs),
(417,768,o),
(492,805,o),
(537,860,c),
(543,786,l),
(674,786,l),
(669,846,o),
(667,870,o),
(667,914,cs),
(669,1235,l),
(669,1400,o),
(558,1477,o),
(394,1477,cs),
(262,1477,o),
(162,1436,o),
(111,1350,c),
(178,1275,l),
(222,1340,o),
(289,1369,o),
(388,1369,cs),
(498,1369,o),
(536,1329,o),
(536,1219,cs),
(536,1211,l),
(462,1201,o),
(383,1202,o),
(309,1192,c),
(189,1174,o),
(66,1112,o),
(66,975,cs),
(66,944,o),
(72,916,o),
(85,890,cs),
(122,814,o)
);
},
{
closed = 1;
nodes = (
(468,871,o),
(338,871,cs),
(260,871,o),
(202,899,o),
(202,977,cs),
(202,1115,o),
(424,1088,o),
(536,1110,c),
(536,1085,l),
(530,962,o)
);
}
);
width = 745;
}
);
unicode = 170;
},
{
glyphname = ordmasculine;
lastChange = "2023-07-28 09:07:07 +0000";
layers = (
{
background = {
shapes = (
{
closed = 1;
nodes = (
(191,767,o),
(416,767,cs),
(474,767,o),
(526,776,o),
(570,795,cs),
(690,845,o),
(774,954,o),
(774,1121,cs),
(774,1171,o),
(766,1217,o),
(751,1260,cs),
(705,1390,o),
(591,1476,o),
(415,1476,cs),
(357,1476,o),
(306,1466,o),
(261,1448,cs),
(140,1398,o),
(53,1291,o),
(53,1124,cs),
(53,901,o)
);
},
{
closed = 1;
nodes = (
(557,875,o),
(416,875,cs),
(269,875,o),
(193,977,o),
(193,1123,cs),
(193,1264,o),
(271,1369,o),
(413,1369,cs),
(558,1369,o),
(636,1264,o),
(636,1119,cs),
(636,979,o)
);
}
);
};
layerId = "9FF46155-5700-4CC7-A83F-22EBDC7BC473";
shapes = (
{
closed = 1;
nodes = (
(191,767,o),
(416,767,cs),
(474,767,o),
(526,776,o),
(570,795,cs),
(690,845,o),
(774,954,o),
(774,1121,cs),
(774,1171,o),
(766,1217,o),
(751,1260,cs),
(705,1390,o),
(591,1476,o),
(415,1476,cs),
(357,1476,o),
(306,1466,o),
(261,1448,cs),
(140,1398,o),
(53,1291,o),
(53,1124,cs),
(53,901,o)
);
},
{
closed = 1;
nodes = (
(557,875,o),
(416,875,cs),
(269,875,o),
(193,977,o),
(193,1123,cs),
(193,1264,o),
(271,1369,o),
(413,1369,cs),
(558,1369,o),
(636,1264,o),
(636,1119,cs),
(636,979,o)
);
}
);
width = 824;
}
);
unicode = 186;
},
{
glyphname = Delta;
lastChange = "2023-07-28 09:07:07 +0000";
layers = (
{
background = {
shapes = (
{
closed = 1;
nodes = (
(1263,0,l),
(1263,80,l),
(743,1429,l),
(561,1429,l),
(40,80,l),
(40,0,l)
);
},
{
closed = 1;
nodes = (
(615,1111,l),
(647,1218,l),
(681,1111,l),
(1033,162,l),
(269,162,l)
);
}
);
};
layerId = "9FF46155-5700-4CC7-A83F-22EBDC7BC473";
shapes = (
{
closed = 1;
nodes = (
(1263,0,l),
(1263,80,l),
(743,1429,l),
(561,1429,l),
(40,80,l),
(40,0,l)
);
},
{
closed = 1;
nodes = (
(615,1111,l),
(647,1218,l),
(681,1111,l),
(1033,162,l),
(269,162,l)
);
}
);
width = 1314;
}
);
unicode = 916;
},
{
glyphname = Omega;
lastChange = "2023-07-28 09:10:20 +0000";
layers = (
{
anchors = (
{
name = topleft;
pos = (20,0);
}
);
background = {
anchors = (
{
name = topleft;
pos = (20,0);
}
);
shapes = (
{
closed = 1;
nodes = (
(645,0,l),
(642,121,l),
(590,155,o),
(543,195,o),
(500,240,cs),
(386,361,o),
(293,531,o),
(293,759,cs),
(293,840,o),
(305,914,o),
(330,982,cs),
(399,1168,o),
(555,1309,o),
(804,1309,cs),
(887,1309,o),
(960,1294,o),
(1022,1264,cs),
(1194,1181,o),
(1303,1004,o),
(1303,754,cs),
(1303,687,o),
(1294,622,o),
(1276,560,cs),
(1221,367,o),
(1099,221,o),
(949,121,c),
(953,0,l),
(1474,0,l),
(1483,138,l),
(1155,137,l),
(1242,206,o),
(1323,296,o),
(1381,398,cs),
(1437,498,o),
(1481,621,o),
(1481,772,cs),
(1481,980,o),
(1406,1143,o),
(1300,1254,cs),
(1191,1368,o),
(1026,1449,o),
(809,1449,cs),
(596,1449,o),
(426,1374,o),
(312,1266,cs),
(196,1157,o),
(114,994,o),
(114,776,cs),
(114,707,o),
(122,640,o),
(138,578,cs),
(186,385,o),
(295,240,o),
(435,137,c),
(93,138,l),
(104,0,l)
);
}
);
};
layerId = "9FF46155-5700-4CC7-A83F-22EBDC7BC473";
shapes = (
{
closed = 1;
nodes = (
(645,0,l),
(642,121,l),
(590,155,o),
(543,195,o),
(500,240,cs),
(386,361,o),
(293,531,o),
(293,759,cs),
(293,840,o),
(305,914,o),
(330,982,cs),
(399,1168,o),
(555,1309,o),
(804,1309,cs),
(887,1309,o),
(960,1294,o),
(1022,1264,cs),
(1194,1181,o),
(1303,1004,o),
(1303,754,cs),
(1303,687,o),
(1294,622,o),
(1276,560,cs),
(1221,367,o),
(1099,221,o),
(949,121,c),
(953,0,l),
(1474,0,l),
(1483,138,l),
(1155,137,l),
(1242,206,o),
(1323,296,o),
(1381,398,cs),
(1437,498,o),
(1481,621,o),
(1481,772,cs),
(1481,980,o),
(1406,1143,o),
(1300,1254,cs),
(1191,1368,o),
(1026,1449,o),
(809,1449,cs),
(596,1449,o),
(426,1374,o),
(312,1266,cs),
(196,1157,o),
(114,994,o),
(114,776,cs),
(114,707,o),
(122,640,o),
(138,578,cs),
(186,385,o),
(295,240,o),
(435,137,c),
(93,138,l),
(104,0,l)
);
}
);
width = 1603;
}
);
unicode = 937;
},
